<?xml version="1.0" encoding="UTF-8" standalone="no"?>
<!DOCTYPE svg PUBLIC "-//W3C//DTD SVG 1.1//EN" "http://www.w3.org/Graphics/SVG/1.1/DTD/svg11.dtd">
<svg width="100%" height="100%" viewBox="0 0 793 635" version="1.1" xmlns="http://www.w3.org/2000/svg" xmlns:xlink="http://www.w3.org/1999/xlink" xml:space="preserve" xmlns:serif="http://www.serif.com/" style="fill-rule:evenodd;clip-rule:evenodd;stroke-linejoin:round;stroke-miterlimit:2;">
    <g transform="matrix(1,0,0,1,-28.5831,-2432.33)">
        <g transform="matrix(1,0,0,1.2425,0,2184.01)">
            <g transform="matrix(6.83887,-2.23987,2.78303,5.50414,-4612.22,-4113.17)">
                <g transform="matrix(1,0,-0.267949,1,255.75,0)">
                    <g transform="matrix(36,0,0,36,314.62,954.471)">
                        <path d="M0.253,-0.51C0.266,-0.503 0.276,-0.492 0.285,-0.478C0.294,-0.463 0.296,-0.451 0.291,-0.441C0.291,-0.44 0.287,-0.431 0.278,-0.413C0.269,-0.394 0.26,-0.369 0.251,-0.336C0.27,-0.347 0.288,-0.362 0.306,-0.379C0.323,-0.396 0.339,-0.415 0.352,-0.434C0.365,-0.453 0.376,-0.473 0.383,-0.493C0.39,-0.512 0.393,-0.53 0.391,-0.545C0.37,-0.55 0.348,-0.548 0.324,-0.541C0.3,-0.534 0.276,-0.523 0.253,-0.51ZM0.228,-0.23C0.224,-0.204 0.221,-0.175 0.219,-0.144C0.233,-0.144 0.246,-0.142 0.258,-0.139C0.268,-0.136 0.273,-0.13 0.273,-0.122C0.272,-0.113 0.27,-0.105 0.265,-0.096C0.26,-0.087 0.253,-0.079 0.246,-0.072C0.239,-0.065 0.233,-0.063 0.228,-0.064C0.227,-0.064 0.225,-0.064 0.224,-0.065C0.223,-0.065 0.221,-0.065 0.22,-0.065C0.221,-0.058 0.221,-0.05 0.222,-0.042C0.223,-0.034 0.224,-0.026 0.225,-0.018C0.226,-0.016 0.226,-0.014 0.226,-0.012C0.225,-0.01 0.225,-0.008 0.225,-0.007C0.243,-0.017 0.26,-0.031 0.275,-0.049C0.29,-0.066 0.301,-0.089 0.309,-0.118C0.315,-0.138 0.317,-0.157 0.315,-0.174C0.314,-0.175 0.314,-0.176 0.314,-0.177C0.311,-0.2 0.301,-0.215 0.284,-0.222C0.267,-0.229 0.248,-0.231 0.228,-0.23ZM0.187,0.009C0.176,0.007 0.166,0.003 0.156,-0.005C0.146,-0.012 0.14,-0.02 0.137,-0.029C0.137,-0.032 0.136,-0.037 0.135,-0.044C0.124,-0.037 0.113,-0.03 0.104,-0.023C0.094,-0.015 0.086,-0.006 0.081,0.003C0.088,0.01 0.102,0.014 0.122,0.016C0.142,0.018 0.164,0.016 0.187,0.009ZM0.13,-0.129C0.13,-0.17 0.132,-0.209 0.137,-0.245C0.142,-0.281 0.148,-0.314 0.155,-0.344C0.162,-0.373 0.169,-0.399 0.177,-0.421C0.185,-0.443 0.192,-0.46 0.197,-0.473C0.182,-0.462 0.168,-0.451 0.157,-0.44C0.145,-0.428 0.136,-0.419 0.129,-0.411C0.12,-0.4 0.112,-0.397 0.104,-0.402C0.095,-0.407 0.088,-0.415 0.083,-0.426C0.078,-0.436 0.074,-0.448 0.073,-0.462C0.071,-0.474 0.072,-0.484 0.077,-0.489C0.093,-0.509 0.113,-0.529 0.138,-0.548C0.163,-0.567 0.189,-0.584 0.217,-0.598C0.245,-0.611 0.274,-0.621 0.304,-0.628C0.333,-0.635 0.361,-0.636 0.387,-0.631C0.398,-0.629 0.409,-0.623 0.421,-0.613C0.432,-0.603 0.441,-0.592 0.45,-0.579C0.458,-0.566 0.464,-0.552 0.469,-0.539C0.474,-0.525 0.476,-0.513 0.475,-0.503C0.473,-0.476 0.465,-0.449 0.452,-0.42C0.441,-0.396 0.426,-0.373 0.408,-0.35C0.389,-0.327 0.368,-0.306 0.343,-0.287C0.358,-0.276 0.371,-0.263 0.38,-0.248C0.389,-0.233 0.395,-0.217 0.399,-0.2C0.402,-0.183 0.403,-0.165 0.402,-0.147C0.401,-0.128 0.398,-0.111 0.393,-0.094C0.385,-0.067 0.372,-0.043 0.355,-0.02C0.338,0.003 0.317,0.024 0.294,0.042C0.271,0.059 0.246,0.074 0.22,0.085C0.193,0.096 0.167,0.102 0.143,0.105C0.118,0.108 0.094,0.106 0.073,0.1C0.051,0.093 0.033,0.081 0.019,0.064C0.016,0.061 0.012,0.055 0.009,0.046C0.006,0.037 0.003,0.027 0.002,0.016C0.001,0.005 0,-0.007 0.001,-0.018C0.002,-0.029 0.005,-0.039 0.01,-0.046C0.022,-0.065 0.039,-0.082 0.061,-0.096C0.082,-0.11 0.105,-0.121 0.13,-0.129Z" style="fill-rule:nonzero;"/>
                    </g>
                </g>
                <g transform="matrix(1,0,-0.267949,1,255.75,0)">
                    <g transform="matrix(36,0,0,36,328.516,954.471)">
                        <path d="M0.142,-0.284C0.139,-0.307 0.136,-0.326 0.133,-0.339C0.13,-0.352 0.128,-0.36 0.125,-0.363C0.119,-0.35 0.112,-0.331 0.105,-0.306C0.097,-0.28 0.09,-0.253 0.084,-0.225C0.078,-0.197 0.074,-0.171 0.071,-0.146C0.068,-0.121 0.068,-0.104 0.071,-0.093C0.072,-0.092 0.074,-0.097 0.079,-0.108C0.083,-0.119 0.088,-0.134 0.095,-0.153C0.101,-0.172 0.108,-0.193 0.117,-0.216C0.125,-0.239 0.133,-0.262 0.142,-0.284ZM0.179,-0.366C0.185,-0.382 0.189,-0.393 0.192,-0.399C0.194,-0.405 0.195,-0.408 0.195,-0.409C0.198,-0.416 0.205,-0.42 0.214,-0.419C0.223,-0.418 0.233,-0.415 0.243,-0.41C0.252,-0.405 0.26,-0.398 0.267,-0.389C0.274,-0.38 0.276,-0.372 0.274,-0.364C0.274,-0.364 0.272,-0.359 0.269,-0.348C0.266,-0.337 0.262,-0.321 0.258,-0.302C0.253,-0.282 0.249,-0.258 0.245,-0.231C0.24,-0.203 0.237,-0.172 0.234,-0.138C0.243,-0.15 0.251,-0.164 0.259,-0.18C0.266,-0.195 0.273,-0.211 0.28,-0.226C0.283,-0.236 0.289,-0.241 0.296,-0.243C0.303,-0.243 0.309,-0.242 0.315,-0.237C0.321,-0.232 0.326,-0.225 0.329,-0.216C0.332,-0.207 0.332,-0.197 0.329,-0.188C0.317,-0.163 0.305,-0.139 0.292,-0.116C0.279,-0.093 0.267,-0.073 0.256,-0.056C0.244,-0.035 0.232,-0.016 0.22,0.001C0.215,0.005 0.208,0.007 0.2,0.006C0.192,0.005 0.184,0.002 0.176,-0.002C0.167,-0.006 0.16,-0.011 0.154,-0.017C0.147,-0.023 0.144,-0.029 0.143,-0.035C0.14,-0.052 0.14,-0.071 0.142,-0.091C0.144,-0.11 0.146,-0.131 0.148,-0.154C0.135,-0.115 0.124,-0.085 0.114,-0.062C0.103,-0.039 0.091,-0.02 0.078,-0.007C0.072,-0.002 0.065,0.001 0.056,0.001C0.047,0 0.037,-0.002 0.028,-0.006C0.019,-0.01 0.01,-0.016 0.003,-0.023C-0.004,-0.029 -0.009,-0.037 -0.011,-0.044C-0.017,-0.066 -0.019,-0.093 -0.018,-0.125C-0.016,-0.157 -0.012,-0.19 -0.005,-0.223C0.002,-0.256 0.011,-0.288 0.022,-0.319C0.033,-0.35 0.046,-0.375 0.06,-0.394C0.065,-0.401 0.073,-0.406 0.083,-0.41C0.093,-0.413 0.103,-0.415 0.115,-0.416C0.126,-0.416 0.136,-0.414 0.146,-0.411C0.156,-0.408 0.163,-0.402 0.167,-0.395C0.17,-0.39 0.173,-0.385 0.175,-0.381C0.176,-0.377 0.178,-0.372 0.179,-0.366Z" style="fill-rule:nonzero;"/>
                    </g>
                    <g transform="matrix(36,0,0,36,338.56,954.471)">
                        <path d="M0.102,-0.292C0.108,-0.3 0.115,-0.312 0.122,-0.327C0.129,-0.342 0.136,-0.357 0.143,-0.374C0.149,-0.39 0.154,-0.406 0.159,-0.422C0.163,-0.437 0.165,-0.45 0.164,-0.46C0.159,-0.453 0.153,-0.442 0.147,-0.427C0.141,-0.411 0.135,-0.394 0.129,-0.377C0.123,-0.36 0.117,-0.343 0.113,-0.327C0.108,-0.311 0.104,-0.299 0.102,-0.292ZM0.224,-0.263C0.234,-0.264 0.24,-0.261 0.241,-0.253C0.241,-0.245 0.24,-0.236 0.237,-0.226C0.234,-0.215 0.229,-0.206 0.224,-0.197C0.219,-0.188 0.215,-0.184 0.212,-0.183C0.201,-0.182 0.189,-0.18 0.178,-0.178C0.167,-0.176 0.156,-0.174 0.145,-0.171C0.164,-0.148 0.178,-0.123 0.187,-0.094C0.196,-0.065 0.2,-0.036 0.2,-0.006C0.2,0.024 0.195,0.053 0.186,0.082C0.177,0.11 0.163,0.135 0.144,0.156C0.135,0.167 0.123,0.173 0.108,0.173C0.093,0.173 0.079,0.17 0.065,0.165C0.051,0.16 0.039,0.153 0.028,0.146C0.017,0.138 0.01,0.132 0.008,0.127C0.003,0.118 -0.002,0.109 -0.005,0.1C-0.008,0.09 -0.011,0.08 -0.013,0.071C-0.017,0.053 -0.02,0.033 -0.022,0.011C-0.024,-0.012 -0.024,-0.037 -0.023,-0.064C-0.02,-0.121 -0.014,-0.173 -0.004,-0.222C0.007,-0.271 0.018,-0.313 0.029,-0.349C0.042,-0.391 0.057,-0.43 0.073,-0.465C0.08,-0.482 0.09,-0.495 0.103,-0.506C0.116,-0.516 0.129,-0.523 0.143,-0.526C0.148,-0.527 0.155,-0.527 0.164,-0.524C0.172,-0.521 0.182,-0.516 0.192,-0.509C0.201,-0.502 0.21,-0.494 0.217,-0.484C0.224,-0.473 0.229,-0.462 0.23,-0.449C0.231,-0.435 0.229,-0.419 0.224,-0.4C0.219,-0.381 0.212,-0.362 0.203,-0.343C0.194,-0.323 0.183,-0.304 0.172,-0.285C0.161,-0.266 0.15,-0.248 0.139,-0.233C0.154,-0.24 0.169,-0.247 0.184,-0.252C0.198,-0.257 0.211,-0.261 0.224,-0.263ZM0.066,-0.151C0.064,-0.135 0.062,-0.115 0.061,-0.092C0.059,-0.068 0.058,-0.044 0.059,-0.019C0.06,0.006 0.062,0.029 0.065,0.052C0.068,0.075 0.073,0.093 0.08,0.107C0.088,0.094 0.095,0.077 0.101,0.055C0.106,0.032 0.109,0.008 0.11,-0.017C0.11,-0.042 0.107,-0.067 0.101,-0.091C0.094,-0.115 0.083,-0.135 0.066,-0.151Z" style="fill-rule:nonzero;"/>
                    </g>
                    <g transform="matrix(36,0,0,36,346.012,954.471)">
                        <path d="M0.102,-0.292C0.108,-0.3 0.115,-0.312 0.122,-0.327C0.129,-0.342 0.136,-0.357 0.143,-0.374C0.149,-0.39 0.154,-0.406 0.159,-0.422C0.163,-0.437 0.165,-0.45 0.164,-0.46C0.159,-0.453 0.153,-0.442 0.147,-0.427C0.141,-0.411 0.135,-0.394 0.129,-0.377C0.123,-0.36 0.117,-0.343 0.113,-0.327C0.108,-0.311 0.104,-0.299 0.102,-0.292ZM0.224,-0.263C0.234,-0.264 0.24,-0.261 0.241,-0.253C0.241,-0.245 0.24,-0.236 0.237,-0.226C0.234,-0.215 0.229,-0.206 0.224,-0.197C0.219,-0.188 0.215,-0.184 0.212,-0.183C0.201,-0.182 0.189,-0.18 0.178,-0.178C0.167,-0.176 0.156,-0.174 0.145,-0.171C0.164,-0.148 0.178,-0.123 0.187,-0.094C0.196,-0.065 0.2,-0.036 0.2,-0.006C0.2,0.024 0.195,0.053 0.186,0.082C0.177,0.11 0.163,0.135 0.144,0.156C0.135,0.167 0.123,0.173 0.108,0.173C0.093,0.173 0.079,0.17 0.065,0.165C0.051,0.16 0.039,0.153 0.028,0.146C0.017,0.138 0.01,0.132 0.008,0.127C0.003,0.118 -0.002,0.109 -0.005,0.1C-0.008,0.09 -0.011,0.08 -0.013,0.071C-0.017,0.053 -0.02,0.033 -0.022,0.011C-0.024,-0.012 -0.024,-0.037 -0.023,-0.064C-0.02,-0.121 -0.014,-0.173 -0.004,-0.222C0.007,-0.271 0.018,-0.313 0.029,-0.349C0.042,-0.391 0.057,-0.43 0.073,-0.465C0.08,-0.482 0.09,-0.495 0.103,-0.506C0.116,-0.516 0.129,-0.523 0.143,-0.526C0.148,-0.527 0.155,-0.527 0.164,-0.524C0.172,-0.521 0.182,-0.516 0.192,-0.509C0.201,-0.502 0.21,-0.494 0.217,-0.484C0.224,-0.473 0.229,-0.462 0.23,-0.449C0.231,-0.435 0.229,-0.419 0.224,-0.4C0.219,-0.381 0.212,-0.362 0.203,-0.343C0.194,-0.323 0.183,-0.304 0.172,-0.285C0.161,-0.266 0.15,-0.248 0.139,-0.233C0.154,-0.24 0.169,-0.247 0.184,-0.252C0.198,-0.257 0.211,-0.261 0.224,-0.263ZM0.066,-0.151C0.064,-0.135 0.062,-0.115 0.061,-0.092C0.059,-0.068 0.058,-0.044 0.059,-0.019C0.06,0.006 0.062,0.029 0.065,0.052C0.068,0.075 0.073,0.093 0.08,0.107C0.088,0.094 0.095,0.077 0.101,0.055C0.106,0.032 0.109,0.008 0.11,-0.017C0.11,-0.042 0.107,-0.067 0.101,-0.091C0.094,-0.115 0.083,-0.135 0.066,-0.151Z" style="fill-rule:nonzero;"/>
                    </g>
                    <g transform="matrix(36,0,0,36,353.464,954.471)">
                        <path d="M0.033,-0.411C0.037,-0.424 0.044,-0.431 0.053,-0.431C0.062,-0.431 0.072,-0.428 0.081,-0.422C0.09,-0.416 0.099,-0.409 0.106,-0.401C0.113,-0.393 0.117,-0.388 0.116,-0.386C0.107,-0.355 0.098,-0.323 0.091,-0.291C0.084,-0.263 0.079,-0.232 0.074,-0.199C0.069,-0.165 0.065,-0.131 0.064,-0.098C0.073,-0.109 0.082,-0.122 0.089,-0.135C0.096,-0.148 0.105,-0.164 0.114,-0.183C0.118,-0.194 0.124,-0.201 0.132,-0.204C0.14,-0.207 0.148,-0.207 0.155,-0.205C0.162,-0.203 0.168,-0.199 0.173,-0.193C0.177,-0.187 0.177,-0.181 0.173,-0.174C0.166,-0.155 0.156,-0.133 0.143,-0.111C0.13,-0.088 0.117,-0.066 0.104,-0.047C0.091,-0.027 0.079,-0.01 0.07,0.003C0.06,0.016 0.055,0.023 0.055,0.023C0.049,0.03 0.042,0.032 0.034,0.031C0.025,0.029 0.017,0.025 0.009,0.02C0.001,0.015 -0.006,0.009 -0.012,0.002C-0.017,-0.005 -0.02,-0.01 -0.021,-0.013C-0.022,-0.041 -0.022,-0.071 -0.02,-0.103C-0.017,-0.134 -0.014,-0.165 -0.01,-0.196C-0.005,-0.227 -0,-0.256 0.005,-0.283C0.01,-0.31 0.015,-0.334 0.02,-0.354C0.024,-0.374 0.028,-0.389 0.031,-0.4C0.034,-0.411 0.034,-0.414 0.033,-0.411ZM0.071,-0.556C0.076,-0.569 0.085,-0.578 0.098,-0.583C0.111,-0.587 0.123,-0.588 0.136,-0.586C0.148,-0.584 0.158,-0.579 0.165,-0.572C0.172,-0.565 0.172,-0.556 0.165,-0.546L0.124,-0.466C0.119,-0.453 0.113,-0.446 0.104,-0.445C0.094,-0.444 0.086,-0.446 0.078,-0.452C0.069,-0.457 0.062,-0.464 0.056,-0.473C0.05,-0.481 0.048,-0.488 0.049,-0.493L0.071,-0.556Z" style="fill-rule:nonzero;"/>
                    </g>
                    <g transform="matrix(36,0,0,36,358.252,954.471)">
                        <path d="M0.043,-0.408C0.049,-0.421 0.057,-0.427 0.066,-0.426C0.075,-0.424 0.084,-0.42 0.093,-0.413C0.101,-0.406 0.108,-0.398 0.114,-0.389C0.12,-0.38 0.123,-0.374 0.122,-0.372C0.117,-0.357 0.113,-0.342 0.109,-0.328C0.106,-0.316 0.102,-0.304 0.099,-0.292C0.095,-0.28 0.092,-0.27 0.09,-0.263C0.096,-0.276 0.104,-0.29 0.113,-0.306C0.122,-0.322 0.132,-0.338 0.143,-0.353C0.154,-0.368 0.165,-0.383 0.177,-0.396C0.188,-0.409 0.199,-0.418 0.209,-0.425C0.213,-0.428 0.22,-0.428 0.229,-0.425C0.238,-0.422 0.247,-0.417 0.257,-0.411C0.266,-0.404 0.273,-0.397 0.278,-0.388C0.283,-0.379 0.285,-0.37 0.282,-0.361C0.281,-0.357 0.278,-0.347 0.273,-0.332C0.268,-0.317 0.262,-0.297 0.256,-0.273C0.25,-0.249 0.244,-0.222 0.238,-0.191C0.232,-0.16 0.228,-0.126 0.225,-0.091C0.229,-0.095 0.234,-0.101 0.239,-0.11C0.244,-0.119 0.248,-0.128 0.253,-0.138C0.258,-0.148 0.262,-0.158 0.266,-0.168C0.27,-0.178 0.273,-0.186 0.276,-0.193C0.279,-0.204 0.284,-0.211 0.291,-0.215C0.298,-0.219 0.304,-0.22 0.311,-0.219C0.317,-0.218 0.322,-0.214 0.326,-0.208C0.33,-0.202 0.331,-0.194 0.328,-0.185C0.32,-0.158 0.31,-0.133 0.299,-0.11C0.288,-0.086 0.277,-0.065 0.267,-0.047C0.255,-0.026 0.243,-0.006 0.231,0.013C0.225,0.018 0.217,0.02 0.207,0.018C0.197,0.016 0.187,0.012 0.178,0.007C0.168,0.002 0.16,-0.004 0.153,-0.01C0.146,-0.016 0.142,-0.02 0.141,-0.023C0.136,-0.073 0.138,-0.121 0.146,-0.168C0.153,-0.214 0.162,-0.258 0.171,-0.299C0.153,-0.268 0.137,-0.235 0.124,-0.2C0.11,-0.165 0.098,-0.132 0.089,-0.103C0.08,-0.073 0.073,-0.048 0.068,-0.029C0.063,-0.009 0.061,0.001 0.061,0.001C0.059,0.014 0.054,0.021 0.045,0.021C0.036,0.021 0.027,0.018 0.018,0.012C0.009,0.005 0,-0.003 -0.007,-0.013C-0.014,-0.022 -0.018,-0.031 -0.018,-0.038C-0.017,-0.093 -0.014,-0.143 -0.007,-0.188C-0,-0.233 0.007,-0.272 0.014,-0.305C0.023,-0.343 0.032,-0.377 0.043,-0.408Z" style="fill-rule:nonzero;"/>
                    </g>
                </g>
            </g>
        </g>
        <g transform="matrix(1,0,0,1.2425,0,2184.01)">
            <g transform="matrix(6.83887,-2.23987,2.78303,5.50414,-4621.22,-4118.8)">
                <g transform="matrix(1,0,-0.267949,1,255.75,0)">
                    <g transform="matrix(36,0,0,36,314.62,954.471)">
                        <path d="M0.253,-0.51C0.266,-0.503 0.276,-0.492 0.285,-0.478C0.294,-0.463 0.296,-0.451 0.291,-0.441C0.291,-0.44 0.287,-0.431 0.278,-0.413C0.269,-0.394 0.26,-0.369 0.251,-0.336C0.27,-0.347 0.288,-0.362 0.306,-0.379C0.323,-0.396 0.339,-0.415 0.352,-0.434C0.365,-0.453 0.376,-0.473 0.383,-0.493C0.39,-0.512 0.393,-0.53 0.391,-0.545C0.37,-0.55 0.348,-0.548 0.324,-0.541C0.3,-0.534 0.276,-0.523 0.253,-0.51ZM0.228,-0.23C0.224,-0.204 0.221,-0.175 0.219,-0.144C0.233,-0.144 0.246,-0.142 0.258,-0.139C0.268,-0.136 0.273,-0.13 0.273,-0.122C0.272,-0.113 0.27,-0.105 0.265,-0.096C0.26,-0.087 0.253,-0.079 0.246,-0.072C0.239,-0.065 0.233,-0.063 0.228,-0.064C0.227,-0.064 0.225,-0.064 0.224,-0.065C0.223,-0.065 0.221,-0.065 0.22,-0.065C0.221,-0.058 0.221,-0.05 0.222,-0.042C0.223,-0.034 0.224,-0.026 0.225,-0.018C0.226,-0.016 0.226,-0.014 0.226,-0.012C0.225,-0.01 0.225,-0.008 0.225,-0.007C0.243,-0.017 0.26,-0.031 0.275,-0.049C0.29,-0.066 0.301,-0.089 0.309,-0.118C0.315,-0.138 0.317,-0.157 0.315,-0.174C0.314,-0.175 0.314,-0.176 0.314,-0.177C0.311,-0.2 0.301,-0.215 0.284,-0.222C0.267,-0.229 0.248,-0.231 0.228,-0.23ZM0.187,0.009C0.176,0.007 0.166,0.003 0.156,-0.005C0.146,-0.012 0.14,-0.02 0.137,-0.029C0.137,-0.032 0.136,-0.037 0.135,-0.044C0.124,-0.037 0.113,-0.03 0.104,-0.023C0.094,-0.015 0.086,-0.006 0.081,0.003C0.088,0.01 0.102,0.014 0.122,0.016C0.142,0.018 0.164,0.016 0.187,0.009ZM0.13,-0.129C0.13,-0.17 0.132,-0.209 0.137,-0.245C0.142,-0.281 0.148,-0.314 0.155,-0.344C0.162,-0.373 0.169,-0.399 0.177,-0.421C0.185,-0.443 0.192,-0.46 0.197,-0.473C0.182,-0.462 0.168,-0.451 0.157,-0.44C0.145,-0.428 0.136,-0.419 0.129,-0.411C0.12,-0.4 0.112,-0.397 0.104,-0.402C0.095,-0.407 0.088,-0.415 0.083,-0.426C0.078,-0.436 0.074,-0.448 0.073,-0.462C0.071,-0.474 0.072,-0.484 0.077,-0.489C0.093,-0.509 0.113,-0.529 0.138,-0.548C0.163,-0.567 0.189,-0.584 0.217,-0.598C0.245,-0.611 0.274,-0.621 0.304,-0.628C0.333,-0.635 0.361,-0.636 0.387,-0.631C0.398,-0.629 0.409,-0.623 0.421,-0.613C0.432,-0.603 0.441,-0.592 0.45,-0.579C0.458,-0.566 0.464,-0.552 0.469,-0.539C0.474,-0.525 0.476,-0.513 0.475,-0.503C0.473,-0.476 0.465,-0.449 0.452,-0.42C0.441,-0.396 0.426,-0.373 0.408,-0.35C0.389,-0.327 0.368,-0.306 0.343,-0.287C0.358,-0.276 0.371,-0.263 0.38,-0.248C0.389,-0.233 0.395,-0.217 0.399,-0.2C0.402,-0.183 0.403,-0.165 0.402,-0.147C0.401,-0.128 0.398,-0.111 0.393,-0.094C0.385,-0.067 0.372,-0.043 0.355,-0.02C0.338,0.003 0.317,0.024 0.294,0.042C0.271,0.059 0.246,0.074 0.22,0.085C0.193,0.096 0.167,0.102 0.143,0.105C0.118,0.108 0.094,0.106 0.073,0.1C0.051,0.093 0.033,0.081 0.019,0.064C0.016,0.061 0.012,0.055 0.009,0.046C0.006,0.037 0.003,0.027 0.002,0.016C0.001,0.005 0,-0.007 0.001,-0.018C0.002,-0.029 0.005,-0.039 0.01,-0.046C0.022,-0.065 0.039,-0.082 0.061,-0.096C0.082,-0.11 0.105,-0.121 0.13,-0.129Z" style="fill:rgb(252,240,218);fill-rule:nonzero;"/>
                    </g>
                </g>
                <g transform="matrix(1,0,-0.267949,1,255.75,0)">
                    <g transform="matrix(36,0,0,36,328.516,954.471)">
                        <path d="M0.142,-0.284C0.139,-0.307 0.136,-0.326 0.133,-0.339C0.13,-0.352 0.128,-0.36 0.125,-0.363C0.119,-0.35 0.112,-0.331 0.105,-0.306C0.097,-0.28 0.09,-0.253 0.084,-0.225C0.078,-0.197 0.074,-0.171 0.071,-0.146C0.068,-0.121 0.068,-0.104 0.071,-0.093C0.072,-0.092 0.074,-0.097 0.079,-0.108C0.083,-0.119 0.088,-0.134 0.095,-0.153C0.101,-0.172 0.108,-0.193 0.117,-0.216C0.125,-0.239 0.133,-0.262 0.142,-0.284ZM0.179,-0.366C0.185,-0.382 0.189,-0.393 0.192,-0.399C0.194,-0.405 0.195,-0.408 0.195,-0.409C0.198,-0.416 0.205,-0.42 0.214,-0.419C0.223,-0.418 0.233,-0.415 0.243,-0.41C0.252,-0.405 0.26,-0.398 0.267,-0.389C0.274,-0.38 0.276,-0.372 0.274,-0.364C0.274,-0.364 0.272,-0.359 0.269,-0.348C0.266,-0.337 0.262,-0.321 0.258,-0.302C0.253,-0.282 0.249,-0.258 0.245,-0.231C0.24,-0.203 0.237,-0.172 0.234,-0.138C0.243,-0.15 0.251,-0.164 0.259,-0.18C0.266,-0.195 0.273,-0.211 0.28,-0.226C0.283,-0.236 0.289,-0.241 0.296,-0.243C0.303,-0.243 0.309,-0.242 0.315,-0.237C0.321,-0.232 0.326,-0.225 0.329,-0.216C0.332,-0.207 0.332,-0.197 0.329,-0.188C0.317,-0.163 0.305,-0.139 0.292,-0.116C0.279,-0.093 0.267,-0.073 0.256,-0.056C0.244,-0.035 0.232,-0.016 0.22,0.001C0.215,0.005 0.208,0.007 0.2,0.006C0.192,0.005 0.184,0.002 0.176,-0.002C0.167,-0.006 0.16,-0.011 0.154,-0.017C0.147,-0.023 0.144,-0.029 0.143,-0.035C0.14,-0.052 0.14,-0.071 0.142,-0.091C0.144,-0.11 0.146,-0.131 0.148,-0.154C0.135,-0.115 0.124,-0.085 0.114,-0.062C0.103,-0.039 0.091,-0.02 0.078,-0.007C0.072,-0.002 0.065,0.001 0.056,0.001C0.047,0 0.037,-0.002 0.028,-0.006C0.019,-0.01 0.01,-0.016 0.003,-0.023C-0.004,-0.029 -0.009,-0.037 -0.011,-0.044C-0.017,-0.066 -0.019,-0.093 -0.018,-0.125C-0.016,-0.157 -0.012,-0.19 -0.005,-0.223C0.002,-0.256 0.011,-0.288 0.022,-0.319C0.033,-0.35 0.046,-0.375 0.06,-0.394C0.065,-0.401 0.073,-0.406 0.083,-0.41C0.093,-0.413 0.103,-0.415 0.115,-0.416C0.126,-0.416 0.136,-0.414 0.146,-0.411C0.156,-0.408 0.163,-0.402 0.167,-0.395C0.17,-0.39 0.173,-0.385 0.175,-0.381C0.176,-0.377 0.178,-0.372 0.179,-0.366Z" style="fill:rgb(252,240,218);fill-rule:nonzero;"/>
                    </g>
                    <g transform="matrix(36,0,0,36,338.56,954.471)">
                        <path d="M0.102,-0.292C0.108,-0.3 0.115,-0.312 0.122,-0.327C0.129,-0.342 0.136,-0.357 0.143,-0.374C0.149,-0.39 0.154,-0.406 0.159,-0.422C0.163,-0.437 0.165,-0.45 0.164,-0.46C0.159,-0.453 0.153,-0.442 0.147,-0.427C0.141,-0.411 0.135,-0.394 0.129,-0.377C0.123,-0.36 0.117,-0.343 0.113,-0.327C0.108,-0.311 0.104,-0.299 0.102,-0.292ZM0.224,-0.263C0.234,-0.264 0.24,-0.261 0.241,-0.253C0.241,-0.245 0.24,-0.236 0.237,-0.226C0.234,-0.215 0.229,-0.206 0.224,-0.197C0.219,-0.188 0.215,-0.184 0.212,-0.183C0.201,-0.182 0.189,-0.18 0.178,-0.178C0.167,-0.176 0.156,-0.174 0.145,-0.171C0.164,-0.148 0.178,-0.123 0.187,-0.094C0.196,-0.065 0.2,-0.036 0.2,-0.006C0.2,0.024 0.195,0.053 0.186,0.082C0.177,0.11 0.163,0.135 0.144,0.156C0.135,0.167 0.123,0.173 0.108,0.173C0.093,0.173 0.079,0.17 0.065,0.165C0.051,0.16 0.039,0.153 0.028,0.146C0.017,0.138 0.01,0.132 0.008,0.127C0.003,0.118 -0.002,0.109 -0.005,0.1C-0.008,0.09 -0.011,0.08 -0.013,0.071C-0.017,0.053 -0.02,0.033 -0.022,0.011C-0.024,-0.012 -0.024,-0.037 -0.023,-0.064C-0.02,-0.121 -0.014,-0.173 -0.004,-0.222C0.007,-0.271 0.018,-0.313 0.029,-0.349C0.042,-0.391 0.057,-0.43 0.073,-0.465C0.08,-0.482 0.09,-0.495 0.103,-0.506C0.116,-0.516 0.129,-0.523 0.143,-0.526C0.148,-0.527 0.155,-0.527 0.164,-0.524C0.172,-0.521 0.182,-0.516 0.192,-0.509C0.201,-0.502 0.21,-0.494 0.217,-0.484C0.224,-0.473 0.229,-0.462 0.23,-0.449C0.231,-0.435 0.229,-0.419 0.224,-0.4C0.219,-0.381 0.212,-0.362 0.203,-0.343C0.194,-0.323 0.183,-0.304 0.172,-0.285C0.161,-0.266 0.15,-0.248 0.139,-0.233C0.154,-0.24 0.169,-0.247 0.184,-0.252C0.198,-0.257 0.211,-0.261 0.224,-0.263ZM0.066,-0.151C0.064,-0.135 0.062,-0.115 0.061,-0.092C0.059,-0.068 0.058,-0.044 0.059,-0.019C0.06,0.006 0.062,0.029 0.065,0.052C0.068,0.075 0.073,0.093 0.08,0.107C0.088,0.094 0.095,0.077 0.101,0.055C0.106,0.032 0.109,0.008 0.11,-0.017C0.11,-0.042 0.107,-0.067 0.101,-0.091C0.094,-0.115 0.083,-0.135 0.066,-0.151Z" style="fill:rgb(252,240,218);fill-rule:nonzero;"/>
                    </g>
                    <g transform="matrix(36,0,0,36,346.012,954.471)">
                        <path d="M0.102,-0.292C0.108,-0.3 0.115,-0.312 0.122,-0.327C0.129,-0.342 0.136,-0.357 0.143,-0.374C0.149,-0.39 0.154,-0.406 0.159,-0.422C0.163,-0.437 0.165,-0.45 0.164,-0.46C0.159,-0.453 0.153,-0.442 0.147,-0.427C0.141,-0.411 0.135,-0.394 0.129,-0.377C0.123,-0.36 0.117,-0.343 0.113,-0.327C0.108,-0.311 0.104,-0.299 0.102,-0.292ZM0.224,-0.263C0.234,-0.264 0.24,-0.261 0.241,-0.253C0.241,-0.245 0.24,-0.236 0.237,-0.226C0.234,-0.215 0.229,-0.206 0.224,-0.197C0.219,-0.188 0.215,-0.184 0.212,-0.183C0.201,-0.182 0.189,-0.18 0.178,-0.178C0.167,-0.176 0.156,-0.174 0.145,-0.171C0.164,-0.148 0.178,-0.123 0.187,-0.094C0.196,-0.065 0.2,-0.036 0.2,-0.006C0.2,0.024 0.195,0.053 0.186,0.082C0.177,0.11 0.163,0.135 0.144,0.156C0.135,0.167 0.123,0.173 0.108,0.173C0.093,0.173 0.079,0.17 0.065,0.165C0.051,0.16 0.039,0.153 0.028,0.146C0.017,0.138 0.01,0.132 0.008,0.127C0.003,0.118 -0.002,0.109 -0.005,0.1C-0.008,0.09 -0.011,0.08 -0.013,0.071C-0.017,0.053 -0.02,0.033 -0.022,0.011C-0.024,-0.012 -0.024,-0.037 -0.023,-0.064C-0.02,-0.121 -0.014,-0.173 -0.004,-0.222C0.007,-0.271 0.018,-0.313 0.029,-0.349C0.042,-0.391 0.057,-0.43 0.073,-0.465C0.08,-0.482 0.09,-0.495 0.103,-0.506C0.116,-0.516 0.129,-0.523 0.143,-0.526C0.148,-0.527 0.155,-0.527 0.164,-0.524C0.172,-0.521 0.182,-0.516 0.192,-0.509C0.201,-0.502 0.21,-0.494 0.217,-0.484C0.224,-0.473 0.229,-0.462 0.23,-0.449C0.231,-0.435 0.229,-0.419 0.224,-0.4C0.219,-0.381 0.212,-0.362 0.203,-0.343C0.194,-0.323 0.183,-0.304 0.172,-0.285C0.161,-0.266 0.15,-0.248 0.139,-0.233C0.154,-0.24 0.169,-0.247 0.184,-0.252C0.198,-0.257 0.211,-0.261 0.224,-0.263ZM0.066,-0.151C0.064,-0.135 0.062,-0.115 0.061,-0.092C0.059,-0.068 0.058,-0.044 0.059,-0.019C0.06,0.006 0.062,0.029 0.065,0.052C0.068,0.075 0.073,0.093 0.08,0.107C0.088,0.094 0.095,0.077 0.101,0.055C0.106,0.032 0.109,0.008 0.11,-0.017C0.11,-0.042 0.107,-0.067 0.101,-0.091C0.094,-0.115 0.083,-0.135 0.066,-0.151Z" style="fill:rgb(252,240,218);fill-rule:nonzero;"/>
                    </g>
                    <g transform="matrix(36,0,0,36,353.464,954.471)">
                        <path d="M0.033,-0.411C0.037,-0.424 0.044,-0.431 0.053,-0.431C0.062,-0.431 0.072,-0.428 0.081,-0.422C0.09,-0.416 0.099,-0.409 0.106,-0.401C0.113,-0.393 0.117,-0.388 0.116,-0.386C0.107,-0.355 0.098,-0.323 0.091,-0.291C0.084,-0.263 0.079,-0.232 0.074,-0.199C0.069,-0.165 0.065,-0.131 0.064,-0.098C0.073,-0.109 0.082,-0.122 0.089,-0.135C0.096,-0.148 0.105,-0.164 0.114,-0.183C0.118,-0.194 0.124,-0.201 0.132,-0.204C0.14,-0.207 0.148,-0.207 0.155,-0.205C0.162,-0.203 0.168,-0.199 0.173,-0.193C0.177,-0.187 0.177,-0.181 0.173,-0.174C0.166,-0.155 0.156,-0.133 0.143,-0.111C0.13,-0.088 0.117,-0.066 0.104,-0.047C0.091,-0.027 0.079,-0.01 0.07,0.003C0.06,0.016 0.055,0.023 0.055,0.023C0.049,0.03 0.042,0.032 0.034,0.031C0.025,0.029 0.017,0.025 0.009,0.02C0.001,0.015 -0.006,0.009 -0.012,0.002C-0.017,-0.005 -0.02,-0.01 -0.021,-0.013C-0.022,-0.041 -0.022,-0.071 -0.02,-0.103C-0.017,-0.134 -0.014,-0.165 -0.01,-0.196C-0.005,-0.227 -0,-0.256 0.005,-0.283C0.01,-0.31 0.015,-0.334 0.02,-0.354C0.024,-0.374 0.028,-0.389 0.031,-0.4C0.034,-0.411 0.034,-0.414 0.033,-0.411ZM0.071,-0.556C0.076,-0.569 0.085,-0.578 0.098,-0.583C0.111,-0.587 0.123,-0.588 0.136,-0.586C0.148,-0.584 0.158,-0.579 0.165,-0.572C0.172,-0.565 0.172,-0.556 0.165,-0.546L0.124,-0.466C0.119,-0.453 0.113,-0.446 0.104,-0.445C0.094,-0.444 0.086,-0.446 0.078,-0.452C0.069,-0.457 0.062,-0.464 0.056,-0.473C0.05,-0.481 0.048,-0.488 0.049,-0.493L0.071,-0.556Z" style="fill:rgb(252,240,218);fill-rule:nonzero;"/>
                    </g>
                    <g transform="matrix(36,0,0,36,358.252,954.471)">
                        <path d="M0.043,-0.408C0.049,-0.421 0.057,-0.427 0.066,-0.426C0.075,-0.424 0.084,-0.42 0.093,-0.413C0.101,-0.406 0.108,-0.398 0.114,-0.389C0.12,-0.38 0.123,-0.374 0.122,-0.372C0.117,-0.357 0.113,-0.342 0.109,-0.328C0.106,-0.316 0.102,-0.304 0.099,-0.292C0.095,-0.28 0.092,-0.27 0.09,-0.263C0.096,-0.276 0.104,-0.29 0.113,-0.306C0.122,-0.322 0.132,-0.338 0.143,-0.353C0.154,-0.368 0.165,-0.383 0.177,-0.396C0.188,-0.409 0.199,-0.418 0.209,-0.425C0.213,-0.428 0.22,-0.428 0.229,-0.425C0.238,-0.422 0.247,-0.417 0.257,-0.411C0.266,-0.404 0.273,-0.397 0.278,-0.388C0.283,-0.379 0.285,-0.37 0.282,-0.361C0.281,-0.357 0.278,-0.347 0.273,-0.332C0.268,-0.317 0.262,-0.297 0.256,-0.273C0.25,-0.249 0.244,-0.222 0.238,-0.191C0.232,-0.16 0.228,-0.126 0.225,-0.091C0.229,-0.095 0.234,-0.101 0.239,-0.11C0.244,-0.119 0.248,-0.128 0.253,-0.138C0.258,-0.148 0.262,-0.158 0.266,-0.168C0.27,-0.178 0.273,-0.186 0.276,-0.193C0.279,-0.204 0.284,-0.211 0.291,-0.215C0.298,-0.219 0.304,-0.22 0.311,-0.219C0.317,-0.218 0.322,-0.214 0.326,-0.208C0.33,-0.202 0.331,-0.194 0.328,-0.185C0.32,-0.158 0.31,-0.133 0.299,-0.11C0.288,-0.086 0.277,-0.065 0.267,-0.047C0.255,-0.026 0.243,-0.006 0.231,0.013C0.225,0.018 0.217,0.02 0.207,0.018C0.197,0.016 0.187,0.012 0.178,0.007C0.168,0.002 0.16,-0.004 0.153,-0.01C0.146,-0.016 0.142,-0.02 0.141,-0.023C0.136,-0.073 0.138,-0.121 0.146,-0.168C0.153,-0.214 0.162,-0.258 0.171,-0.299C0.153,-0.268 0.137,-0.235 0.124,-0.2C0.11,-0.165 0.098,-0.132 0.089,-0.103C0.08,-0.073 0.073,-0.048 0.068,-0.029C0.063,-0.009 0.061,0.001 0.061,0.001C0.059,0.014 0.054,0.021 0.045,0.021C0.036,0.021 0.027,0.018 0.018,0.012C0.009,0.005 0,-0.003 -0.007,-0.013C-0.014,-0.022 -0.018,-0.031 -0.018,-0.038C-0.017,-0.093 -0.014,-0.143 -0.007,-0.188C-0,-0.233 0.007,-0.272 0.014,-0.305C0.023,-0.343 0.032,-0.377 0.043,-0.408Z" style="fill:rgb(252,240,218);fill-rule:nonzero;"/>
                    </g>
                </g>
            </g>
        </g>
        <g transform="matrix(1,0,0,1.2425,0,2184.01)">
            <g transform="matrix(9.46117,-3.09873,3.85015,7.61465,-6583.45,-5629.3)">
                <g transform="matrix(1,0,-0.267949,1,255.75,0)">
                    <g transform="matrix(36,0,0,36,314.62,954.471)">
                        <path d="M0.253,-0.51C0.266,-0.503 0.276,-0.492 0.285,-0.478C0.294,-0.463 0.296,-0.451 0.291,-0.441C0.291,-0.44 0.287,-0.431 0.278,-0.413C0.269,-0.394 0.26,-0.369 0.251,-0.336C0.27,-0.347 0.288,-0.362 0.306,-0.379C0.323,-0.396 0.339,-0.415 0.352,-0.434C0.365,-0.453 0.376,-0.473 0.383,-0.493C0.39,-0.512 0.393,-0.53 0.391,-0.545C0.37,-0.55 0.348,-0.548 0.324,-0.541C0.3,-0.534 0.276,-0.523 0.253,-0.51ZM0.228,-0.23C0.224,-0.204 0.221,-0.175 0.219,-0.144C0.233,-0.144 0.246,-0.142 0.258,-0.139C0.268,-0.136 0.273,-0.13 0.273,-0.122C0.272,-0.113 0.27,-0.105 0.265,-0.096C0.26,-0.087 0.253,-0.079 0.246,-0.072C0.239,-0.065 0.233,-0.063 0.228,-0.064C0.227,-0.064 0.225,-0.064 0.224,-0.065C0.223,-0.065 0.221,-0.065 0.22,-0.065C0.221,-0.058 0.221,-0.05 0.222,-0.042C0.223,-0.034 0.224,-0.026 0.225,-0.018C0.226,-0.016 0.226,-0.014 0.226,-0.012C0.225,-0.01 0.225,-0.008 0.225,-0.007C0.243,-0.017 0.26,-0.031 0.275,-0.049C0.29,-0.066 0.301,-0.089 0.309,-0.118C0.315,-0.138 0.317,-0.157 0.315,-0.174C0.314,-0.175 0.314,-0.176 0.314,-0.177C0.311,-0.2 0.301,-0.215 0.284,-0.222C0.267,-0.229 0.248,-0.231 0.228,-0.23ZM0.187,0.009C0.176,0.007 0.166,0.003 0.156,-0.005C0.146,-0.012 0.14,-0.02 0.137,-0.029C0.137,-0.032 0.136,-0.037 0.135,-0.044C0.124,-0.037 0.113,-0.03 0.104,-0.023C0.094,-0.015 0.086,-0.006 0.081,0.003C0.088,0.01 0.102,0.014 0.122,0.016C0.142,0.018 0.164,0.016 0.187,0.009ZM0.13,-0.129C0.13,-0.17 0.132,-0.209 0.137,-0.245C0.142,-0.281 0.148,-0.314 0.155,-0.344C0.162,-0.373 0.169,-0.399 0.177,-0.421C0.185,-0.443 0.192,-0.46 0.197,-0.473C0.182,-0.462 0.168,-0.451 0.157,-0.44C0.145,-0.428 0.136,-0.419 0.129,-0.411C0.12,-0.4 0.112,-0.397 0.104,-0.402C0.095,-0.407 0.088,-0.415 0.083,-0.426C0.078,-0.436 0.074,-0.448 0.073,-0.462C0.071,-0.474 0.072,-0.484 0.077,-0.489C0.093,-0.509 0.113,-0.529 0.138,-0.548C0.163,-0.567 0.189,-0.584 0.217,-0.598C0.245,-0.611 0.274,-0.621 0.304,-0.628C0.333,-0.635 0.361,-0.636 0.387,-0.631C0.398,-0.629 0.409,-0.623 0.421,-0.613C0.432,-0.603 0.441,-0.592 0.45,-0.579C0.458,-0.566 0.464,-0.552 0.469,-0.539C0.474,-0.525 0.476,-0.513 0.475,-0.503C0.473,-0.476 0.465,-0.449 0.452,-0.42C0.441,-0.396 0.426,-0.373 0.408,-0.35C0.389,-0.327 0.368,-0.306 0.343,-0.287C0.358,-0.276 0.371,-0.263 0.38,-0.248C0.389,-0.233 0.395,-0.217 0.399,-0.2C0.402,-0.183 0.403,-0.165 0.402,-0.147C0.401,-0.128 0.398,-0.111 0.393,-0.094C0.385,-0.067 0.372,-0.043 0.355,-0.02C0.338,0.003 0.317,0.024 0.294,0.042C0.271,0.059 0.246,0.074 0.22,0.085C0.193,0.096 0.167,0.102 0.143,0.105C0.118,0.108 0.094,0.106 0.073,0.1C0.051,0.093 0.033,0.081 0.019,0.064C0.016,0.061 0.012,0.055 0.009,0.046C0.006,0.037 0.003,0.027 0.002,0.016C0.001,0.005 0,-0.007 0.001,-0.018C0.002,-0.029 0.005,-0.039 0.01,-0.046C0.022,-0.065 0.039,-0.082 0.061,-0.096C0.082,-0.11 0.105,-0.121 0.13,-0.129Z" style="fill-rule:nonzero;"/>
                    </g>
                </g>
                <g transform="matrix(1,0,-0.267949,1,255.75,0)">
                    <g transform="matrix(36,0,0,36,328.876,954.471)">
                        <path d="M0.142,-0.284C0.139,-0.307 0.136,-0.326 0.133,-0.339C0.13,-0.352 0.128,-0.36 0.125,-0.363C0.119,-0.35 0.112,-0.331 0.105,-0.306C0.097,-0.28 0.09,-0.253 0.084,-0.225C0.078,-0.197 0.074,-0.171 0.071,-0.146C0.068,-0.121 0.068,-0.104 0.071,-0.093C0.072,-0.092 0.074,-0.097 0.079,-0.108C0.083,-0.119 0.088,-0.134 0.095,-0.153C0.101,-0.172 0.108,-0.193 0.117,-0.216C0.125,-0.239 0.133,-0.262 0.142,-0.284ZM0.179,-0.366C0.185,-0.382 0.189,-0.393 0.192,-0.399C0.194,-0.405 0.195,-0.408 0.195,-0.409C0.198,-0.416 0.205,-0.42 0.214,-0.419C0.223,-0.418 0.233,-0.415 0.243,-0.41C0.252,-0.405 0.26,-0.398 0.267,-0.389C0.274,-0.38 0.276,-0.372 0.274,-0.364C0.274,-0.364 0.272,-0.359 0.269,-0.348C0.266,-0.337 0.262,-0.321 0.258,-0.302C0.253,-0.282 0.249,-0.258 0.245,-0.231C0.24,-0.203 0.237,-0.172 0.234,-0.138C0.243,-0.15 0.251,-0.164 0.259,-0.18C0.266,-0.195 0.273,-0.211 0.28,-0.226C0.283,-0.236 0.289,-0.241 0.296,-0.243C0.303,-0.243 0.309,-0.242 0.315,-0.237C0.321,-0.232 0.326,-0.225 0.329,-0.216C0.332,-0.207 0.332,-0.197 0.329,-0.188C0.317,-0.163 0.305,-0.139 0.292,-0.116C0.279,-0.093 0.267,-0.073 0.256,-0.056C0.244,-0.035 0.232,-0.016 0.22,0.001C0.215,0.005 0.208,0.007 0.2,0.006C0.192,0.005 0.184,0.002 0.176,-0.002C0.167,-0.006 0.16,-0.011 0.154,-0.017C0.147,-0.023 0.144,-0.029 0.143,-0.035C0.14,-0.052 0.14,-0.071 0.142,-0.091C0.144,-0.11 0.146,-0.131 0.148,-0.154C0.135,-0.115 0.124,-0.085 0.114,-0.062C0.103,-0.039 0.091,-0.02 0.078,-0.007C0.072,-0.002 0.065,0.001 0.056,0.001C0.047,0 0.037,-0.002 0.028,-0.006C0.019,-0.01 0.01,-0.016 0.003,-0.023C-0.004,-0.029 -0.009,-0.037 -0.011,-0.044C-0.017,-0.066 -0.019,-0.093 -0.018,-0.125C-0.016,-0.157 -0.012,-0.19 -0.005,-0.223C0.002,-0.256 0.011,-0.288 0.022,-0.319C0.033,-0.35 0.046,-0.375 0.06,-0.394C0.065,-0.401 0.073,-0.406 0.083,-0.41C0.093,-0.413 0.103,-0.415 0.115,-0.416C0.126,-0.416 0.136,-0.414 0.146,-0.411C0.156,-0.408 0.163,-0.402 0.167,-0.395C0.17,-0.39 0.173,-0.385 0.175,-0.381C0.176,-0.377 0.178,-0.372 0.179,-0.366Z" style="fill-rule:nonzero;"/>
                    </g>
                </g>
                <g transform="matrix(1,0,-0.267949,1,255.75,0)">
                    <g transform="matrix(36,0,0,36,338.92,954.471)">
                        <path d="M0.202,-0.413C0.206,-0.423 0.213,-0.428 0.222,-0.427C0.231,-0.426 0.241,-0.422 0.25,-0.417C0.259,-0.411 0.267,-0.404 0.274,-0.396C0.281,-0.387 0.284,-0.38 0.283,-0.375C0.283,-0.375 0.282,-0.369 0.281,-0.358C0.279,-0.346 0.276,-0.33 0.273,-0.311C0.27,-0.291 0.266,-0.268 0.262,-0.242C0.258,-0.216 0.254,-0.189 0.249,-0.16C0.244,-0.131 0.24,-0.101 0.235,-0.071C0.23,-0.04 0.225,-0.011 0.22,0.017C0.236,0.018 0.253,0.018 0.271,0.019C0.289,0.02 0.308,0.021 0.327,0.024C0.345,0.027 0.364,0.031 0.383,0.036C0.402,0.041 0.42,0.047 0.437,0.056C0.45,0.063 0.455,0.071 0.453,0.081C0.451,0.091 0.446,0.1 0.437,0.109C0.428,0.118 0.417,0.125 0.406,0.131C0.395,0.136 0.386,0.138 0.38,0.137C0.349,0.121 0.319,0.111 0.291,0.106C0.262,0.101 0.234,0.098 0.206,0.095C0.199,0.124 0.192,0.148 0.183,0.167C0.173,0.186 0.163,0.207 0.151,0.229C0.134,0.259 0.116,0.284 0.096,0.305C0.076,0.326 0.055,0.34 0.032,0.348C0.018,0.353 0.005,0.356 -0.008,0.357C-0.017,0.358 -0.027,0.356 -0.039,0.351C-0.05,0.346 -0.061,0.34 -0.072,0.332C-0.083,0.324 -0.092,0.315 -0.1,0.304C-0.108,0.293 -0.112,0.282 -0.113,0.27C-0.115,0.247 -0.11,0.223 -0.097,0.198C-0.084,0.173 -0.066,0.149 -0.043,0.127C-0.02,0.105 0.007,0.085 0.038,0.068C0.068,0.05 0.099,0.037 0.131,0.028L0.16,-0.156C0.143,-0.116 0.128,-0.083 0.114,-0.057C0.099,-0.031 0.086,-0.014 0.073,-0.007C0.064,-0.002 0.054,0 0.045,-0.002C0.036,-0.004 0.027,-0.008 0.02,-0.013C0.012,-0.018 0.006,-0.025 0.001,-0.032C-0.005,-0.039 -0.007,-0.046 -0.008,-0.052C-0.011,-0.08 -0.011,-0.112 -0.007,-0.148C-0.003,-0.184 0.003,-0.219 0.01,-0.253C0.017,-0.287 0.024,-0.317 0.031,-0.344C0.038,-0.371 0.044,-0.389 0.047,-0.399C0.051,-0.412 0.058,-0.418 0.068,-0.419C0.077,-0.419 0.087,-0.416 0.097,-0.41C0.107,-0.404 0.115,-0.396 0.122,-0.387C0.129,-0.378 0.131,-0.37 0.129,-0.363C0.129,-0.363 0.127,-0.357 0.123,-0.344C0.118,-0.331 0.113,-0.313 0.108,-0.292C0.103,-0.271 0.097,-0.246 0.092,-0.219C0.087,-0.192 0.083,-0.163 0.081,-0.134C0.095,-0.151 0.112,-0.182 0.131,-0.226C0.15,-0.269 0.171,-0.327 0.194,-0.398C0.196,-0.403 0.199,-0.408 0.202,-0.413ZM0.115,0.109C0.09,0.123 0.067,0.139 0.047,0.157C0.026,0.175 0.009,0.192 -0.005,0.208C-0.019,0.223 -0.029,0.237 -0.036,0.248C-0.042,0.259 -0.043,0.265 -0.04,0.266C-0.03,0.271 -0.017,0.268 -0.001,0.257C0.015,0.246 0.031,0.231 0.047,0.214C0.062,0.196 0.077,0.177 0.09,0.158C0.102,0.138 0.111,0.122 0.115,0.109Z" style="fill-rule:nonzero;"/>
                    </g>
                </g>
                <g transform="matrix(1,0,-0.267949,1,255.75,0)">
                    <g transform="matrix(36,0,0,36,348.712,954.471)">
                        <path d="M0.035,-0.386C0.04,-0.399 0.047,-0.406 0.056,-0.406C0.065,-0.406 0.073,-0.403 0.082,-0.397C0.09,-0.391 0.097,-0.384 0.103,-0.376C0.108,-0.367 0.111,-0.361 0.11,-0.358C0.11,-0.358 0.108,-0.35 0.104,-0.334C0.099,-0.317 0.094,-0.297 0.089,-0.272C0.084,-0.247 0.079,-0.219 0.074,-0.188C0.069,-0.157 0.066,-0.126 0.065,-0.096C0.068,-0.103 0.072,-0.112 0.077,-0.125C0.082,-0.138 0.086,-0.152 0.091,-0.167C0.096,-0.182 0.101,-0.197 0.106,-0.213C0.111,-0.228 0.116,-0.242 0.121,-0.255C0.126,-0.268 0.13,-0.278 0.134,-0.286C0.138,-0.293 0.141,-0.297 0.144,-0.296C0.149,-0.295 0.155,-0.292 0.162,-0.289C0.169,-0.285 0.175,-0.281 0.181,-0.276C0.186,-0.271 0.191,-0.265 0.195,-0.259C0.198,-0.252 0.2,-0.246 0.2,-0.239L0.2,-0.203C0.2,-0.194 0.2,-0.184 0.201,-0.173C0.201,-0.162 0.202,-0.151 0.203,-0.141C0.214,-0.172 0.226,-0.211 0.238,-0.26C0.25,-0.308 0.26,-0.362 0.267,-0.423C0.269,-0.437 0.275,-0.445 0.284,-0.448C0.293,-0.45 0.302,-0.449 0.313,-0.446C0.323,-0.442 0.332,-0.436 0.341,-0.43C0.349,-0.423 0.353,-0.417 0.353,-0.413C0.352,-0.402 0.349,-0.385 0.345,-0.362C0.341,-0.339 0.336,-0.314 0.33,-0.286C0.323,-0.257 0.316,-0.228 0.308,-0.197C0.3,-0.166 0.291,-0.137 0.282,-0.111C0.272,-0.084 0.262,-0.06 0.252,-0.04C0.241,-0.019 0.23,-0.005 0.219,0.002C0.214,0.005 0.209,0.007 0.202,0.006C0.195,0.005 0.188,0.002 0.182,-0.001C0.175,-0.004 0.17,-0.008 0.165,-0.012C0.16,-0.015 0.156,-0.018 0.155,-0.02C0.152,-0.025 0.149,-0.032 0.147,-0.042C0.145,-0.051 0.143,-0.061 0.142,-0.072C0.14,-0.083 0.139,-0.093 0.138,-0.105C0.137,-0.115 0.135,-0.125 0.133,-0.133C0.127,-0.116 0.121,-0.098 0.114,-0.082C0.107,-0.065 0.1,-0.049 0.094,-0.037C0.087,-0.024 0.082,-0.013 0.077,-0.005C0.072,0.003 0.07,0.007 0.07,0.007C0.065,0.016 0.057,0.02 0.048,0.02C0.038,0.019 0.029,0.016 0.02,0.011C0.011,0.006 0.003,-0.001 -0.005,-0.009C-0.012,-0.016 -0.015,-0.023 -0.015,-0.029C-0.015,-0.078 -0.012,-0.124 -0.008,-0.167C-0.003,-0.21 0.003,-0.247 0.01,-0.28C0.017,-0.318 0.026,-0.353 0.035,-0.386Z" style="fill-rule:nonzero;"/>
                    </g>
                </g>
                <g transform="matrix(1,0,-0.267949,1,255.75,0)">
                    <g transform="matrix(36,0,0,36,360.628,954.471)">
                        <path d="M0.142,-0.284C0.139,-0.307 0.136,-0.326 0.133,-0.339C0.13,-0.352 0.128,-0.36 0.125,-0.363C0.119,-0.35 0.112,-0.331 0.105,-0.306C0.097,-0.28 0.09,-0.253 0.084,-0.225C0.078,-0.197 0.074,-0.171 0.071,-0.146C0.068,-0.121 0.068,-0.104 0.071,-0.093C0.072,-0.092 0.074,-0.097 0.079,-0.108C0.083,-0.119 0.088,-0.134 0.095,-0.153C0.101,-0.172 0.108,-0.193 0.117,-0.216C0.125,-0.239 0.133,-0.262 0.142,-0.284ZM0.179,-0.366C0.185,-0.382 0.189,-0.393 0.192,-0.399C0.194,-0.405 0.195,-0.408 0.195,-0.409C0.198,-0.416 0.205,-0.42 0.214,-0.419C0.223,-0.418 0.233,-0.415 0.243,-0.41C0.252,-0.405 0.26,-0.398 0.267,-0.389C0.274,-0.38 0.276,-0.372 0.274,-0.364C0.274,-0.364 0.272,-0.359 0.269,-0.348C0.266,-0.337 0.262,-0.321 0.258,-0.302C0.253,-0.282 0.249,-0.258 0.245,-0.231C0.24,-0.203 0.237,-0.172 0.234,-0.138C0.243,-0.15 0.251,-0.164 0.259,-0.18C0.266,-0.195 0.273,-0.211 0.28,-0.226C0.283,-0.236 0.289,-0.241 0.296,-0.243C0.303,-0.243 0.309,-0.242 0.315,-0.237C0.321,-0.232 0.326,-0.225 0.329,-0.216C0.332,-0.207 0.332,-0.197 0.329,-0.188C0.317,-0.163 0.305,-0.139 0.292,-0.116C0.279,-0.093 0.267,-0.073 0.256,-0.056C0.244,-0.035 0.232,-0.016 0.22,0.001C0.215,0.005 0.208,0.007 0.2,0.006C0.192,0.005 0.184,0.002 0.176,-0.002C0.167,-0.006 0.16,-0.011 0.154,-0.017C0.147,-0.023 0.144,-0.029 0.143,-0.035C0.14,-0.052 0.14,-0.071 0.142,-0.091C0.144,-0.11 0.146,-0.131 0.148,-0.154C0.135,-0.115 0.124,-0.085 0.114,-0.062C0.103,-0.039 0.091,-0.02 0.078,-0.007C0.072,-0.002 0.065,0.001 0.056,0.001C0.047,0 0.037,-0.002 0.028,-0.006C0.019,-0.01 0.01,-0.016 0.003,-0.023C-0.004,-0.029 -0.009,-0.037 -0.011,-0.044C-0.017,-0.066 -0.019,-0.093 -0.018,-0.125C-0.016,-0.157 -0.012,-0.19 -0.005,-0.223C0.002,-0.256 0.011,-0.288 0.022,-0.319C0.033,-0.35 0.046,-0.375 0.06,-0.394C0.065,-0.401 0.073,-0.406 0.083,-0.41C0.093,-0.413 0.103,-0.415 0.115,-0.416C0.126,-0.416 0.136,-0.414 0.146,-0.411C0.156,-0.408 0.163,-0.402 0.167,-0.395C0.17,-0.39 0.173,-0.385 0.175,-0.381C0.176,-0.377 0.178,-0.372 0.179,-0.366Z" style="fill-rule:nonzero;"/>
                    </g>
                    <g transform="matrix(36,0,0,36,370.672,954.471)">
                        <path d="M0.098,-0.574C0.103,-0.587 0.11,-0.594 0.119,-0.593C0.128,-0.592 0.136,-0.588 0.145,-0.582C0.153,-0.575 0.16,-0.568 0.166,-0.56C0.171,-0.552 0.174,-0.547 0.174,-0.546C0.173,-0.545 0.17,-0.535 0.163,-0.515C0.156,-0.494 0.147,-0.467 0.136,-0.433L0.185,-0.433C0.196,-0.433 0.203,-0.43 0.206,-0.423C0.208,-0.416 0.208,-0.408 0.205,-0.4C0.202,-0.392 0.197,-0.385 0.192,-0.378C0.186,-0.371 0.181,-0.367 0.176,-0.367L0.116,-0.366C0.103,-0.322 0.092,-0.275 0.082,-0.224C0.071,-0.172 0.064,-0.123 0.061,-0.075C0.075,-0.09 0.088,-0.106 0.1,-0.124C0.111,-0.142 0.124,-0.165 0.139,-0.193C0.144,-0.202 0.151,-0.207 0.158,-0.208C0.165,-0.209 0.171,-0.207 0.177,-0.203C0.183,-0.199 0.187,-0.193 0.19,-0.186C0.193,-0.179 0.192,-0.172 0.189,-0.165C0.172,-0.132 0.155,-0.103 0.14,-0.08C0.124,-0.056 0.11,-0.036 0.097,-0.021C0.084,-0.006 0.073,0.006 0.064,0.014C0.055,0.022 0.047,0.027 0.042,0.03C0.035,0.035 0.028,0.037 0.022,0.037C0.019,0.037 0.015,0.035 0.01,0.033C0.005,0.029 0,0.026 -0.005,0.021C-0.01,0.016 -0.014,0.012 -0.018,0.007C-0.022,0.002 -0.024,-0.001 -0.025,-0.003C-0.026,-0.032 -0.026,-0.061 -0.023,-0.092C-0.02,-0.123 -0.017,-0.154 -0.012,-0.185C-0.007,-0.216 -0,-0.246 0.007,-0.277C0.014,-0.307 0.021,-0.336 0.029,-0.364L0.005,-0.364C-0.006,-0.364 -0.013,-0.368 -0.015,-0.376C-0.016,-0.383 -0.015,-0.391 -0.012,-0.4C-0.008,-0.409 -0.003,-0.417 0.003,-0.424C0.009,-0.431 0.014,-0.434 0.017,-0.433L0.049,-0.433C0.056,-0.454 0.062,-0.474 0.068,-0.491C0.073,-0.507 0.078,-0.522 0.083,-0.535C0.088,-0.55 0.093,-0.563 0.098,-0.574Z" style="fill-rule:nonzero;"/>
                    </g>
                    <g transform="matrix(36,0,0,36,376.108,954.471)">
                        <path d="M0.16,-0.241C0.157,-0.236 0.154,-0.235 0.15,-0.238C0.145,-0.24 0.141,-0.243 0.137,-0.248C0.132,-0.253 0.129,-0.258 0.126,-0.263C0.123,-0.268 0.121,-0.272 0.122,-0.274C0.123,-0.283 0.125,-0.293 0.127,-0.303C0.128,-0.312 0.13,-0.321 0.131,-0.329C0.132,-0.338 0.134,-0.348 0.135,-0.357C0.126,-0.35 0.117,-0.337 0.111,-0.318C0.103,-0.298 0.097,-0.276 0.092,-0.253C0.087,-0.229 0.083,-0.206 0.08,-0.183C0.077,-0.16 0.076,-0.143 0.076,-0.13C0.076,-0.115 0.076,-0.104 0.077,-0.095C0.077,-0.086 0.078,-0.078 0.081,-0.069C0.086,-0.072 0.093,-0.079 0.103,-0.092C0.113,-0.105 0.123,-0.119 0.134,-0.135C0.144,-0.151 0.154,-0.167 0.163,-0.184C0.172,-0.2 0.179,-0.213 0.183,-0.224C0.189,-0.237 0.196,-0.245 0.203,-0.249C0.21,-0.252 0.217,-0.251 0.222,-0.247C0.227,-0.243 0.231,-0.237 0.234,-0.228C0.236,-0.219 0.235,-0.209 0.23,-0.198C0.226,-0.189 0.22,-0.173 0.211,-0.153C0.202,-0.131 0.191,-0.109 0.179,-0.086C0.167,-0.063 0.154,-0.041 0.141,-0.02C0.127,0.002 0.113,0.017 0.1,0.026C0.092,0.031 0.083,0.032 0.072,0.029C0.061,0.025 0.051,0.02 0.042,0.013C0.032,0.006 0.024,-0 0.017,-0.007C0.01,-0.014 0.006,-0.018 0.005,-0.019C-0.002,-0.033 -0.006,-0.05 -0.008,-0.071C-0.01,-0.092 -0.011,-0.112 -0.01,-0.131C-0.01,-0.168 -0.006,-0.206 0.001,-0.245C0.004,-0.262 0.009,-0.28 0.016,-0.299C0.022,-0.318 0.03,-0.337 0.039,-0.355C0.048,-0.372 0.06,-0.388 0.074,-0.401C0.087,-0.413 0.103,-0.422 0.121,-0.426C0.131,-0.428 0.14,-0.426 0.15,-0.421C0.159,-0.416 0.166,-0.409 0.173,-0.401C0.18,-0.393 0.185,-0.384 0.189,-0.375C0.193,-0.366 0.195,-0.358 0.195,-0.352C0.195,-0.343 0.194,-0.334 0.191,-0.323C0.188,-0.312 0.185,-0.302 0.182,-0.291C0.178,-0.28 0.174,-0.271 0.17,-0.262C0.166,-0.253 0.163,-0.246 0.16,-0.241Z" style="fill-rule:nonzero;"/>
                    </g>
                    <g transform="matrix(36,0,0,36,383.02,954.471)">
                        <path d="M0.096,-0.57C0.101,-0.583 0.108,-0.59 0.117,-0.59C0.126,-0.589 0.134,-0.586 0.143,-0.58C0.151,-0.574 0.158,-0.567 0.164,-0.56C0.169,-0.552 0.172,-0.547 0.172,-0.546C0.172,-0.546 0.169,-0.539 0.164,-0.525C0.159,-0.51 0.152,-0.491 0.144,-0.468C0.136,-0.444 0.128,-0.417 0.119,-0.387C0.11,-0.357 0.101,-0.326 0.093,-0.294C0.106,-0.318 0.12,-0.343 0.135,-0.368C0.15,-0.393 0.166,-0.414 0.184,-0.429C0.192,-0.436 0.2,-0.438 0.209,-0.436C0.217,-0.434 0.224,-0.43 0.231,-0.424C0.238,-0.418 0.243,-0.411 0.248,-0.404C0.252,-0.397 0.254,-0.391 0.254,-0.386C0.254,-0.386 0.252,-0.376 0.247,-0.356C0.242,-0.336 0.237,-0.311 0.231,-0.282C0.224,-0.253 0.218,-0.221 0.212,-0.186C0.205,-0.151 0.2,-0.119 0.197,-0.09C0.208,-0.105 0.218,-0.121 0.226,-0.14C0.234,-0.158 0.243,-0.176 0.252,-0.193C0.258,-0.206 0.265,-0.213 0.273,-0.216C0.28,-0.218 0.287,-0.217 0.293,-0.213C0.299,-0.208 0.303,-0.202 0.305,-0.194C0.307,-0.185 0.306,-0.177 0.301,-0.169C0.288,-0.142 0.274,-0.118 0.261,-0.095C0.248,-0.071 0.236,-0.052 0.225,-0.035C0.214,-0.018 0.206,-0.005 0.199,0.005C0.192,0.014 0.188,0.019 0.188,0.019C0.181,0.025 0.174,0.028 0.166,0.027C0.157,0.026 0.15,0.024 0.143,0.02C0.136,0.016 0.13,0.011 0.125,0.006C0.12,0.001 0.117,-0.003 0.116,-0.006C0.114,-0.019 0.114,-0.036 0.115,-0.059C0.116,-0.081 0.119,-0.105 0.123,-0.131C0.126,-0.157 0.131,-0.184 0.136,-0.211C0.141,-0.238 0.147,-0.262 0.153,-0.284C0.13,-0.248 0.111,-0.213 0.098,-0.18C0.085,-0.146 0.075,-0.116 0.068,-0.089C0.061,-0.062 0.056,-0.039 0.054,-0.021C0.051,-0.002 0.049,0.009 0.048,0.014C0.046,0.025 0.041,0.031 0.034,0.032C0.027,0.033 0.019,0.032 0.01,0.029C0.001,0.025 -0.007,0.02 -0.014,0.014C-0.021,0.007 -0.026,0.002 -0.027,-0.003C-0.03,-0.042 -0.029,-0.083 -0.025,-0.126C-0.02,-0.169 -0.013,-0.211 -0.004,-0.253C0.006,-0.295 0.016,-0.335 0.027,-0.374C0.038,-0.412 0.049,-0.446 0.06,-0.475C0.07,-0.503 0.079,-0.527 0.086,-0.544C0.093,-0.561 0.096,-0.57 0.096,-0.57Z" style="fill-rule:nonzero;"/>
                    </g>
                </g>
            </g>
        </g>
        <g transform="matrix(1,0,0,1.2425,0,2184.01)">
            <g transform="matrix(9.46117,-3.09873,3.85015,7.61465,-6593.17,-5628.55)">
                <g transform="matrix(1,0,-0.267949,1,255.75,0)">
                    <g transform="matrix(36,0,0,36,314.62,954.471)">
                        <path d="M0.253,-0.51C0.266,-0.503 0.276,-0.492 0.285,-0.478C0.294,-0.463 0.296,-0.451 0.291,-0.441C0.291,-0.44 0.287,-0.431 0.278,-0.413C0.269,-0.394 0.26,-0.369 0.251,-0.336C0.27,-0.347 0.288,-0.362 0.306,-0.379C0.323,-0.396 0.339,-0.415 0.352,-0.434C0.365,-0.453 0.376,-0.473 0.383,-0.493C0.39,-0.512 0.393,-0.53 0.391,-0.545C0.37,-0.55 0.348,-0.548 0.324,-0.541C0.3,-0.534 0.276,-0.523 0.253,-0.51ZM0.228,-0.23C0.224,-0.204 0.221,-0.175 0.219,-0.144C0.233,-0.144 0.246,-0.142 0.258,-0.139C0.268,-0.136 0.273,-0.13 0.273,-0.122C0.272,-0.113 0.27,-0.105 0.265,-0.096C0.26,-0.087 0.253,-0.079 0.246,-0.072C0.239,-0.065 0.233,-0.063 0.228,-0.064C0.227,-0.064 0.225,-0.064 0.224,-0.065C0.223,-0.065 0.221,-0.065 0.22,-0.065C0.221,-0.058 0.221,-0.05 0.222,-0.042C0.223,-0.034 0.224,-0.026 0.225,-0.018C0.226,-0.016 0.226,-0.014 0.226,-0.012C0.225,-0.01 0.225,-0.008 0.225,-0.007C0.243,-0.017 0.26,-0.031 0.275,-0.049C0.29,-0.066 0.301,-0.089 0.309,-0.118C0.315,-0.138 0.317,-0.157 0.315,-0.174C0.314,-0.175 0.314,-0.176 0.314,-0.177C0.311,-0.2 0.301,-0.215 0.284,-0.222C0.267,-0.229 0.248,-0.231 0.228,-0.23ZM0.187,0.009C0.176,0.007 0.166,0.003 0.156,-0.005C0.146,-0.012 0.14,-0.02 0.137,-0.029C0.137,-0.032 0.136,-0.037 0.135,-0.044C0.124,-0.037 0.113,-0.03 0.104,-0.023C0.094,-0.015 0.086,-0.006 0.081,0.003C0.088,0.01 0.102,0.014 0.122,0.016C0.142,0.018 0.164,0.016 0.187,0.009ZM0.13,-0.129C0.13,-0.17 0.132,-0.209 0.137,-0.245C0.142,-0.281 0.148,-0.314 0.155,-0.344C0.162,-0.373 0.169,-0.399 0.177,-0.421C0.185,-0.443 0.192,-0.46 0.197,-0.473C0.182,-0.462 0.168,-0.451 0.157,-0.44C0.145,-0.428 0.136,-0.419 0.129,-0.411C0.12,-0.4 0.112,-0.397 0.104,-0.402C0.095,-0.407 0.088,-0.415 0.083,-0.426C0.078,-0.436 0.074,-0.448 0.073,-0.462C0.071,-0.474 0.072,-0.484 0.077,-0.489C0.093,-0.509 0.113,-0.529 0.138,-0.548C0.163,-0.567 0.189,-0.584 0.217,-0.598C0.245,-0.611 0.274,-0.621 0.304,-0.628C0.333,-0.635 0.361,-0.636 0.387,-0.631C0.398,-0.629 0.409,-0.623 0.421,-0.613C0.432,-0.603 0.441,-0.592 0.45,-0.579C0.458,-0.566 0.464,-0.552 0.469,-0.539C0.474,-0.525 0.476,-0.513 0.475,-0.503C0.473,-0.476 0.465,-0.449 0.452,-0.42C0.441,-0.396 0.426,-0.373 0.408,-0.35C0.389,-0.327 0.368,-0.306 0.343,-0.287C0.358,-0.276 0.371,-0.263 0.38,-0.248C0.389,-0.233 0.395,-0.217 0.399,-0.2C0.402,-0.183 0.403,-0.165 0.402,-0.147C0.401,-0.128 0.398,-0.111 0.393,-0.094C0.385,-0.067 0.372,-0.043 0.355,-0.02C0.338,0.003 0.317,0.024 0.294,0.042C0.271,0.059 0.246,0.074 0.22,0.085C0.193,0.096 0.167,0.102 0.143,0.105C0.118,0.108 0.094,0.106 0.073,0.1C0.051,0.093 0.033,0.081 0.019,0.064C0.016,0.061 0.012,0.055 0.009,0.046C0.006,0.037 0.003,0.027 0.002,0.016C0.001,0.005 0,-0.007 0.001,-0.018C0.002,-0.029 0.005,-0.039 0.01,-0.046C0.022,-0.065 0.039,-0.082 0.061,-0.096C0.082,-0.11 0.105,-0.121 0.13,-0.129Z" style="fill:white;fill-rule:nonzero;"/>
                    </g>
                </g>
                <g transform="matrix(1,0,-0.267949,1,255.75,0)">
                    <g transform="matrix(36,0,0,36,328.876,954.471)">
                        <path d="M0.142,-0.284C0.139,-0.307 0.136,-0.326 0.133,-0.339C0.13,-0.352 0.128,-0.36 0.125,-0.363C0.119,-0.35 0.112,-0.331 0.105,-0.306C0.097,-0.28 0.09,-0.253 0.084,-0.225C0.078,-0.197 0.074,-0.171 0.071,-0.146C0.068,-0.121 0.068,-0.104 0.071,-0.093C0.072,-0.092 0.074,-0.097 0.079,-0.108C0.083,-0.119 0.088,-0.134 0.095,-0.153C0.101,-0.172 0.108,-0.193 0.117,-0.216C0.125,-0.239 0.133,-0.262 0.142,-0.284ZM0.179,-0.366C0.185,-0.382 0.189,-0.393 0.192,-0.399C0.194,-0.405 0.195,-0.408 0.195,-0.409C0.198,-0.416 0.205,-0.42 0.214,-0.419C0.223,-0.418 0.233,-0.415 0.243,-0.41C0.252,-0.405 0.26,-0.398 0.267,-0.389C0.274,-0.38 0.276,-0.372 0.274,-0.364C0.274,-0.364 0.272,-0.359 0.269,-0.348C0.266,-0.337 0.262,-0.321 0.258,-0.302C0.253,-0.282 0.249,-0.258 0.245,-0.231C0.24,-0.203 0.237,-0.172 0.234,-0.138C0.243,-0.15 0.251,-0.164 0.259,-0.18C0.266,-0.195 0.273,-0.211 0.28,-0.226C0.283,-0.236 0.289,-0.241 0.296,-0.243C0.303,-0.243 0.309,-0.242 0.315,-0.237C0.321,-0.232 0.326,-0.225 0.329,-0.216C0.332,-0.207 0.332,-0.197 0.329,-0.188C0.317,-0.163 0.305,-0.139 0.292,-0.116C0.279,-0.093 0.267,-0.073 0.256,-0.056C0.244,-0.035 0.232,-0.016 0.22,0.001C0.215,0.005 0.208,0.007 0.2,0.006C0.192,0.005 0.184,0.002 0.176,-0.002C0.167,-0.006 0.16,-0.011 0.154,-0.017C0.147,-0.023 0.144,-0.029 0.143,-0.035C0.14,-0.052 0.14,-0.071 0.142,-0.091C0.144,-0.11 0.146,-0.131 0.148,-0.154C0.135,-0.115 0.124,-0.085 0.114,-0.062C0.103,-0.039 0.091,-0.02 0.078,-0.007C0.072,-0.002 0.065,0.001 0.056,0.001C0.047,0 0.037,-0.002 0.028,-0.006C0.019,-0.01 0.01,-0.016 0.003,-0.023C-0.004,-0.029 -0.009,-0.037 -0.011,-0.044C-0.017,-0.066 -0.019,-0.093 -0.018,-0.125C-0.016,-0.157 -0.012,-0.19 -0.005,-0.223C0.002,-0.256 0.011,-0.288 0.022,-0.319C0.033,-0.35 0.046,-0.375 0.06,-0.394C0.065,-0.401 0.073,-0.406 0.083,-0.41C0.093,-0.413 0.103,-0.415 0.115,-0.416C0.126,-0.416 0.136,-0.414 0.146,-0.411C0.156,-0.408 0.163,-0.402 0.167,-0.395C0.17,-0.39 0.173,-0.385 0.175,-0.381C0.176,-0.377 0.178,-0.372 0.179,-0.366Z" style="fill:white;fill-rule:nonzero;"/>
                    </g>
                </g>
                <g transform="matrix(1,0,-0.267949,1,255.75,0)">
                    <g transform="matrix(36,0,0,36,338.92,954.471)">
                        <path d="M0.202,-0.413C0.206,-0.423 0.213,-0.428 0.222,-0.427C0.231,-0.426 0.241,-0.422 0.25,-0.417C0.259,-0.411 0.267,-0.404 0.274,-0.396C0.281,-0.387 0.284,-0.38 0.283,-0.375C0.283,-0.375 0.282,-0.369 0.281,-0.358C0.279,-0.346 0.276,-0.33 0.273,-0.311C0.27,-0.291 0.266,-0.268 0.262,-0.242C0.258,-0.216 0.254,-0.189 0.249,-0.16C0.244,-0.131 0.24,-0.101 0.235,-0.071C0.23,-0.04 0.225,-0.011 0.22,0.017C0.236,0.018 0.253,0.018 0.271,0.019C0.289,0.02 0.308,0.021 0.327,0.024C0.345,0.027 0.364,0.031 0.383,0.036C0.402,0.041 0.42,0.047 0.437,0.056C0.45,0.063 0.455,0.071 0.453,0.081C0.451,0.091 0.446,0.1 0.437,0.109C0.428,0.118 0.417,0.125 0.406,0.131C0.395,0.136 0.386,0.138 0.38,0.137C0.349,0.121 0.319,0.111 0.291,0.106C0.262,0.101 0.234,0.098 0.206,0.095C0.199,0.124 0.192,0.148 0.183,0.167C0.173,0.186 0.163,0.207 0.151,0.229C0.134,0.259 0.116,0.284 0.096,0.305C0.076,0.326 0.055,0.34 0.032,0.348C0.018,0.353 0.005,0.356 -0.008,0.357C-0.017,0.358 -0.027,0.356 -0.039,0.351C-0.05,0.346 -0.061,0.34 -0.072,0.332C-0.083,0.324 -0.092,0.315 -0.1,0.304C-0.108,0.293 -0.112,0.282 -0.113,0.27C-0.115,0.247 -0.11,0.223 -0.097,0.198C-0.084,0.173 -0.066,0.149 -0.043,0.127C-0.02,0.105 0.007,0.085 0.038,0.068C0.068,0.05 0.099,0.037 0.131,0.028L0.16,-0.156C0.143,-0.116 0.128,-0.083 0.114,-0.057C0.099,-0.031 0.086,-0.014 0.073,-0.007C0.064,-0.002 0.054,0 0.045,-0.002C0.036,-0.004 0.027,-0.008 0.02,-0.013C0.012,-0.018 0.006,-0.025 0.001,-0.032C-0.005,-0.039 -0.007,-0.046 -0.008,-0.052C-0.011,-0.08 -0.011,-0.112 -0.007,-0.148C-0.003,-0.184 0.003,-0.219 0.01,-0.253C0.017,-0.287 0.024,-0.317 0.031,-0.344C0.038,-0.371 0.044,-0.389 0.047,-0.399C0.051,-0.412 0.058,-0.418 0.068,-0.419C0.077,-0.419 0.087,-0.416 0.097,-0.41C0.107,-0.404 0.115,-0.396 0.122,-0.387C0.129,-0.378 0.131,-0.37 0.129,-0.363C0.129,-0.363 0.127,-0.357 0.123,-0.344C0.118,-0.331 0.113,-0.313 0.108,-0.292C0.103,-0.271 0.097,-0.246 0.092,-0.219C0.087,-0.192 0.083,-0.163 0.081,-0.134C0.095,-0.151 0.112,-0.182 0.131,-0.226C0.15,-0.269 0.171,-0.327 0.194,-0.398C0.196,-0.403 0.199,-0.408 0.202,-0.413ZM0.115,0.109C0.09,0.123 0.067,0.139 0.047,0.157C0.026,0.175 0.009,0.192 -0.005,0.208C-0.019,0.223 -0.029,0.237 -0.036,0.248C-0.042,0.259 -0.043,0.265 -0.04,0.266C-0.03,0.271 -0.017,0.268 -0.001,0.257C0.015,0.246 0.031,0.231 0.047,0.214C0.062,0.196 0.077,0.177 0.09,0.158C0.102,0.138 0.111,0.122 0.115,0.109Z" style="fill:white;fill-rule:nonzero;"/>
                    </g>
                </g>
                <g transform="matrix(1,0,-0.267949,1,255.75,0)">
                    <g transform="matrix(36,0,0,36,348.712,954.471)">
                        <path d="M0.035,-0.386C0.04,-0.399 0.047,-0.406 0.056,-0.406C0.065,-0.406 0.073,-0.403 0.082,-0.397C0.09,-0.391 0.097,-0.384 0.103,-0.376C0.108,-0.367 0.111,-0.361 0.11,-0.358C0.11,-0.358 0.108,-0.35 0.104,-0.334C0.099,-0.317 0.094,-0.297 0.089,-0.272C0.084,-0.247 0.079,-0.219 0.074,-0.188C0.069,-0.157 0.066,-0.126 0.065,-0.096C0.068,-0.103 0.072,-0.112 0.077,-0.125C0.082,-0.138 0.086,-0.152 0.091,-0.167C0.096,-0.182 0.101,-0.197 0.106,-0.213C0.111,-0.228 0.116,-0.242 0.121,-0.255C0.126,-0.268 0.13,-0.278 0.134,-0.286C0.138,-0.293 0.141,-0.297 0.144,-0.296C0.149,-0.295 0.155,-0.292 0.162,-0.289C0.169,-0.285 0.175,-0.281 0.181,-0.276C0.186,-0.271 0.191,-0.265 0.195,-0.259C0.198,-0.252 0.2,-0.246 0.2,-0.239L0.2,-0.203C0.2,-0.194 0.2,-0.184 0.201,-0.173C0.201,-0.162 0.202,-0.151 0.203,-0.141C0.214,-0.172 0.226,-0.211 0.238,-0.26C0.25,-0.308 0.26,-0.362 0.267,-0.423C0.269,-0.437 0.275,-0.445 0.284,-0.448C0.293,-0.45 0.302,-0.449 0.313,-0.446C0.323,-0.442 0.332,-0.436 0.341,-0.43C0.349,-0.423 0.353,-0.417 0.353,-0.413C0.352,-0.402 0.349,-0.385 0.345,-0.362C0.341,-0.339 0.336,-0.314 0.33,-0.286C0.323,-0.257 0.316,-0.228 0.308,-0.197C0.3,-0.166 0.291,-0.137 0.282,-0.111C0.272,-0.084 0.262,-0.06 0.252,-0.04C0.241,-0.019 0.23,-0.005 0.219,0.002C0.214,0.005 0.209,0.007 0.202,0.006C0.195,0.005 0.188,0.002 0.182,-0.001C0.175,-0.004 0.17,-0.008 0.165,-0.012C0.16,-0.015 0.156,-0.018 0.155,-0.02C0.152,-0.025 0.149,-0.032 0.147,-0.042C0.145,-0.051 0.143,-0.061 0.142,-0.072C0.14,-0.083 0.139,-0.093 0.138,-0.105C0.137,-0.115 0.135,-0.125 0.133,-0.133C0.127,-0.116 0.121,-0.098 0.114,-0.082C0.107,-0.065 0.1,-0.049 0.094,-0.037C0.087,-0.024 0.082,-0.013 0.077,-0.005C0.072,0.003 0.07,0.007 0.07,0.007C0.065,0.016 0.057,0.02 0.048,0.02C0.038,0.019 0.029,0.016 0.02,0.011C0.011,0.006 0.003,-0.001 -0.005,-0.009C-0.012,-0.016 -0.015,-0.023 -0.015,-0.029C-0.015,-0.078 -0.012,-0.124 -0.008,-0.167C-0.003,-0.21 0.003,-0.247 0.01,-0.28C0.017,-0.318 0.026,-0.353 0.035,-0.386Z" style="fill:white;fill-rule:nonzero;"/>
                    </g>
                </g>
                <g transform="matrix(1,0,-0.267949,1,255.75,0)">
                    <g transform="matrix(36,0,0,36,360.628,954.471)">
                        <path d="M0.142,-0.284C0.139,-0.307 0.136,-0.326 0.133,-0.339C0.13,-0.352 0.128,-0.36 0.125,-0.363C0.119,-0.35 0.112,-0.331 0.105,-0.306C0.097,-0.28 0.09,-0.253 0.084,-0.225C0.078,-0.197 0.074,-0.171 0.071,-0.146C0.068,-0.121 0.068,-0.104 0.071,-0.093C0.072,-0.092 0.074,-0.097 0.079,-0.108C0.083,-0.119 0.088,-0.134 0.095,-0.153C0.101,-0.172 0.108,-0.193 0.117,-0.216C0.125,-0.239 0.133,-0.262 0.142,-0.284ZM0.179,-0.366C0.185,-0.382 0.189,-0.393 0.192,-0.399C0.194,-0.405 0.195,-0.408 0.195,-0.409C0.198,-0.416 0.205,-0.42 0.214,-0.419C0.223,-0.418 0.233,-0.415 0.243,-0.41C0.252,-0.405 0.26,-0.398 0.267,-0.389C0.274,-0.38 0.276,-0.372 0.274,-0.364C0.274,-0.364 0.272,-0.359 0.269,-0.348C0.266,-0.337 0.262,-0.321 0.258,-0.302C0.253,-0.282 0.249,-0.258 0.245,-0.231C0.24,-0.203 0.237,-0.172 0.234,-0.138C0.243,-0.15 0.251,-0.164 0.259,-0.18C0.266,-0.195 0.273,-0.211 0.28,-0.226C0.283,-0.236 0.289,-0.241 0.296,-0.243C0.303,-0.243 0.309,-0.242 0.315,-0.237C0.321,-0.232 0.326,-0.225 0.329,-0.216C0.332,-0.207 0.332,-0.197 0.329,-0.188C0.317,-0.163 0.305,-0.139 0.292,-0.116C0.279,-0.093 0.267,-0.073 0.256,-0.056C0.244,-0.035 0.232,-0.016 0.22,0.001C0.215,0.005 0.208,0.007 0.2,0.006C0.192,0.005 0.184,0.002 0.176,-0.002C0.167,-0.006 0.16,-0.011 0.154,-0.017C0.147,-0.023 0.144,-0.029 0.143,-0.035C0.14,-0.052 0.14,-0.071 0.142,-0.091C0.144,-0.11 0.146,-0.131 0.148,-0.154C0.135,-0.115 0.124,-0.085 0.114,-0.062C0.103,-0.039 0.091,-0.02 0.078,-0.007C0.072,-0.002 0.065,0.001 0.056,0.001C0.047,0 0.037,-0.002 0.028,-0.006C0.019,-0.01 0.01,-0.016 0.003,-0.023C-0.004,-0.029 -0.009,-0.037 -0.011,-0.044C-0.017,-0.066 -0.019,-0.093 -0.018,-0.125C-0.016,-0.157 -0.012,-0.19 -0.005,-0.223C0.002,-0.256 0.011,-0.288 0.022,-0.319C0.033,-0.35 0.046,-0.375 0.06,-0.394C0.065,-0.401 0.073,-0.406 0.083,-0.41C0.093,-0.413 0.103,-0.415 0.115,-0.416C0.126,-0.416 0.136,-0.414 0.146,-0.411C0.156,-0.408 0.163,-0.402 0.167,-0.395C0.17,-0.39 0.173,-0.385 0.175,-0.381C0.176,-0.377 0.178,-0.372 0.179,-0.366Z" style="fill:white;fill-rule:nonzero;"/>
                    </g>
                    <g transform="matrix(36,0,0,36,370.672,954.471)">
                        <path d="M0.098,-0.574C0.103,-0.587 0.11,-0.594 0.119,-0.593C0.128,-0.592 0.136,-0.588 0.145,-0.582C0.153,-0.575 0.16,-0.568 0.166,-0.56C0.171,-0.552 0.174,-0.547 0.174,-0.546C0.173,-0.545 0.17,-0.535 0.163,-0.515C0.156,-0.494 0.147,-0.467 0.136,-0.433L0.185,-0.433C0.196,-0.433 0.203,-0.43 0.206,-0.423C0.208,-0.416 0.208,-0.408 0.205,-0.4C0.202,-0.392 0.197,-0.385 0.192,-0.378C0.186,-0.371 0.181,-0.367 0.176,-0.367L0.116,-0.366C0.103,-0.322 0.092,-0.275 0.082,-0.224C0.071,-0.172 0.064,-0.123 0.061,-0.075C0.075,-0.09 0.088,-0.106 0.1,-0.124C0.111,-0.142 0.124,-0.165 0.139,-0.193C0.144,-0.202 0.151,-0.207 0.158,-0.208C0.165,-0.209 0.171,-0.207 0.177,-0.203C0.183,-0.199 0.187,-0.193 0.19,-0.186C0.193,-0.179 0.192,-0.172 0.189,-0.165C0.172,-0.132 0.155,-0.103 0.14,-0.08C0.124,-0.056 0.11,-0.036 0.097,-0.021C0.084,-0.006 0.073,0.006 0.064,0.014C0.055,0.022 0.047,0.027 0.042,0.03C0.035,0.035 0.028,0.037 0.022,0.037C0.019,0.037 0.015,0.035 0.01,0.033C0.005,0.029 0,0.026 -0.005,0.021C-0.01,0.016 -0.014,0.012 -0.018,0.007C-0.022,0.002 -0.024,-0.001 -0.025,-0.003C-0.026,-0.032 -0.026,-0.061 -0.023,-0.092C-0.02,-0.123 -0.017,-0.154 -0.012,-0.185C-0.007,-0.216 -0,-0.246 0.007,-0.277C0.014,-0.307 0.021,-0.336 0.029,-0.364L0.005,-0.364C-0.006,-0.364 -0.013,-0.368 -0.015,-0.376C-0.016,-0.383 -0.015,-0.391 -0.012,-0.4C-0.008,-0.409 -0.003,-0.417 0.003,-0.424C0.009,-0.431 0.014,-0.434 0.017,-0.433L0.049,-0.433C0.056,-0.454 0.062,-0.474 0.068,-0.491C0.073,-0.507 0.078,-0.522 0.083,-0.535C0.088,-0.55 0.093,-0.563 0.098,-0.574Z" style="fill:white;fill-rule:nonzero;"/>
                    </g>
                    <g transform="matrix(36,0,0,36,376.108,954.471)">
                        <path d="M0.16,-0.241C0.157,-0.236 0.154,-0.235 0.15,-0.238C0.145,-0.24 0.141,-0.243 0.137,-0.248C0.132,-0.253 0.129,-0.258 0.126,-0.263C0.123,-0.268 0.121,-0.272 0.122,-0.274C0.123,-0.283 0.125,-0.293 0.127,-0.303C0.128,-0.312 0.13,-0.321 0.131,-0.329C0.132,-0.338 0.134,-0.348 0.135,-0.357C0.126,-0.35 0.117,-0.337 0.111,-0.318C0.103,-0.298 0.097,-0.276 0.092,-0.253C0.087,-0.229 0.083,-0.206 0.08,-0.183C0.077,-0.16 0.076,-0.143 0.076,-0.13C0.076,-0.115 0.076,-0.104 0.077,-0.095C0.077,-0.086 0.078,-0.078 0.081,-0.069C0.086,-0.072 0.093,-0.079 0.103,-0.092C0.113,-0.105 0.123,-0.119 0.134,-0.135C0.144,-0.151 0.154,-0.167 0.163,-0.184C0.172,-0.2 0.179,-0.213 0.183,-0.224C0.189,-0.237 0.196,-0.245 0.203,-0.249C0.21,-0.252 0.217,-0.251 0.222,-0.247C0.227,-0.243 0.231,-0.237 0.234,-0.228C0.236,-0.219 0.235,-0.209 0.23,-0.198C0.226,-0.189 0.22,-0.173 0.211,-0.153C0.202,-0.131 0.191,-0.109 0.179,-0.086C0.167,-0.063 0.154,-0.041 0.141,-0.02C0.127,0.002 0.113,0.017 0.1,0.026C0.092,0.031 0.083,0.032 0.072,0.029C0.061,0.025 0.051,0.02 0.042,0.013C0.032,0.006 0.024,-0 0.017,-0.007C0.01,-0.014 0.006,-0.018 0.005,-0.019C-0.002,-0.033 -0.006,-0.05 -0.008,-0.071C-0.01,-0.092 -0.011,-0.112 -0.01,-0.131C-0.01,-0.168 -0.006,-0.206 0.001,-0.245C0.004,-0.262 0.009,-0.28 0.016,-0.299C0.022,-0.318 0.03,-0.337 0.039,-0.355C0.048,-0.372 0.06,-0.388 0.074,-0.401C0.087,-0.413 0.103,-0.422 0.121,-0.426C0.131,-0.428 0.14,-0.426 0.15,-0.421C0.159,-0.416 0.166,-0.409 0.173,-0.401C0.18,-0.393 0.185,-0.384 0.189,-0.375C0.193,-0.366 0.195,-0.358 0.195,-0.352C0.195,-0.343 0.194,-0.334 0.191,-0.323C0.188,-0.312 0.185,-0.302 0.182,-0.291C0.178,-0.28 0.174,-0.271 0.17,-0.262C0.166,-0.253 0.163,-0.246 0.16,-0.241Z" style="fill:white;fill-rule:nonzero;"/>
                    </g>
                    <g transform="matrix(36,0,0,36,383.02,954.471)">
                        <path d="M0.096,-0.57C0.101,-0.583 0.108,-0.59 0.117,-0.59C0.126,-0.589 0.134,-0.586 0.143,-0.58C0.151,-0.574 0.158,-0.567 0.164,-0.56C0.169,-0.552 0.172,-0.547 0.172,-0.546C0.172,-0.546 0.169,-0.539 0.164,-0.525C0.159,-0.51 0.152,-0.491 0.144,-0.468C0.136,-0.444 0.128,-0.417 0.119,-0.387C0.11,-0.357 0.101,-0.326 0.093,-0.294C0.106,-0.318 0.12,-0.343 0.135,-0.368C0.15,-0.393 0.166,-0.414 0.184,-0.429C0.192,-0.436 0.2,-0.438 0.209,-0.436C0.217,-0.434 0.224,-0.43 0.231,-0.424C0.238,-0.418 0.243,-0.411 0.248,-0.404C0.252,-0.397 0.254,-0.391 0.254,-0.386C0.254,-0.386 0.252,-0.376 0.247,-0.356C0.242,-0.336 0.237,-0.311 0.231,-0.282C0.224,-0.253 0.218,-0.221 0.212,-0.186C0.205,-0.151 0.2,-0.119 0.197,-0.09C0.208,-0.105 0.218,-0.121 0.226,-0.14C0.234,-0.158 0.243,-0.176 0.252,-0.193C0.258,-0.206 0.265,-0.213 0.273,-0.216C0.28,-0.218 0.287,-0.217 0.293,-0.213C0.299,-0.208 0.303,-0.202 0.305,-0.194C0.307,-0.185 0.306,-0.177 0.301,-0.169C0.288,-0.142 0.274,-0.118 0.261,-0.095C0.248,-0.071 0.236,-0.052 0.225,-0.035C0.214,-0.018 0.206,-0.005 0.199,0.005C0.192,0.014 0.188,0.019 0.188,0.019C0.181,0.025 0.174,0.028 0.166,0.027C0.157,0.026 0.15,0.024 0.143,0.02C0.136,0.016 0.13,0.011 0.125,0.006C0.12,0.001 0.117,-0.003 0.116,-0.006C0.114,-0.019 0.114,-0.036 0.115,-0.059C0.116,-0.081 0.119,-0.105 0.123,-0.131C0.126,-0.157 0.131,-0.184 0.136,-0.211C0.141,-0.238 0.147,-0.262 0.153,-0.284C0.13,-0.248 0.111,-0.213 0.098,-0.18C0.085,-0.146 0.075,-0.116 0.068,-0.089C0.061,-0.062 0.056,-0.039 0.054,-0.021C0.051,-0.002 0.049,0.009 0.048,0.014C0.046,0.025 0.041,0.031 0.034,0.032C0.027,0.033 0.019,0.032 0.01,0.029C0.001,0.025 -0.007,0.02 -0.014,0.014C-0.021,0.007 -0.026,0.002 -0.027,-0.003C-0.03,-0.042 -0.029,-0.083 -0.025,-0.126C-0.02,-0.169 -0.013,-0.211 -0.004,-0.253C0.006,-0.295 0.016,-0.335 0.027,-0.374C0.038,-0.412 0.049,-0.446 0.06,-0.475C0.07,-0.503 0.079,-0.527 0.086,-0.544C0.093,-0.561 0.096,-0.57 0.096,-0.57Z" style="fill:white;fill-rule:nonzero;"/>
                    </g>
                </g>
            </g>
        </g>
    </g>
</svg>
