<?xml version="1.0" encoding="UTF-8" standalone="no"?>
<svg
   width="752.9314"
   height="617.84723"
   viewBox="0 0 752.9314 617.84723"
   version="1.1"
   xml:space="preserve"
   style="clip-rule:evenodd;fill-rule:evenodd;stroke-linejoin:round;stroke-miterlimit:2"
   id="svg51"
   sodipodi:docname="logo-big.svg"
   inkscape:version="1.3 (0e150ed, 2023-07-21)"
   xmlns:inkscape="http://www.inkscape.org/namespaces/inkscape"
   xmlns:sodipodi="http://sodipodi.sourceforge.net/DTD/sodipodi-0.dtd"
   xmlns="http://www.w3.org/2000/svg"
   xmlns:svg="http://www.w3.org/2000/svg"><defs
   id="defs51" /><sodipodi:namedview
   id="namedview51"
   pagecolor="#ffffff"
   bordercolor="#000000"
   borderopacity="0.25"
   inkscape:showpageshadow="2"
   inkscape:pageopacity="0.0"
   inkscape:pagecheckerboard="0"
   inkscape:deskcolor="#d1d1d1"
   inkscape:zoom="0.37165354"
   inkscape:cx="365.9322"
   inkscape:cy="314.80932"
   inkscape:window-width="1312"
   inkscape:window-height="449"
   inkscape:window-x="0"
   inkscape:window-y="38"
   inkscape:window-maximized="0"
   inkscape:current-layer="svg51" />&#10;    <g
   transform="translate(-57.819307,-2436.2684)"
   id="g51">&#10;        <g
   transform="matrix(1,0,0,1.2425,0,2184.01)"
   id="g10">&#10;            <g
   transform="matrix(6.83887,-2.23987,2.78303,5.50414,-4612.22,-4113.17)"
   id="g9">&#10;                <g
   transform="matrix(1,0,-0.267949,1,255.75,0)"
   id="g2">&#10;                    <g
   transform="matrix(36,0,0,36,314.62,954.471)"
   id="g1">&#10;                        <path
   d="m 0.253,-0.51 c 0.013,0.007 0.023,0.018 0.032,0.032 0.009,0.015 0.011,0.027 0.006,0.037 0,0.001 -0.004,0.01 -0.013,0.028 C 0.269,-0.394 0.26,-0.369 0.251,-0.336 0.27,-0.347 0.288,-0.362 0.306,-0.379 0.323,-0.396 0.339,-0.415 0.352,-0.434 0.365,-0.453 0.376,-0.473 0.383,-0.493 0.39,-0.512 0.393,-0.53 0.391,-0.545 0.37,-0.55 0.348,-0.548 0.324,-0.541 0.3,-0.534 0.276,-0.523 0.253,-0.51 Z m -0.025,0.28 c -0.004,0.026 -0.007,0.055 -0.009,0.086 0.014,0 0.027,0.002 0.039,0.005 0.01,0.003 0.015,0.009 0.015,0.017 -0.001,0.009 -0.003,0.017 -0.008,0.026 -0.005,0.009 -0.012,0.017 -0.019,0.024 -0.007,0.007 -0.013,0.009 -0.018,0.008 -0.001,0 -0.003,0 -0.004,-0.001 -0.001,0 -0.003,0 -0.004,0 0.001,0.007 0.001,0.015 0.002,0.023 0.001,0.008 0.002,0.016 0.003,0.024 0.001,0.002 0.001,0.004 0.001,0.006 -0.001,0.002 -0.001,0.004 -0.001,0.005 0.018,-0.01 0.035,-0.024 0.05,-0.042 0.015,-0.017 0.026,-0.04 0.034,-0.069 0.006,-0.02 0.008,-0.039 0.006,-0.056 C 0.314,-0.175 0.314,-0.176 0.314,-0.177 0.311,-0.2 0.301,-0.215 0.284,-0.222 0.267,-0.229 0.248,-0.231 0.228,-0.23 Z M 0.187,0.009 C 0.176,0.007 0.166,0.003 0.156,-0.005 0.146,-0.012 0.14,-0.02 0.137,-0.029 c 0,-0.003 -0.001,-0.008 -0.002,-0.015 -0.011,0.007 -0.022,0.014 -0.031,0.021 -0.01,0.008 -0.018,0.017 -0.023,0.026 0.007,0.007 0.021,0.011 0.041,0.013 0.02,0.002 0.042,0 0.065,-0.007 z M 0.13,-0.129 c 0,-0.041 0.002,-0.08 0.007,-0.116 C 0.142,-0.281 0.148,-0.314 0.155,-0.344 0.162,-0.373 0.169,-0.399 0.177,-0.421 0.185,-0.443 0.192,-0.46 0.197,-0.473 0.182,-0.462 0.168,-0.451 0.157,-0.44 0.145,-0.428 0.136,-0.419 0.129,-0.411 0.12,-0.4 0.112,-0.397 0.104,-0.402 0.095,-0.407 0.088,-0.415 0.083,-0.426 0.078,-0.436 0.074,-0.448 0.073,-0.462 0.071,-0.474 0.072,-0.484 0.077,-0.489 c 0.016,-0.02 0.036,-0.04 0.061,-0.059 0.025,-0.019 0.051,-0.036 0.079,-0.05 0.028,-0.013 0.057,-0.023 0.087,-0.03 0.029,-0.007 0.057,-0.008 0.083,-0.003 0.011,0.002 0.022,0.008 0.034,0.018 0.011,0.01 0.02,0.021 0.029,0.034 0.008,0.013 0.014,0.027 0.019,0.04 0.005,0.014 0.007,0.026 0.006,0.036 -0.002,0.027 -0.01,0.054 -0.023,0.083 -0.011,0.024 -0.026,0.047 -0.044,0.07 -0.019,0.023 -0.04,0.044 -0.065,0.063 0.015,0.011 0.028,0.024 0.037,0.039 0.009,0.015 0.015,0.031 0.019,0.048 0.003,0.017 0.004,0.035 0.003,0.053 C 0.401,-0.128 0.398,-0.111 0.393,-0.094 0.385,-0.067 0.372,-0.043 0.355,-0.02 0.338,0.003 0.317,0.024 0.294,0.042 0.271,0.059 0.246,0.074 0.22,0.085 0.193,0.096 0.167,0.102 0.143,0.105 0.118,0.108 0.094,0.106 0.073,0.1 0.051,0.093 0.033,0.081 0.019,0.064 0.016,0.061 0.012,0.055 0.009,0.046 0.006,0.037 0.003,0.027 0.002,0.016 0.001,0.005 0,-0.007 0.001,-0.018 0.002,-0.029 0.005,-0.039 0.01,-0.046 0.022,-0.065 0.039,-0.082 0.061,-0.096 0.082,-0.11 0.105,-0.121 0.13,-0.129 Z"
   style="fill-rule:nonzero"
   id="path1" />&#10;                    </g>&#10;                </g>&#10;                <g
   transform="matrix(1,0,-0.267949,1,255.75,0)"
   id="g8">&#10;                    <g
   transform="matrix(36,0,0,36,328.516,954.471)"
   id="g3">&#10;                        <path
   d="M 0.142,-0.284 C 0.139,-0.307 0.136,-0.326 0.133,-0.339 0.13,-0.352 0.128,-0.36 0.125,-0.363 0.119,-0.35 0.112,-0.331 0.105,-0.306 0.097,-0.28 0.09,-0.253 0.084,-0.225 c -0.006,0.028 -0.01,0.054 -0.013,0.079 -0.003,0.025 -0.003,0.042 0,0.053 0.001,0.001 0.003,-0.004 0.008,-0.015 0.004,-0.011 0.009,-0.026 0.016,-0.045 0.006,-0.019 0.013,-0.04 0.022,-0.063 0.008,-0.023 0.016,-0.046 0.025,-0.068 z m 0.037,-0.082 c 0.006,-0.016 0.01,-0.027 0.013,-0.033 0.002,-0.006 0.003,-0.009 0.003,-0.01 0.003,-0.007 0.01,-0.011 0.019,-0.01 0.009,0.001 0.019,0.004 0.029,0.009 0.009,0.005 0.017,0.012 0.024,0.021 0.007,0.009 0.009,0.017 0.007,0.025 0,0 -0.002,0.005 -0.005,0.016 -0.003,0.011 -0.007,0.027 -0.011,0.046 -0.005,0.02 -0.009,0.044 -0.013,0.071 -0.005,0.028 -0.008,0.059 -0.011,0.093 0.009,-0.012 0.017,-0.026 0.025,-0.042 0.007,-0.015 0.014,-0.031 0.021,-0.046 0.003,-0.01 0.009,-0.015 0.016,-0.017 0.007,0 0.013,0.001 0.019,0.006 0.006,0.005 0.011,0.012 0.014,0.021 0.003,0.009 0.003,0.019 0,0.028 -0.012,0.025 -0.024,0.049 -0.037,0.072 -0.013,0.023 -0.025,0.043 -0.036,0.06 C 0.244,-0.035 0.232,-0.016 0.22,0.001 0.215,0.005 0.208,0.007 0.2,0.006 0.192,0.005 0.184,0.002 0.176,-0.002 0.167,-0.006 0.16,-0.011 0.154,-0.017 0.147,-0.023 0.144,-0.029 0.143,-0.035 0.14,-0.052 0.14,-0.071 0.142,-0.091 0.144,-0.11 0.146,-0.131 0.148,-0.154 0.135,-0.115 0.124,-0.085 0.114,-0.062 0.103,-0.039 0.091,-0.02 0.078,-0.007 0.072,-0.002 0.065,0.001 0.056,0.001 0.047,0 0.037,-0.002 0.028,-0.006 0.019,-0.01 0.01,-0.016 0.003,-0.023 -0.004,-0.029 -0.009,-0.037 -0.011,-0.044 -0.017,-0.066 -0.019,-0.093 -0.018,-0.125 -0.016,-0.157 -0.012,-0.19 -0.005,-0.223 0.002,-0.256 0.011,-0.288 0.022,-0.319 0.033,-0.35 0.046,-0.375 0.06,-0.394 0.065,-0.401 0.073,-0.406 0.083,-0.41 c 0.01,-0.003 0.02,-0.005 0.032,-0.006 0.011,0 0.021,0.002 0.031,0.005 0.01,0.003 0.017,0.009 0.021,0.016 0.003,0.005 0.006,0.01 0.008,0.014 0.001,0.004 0.003,0.009 0.004,0.015 z"
   style="fill-rule:nonzero"
   id="path2" />&#10;                    </g>&#10;                    <g
   transform="matrix(36,0,0,36,338.56,954.471)"
   id="g4">&#10;                        <path
   d="M 0.102,-0.292 C 0.108,-0.3 0.115,-0.312 0.122,-0.327 0.129,-0.342 0.136,-0.357 0.143,-0.374 0.149,-0.39 0.154,-0.406 0.159,-0.422 0.163,-0.437 0.165,-0.45 0.164,-0.46 0.159,-0.453 0.153,-0.442 0.147,-0.427 0.141,-0.411 0.135,-0.394 0.129,-0.377 0.123,-0.36 0.117,-0.343 0.113,-0.327 0.108,-0.311 0.104,-0.299 0.102,-0.292 Z m 0.122,0.029 c 0.01,-0.001 0.016,0.002 0.017,0.01 0,0.008 -0.001,0.017 -0.004,0.027 -0.003,0.011 -0.008,0.02 -0.013,0.029 -0.005,0.009 -0.009,0.013 -0.012,0.014 -0.011,0.001 -0.023,0.003 -0.034,0.005 -0.011,0.002 -0.022,0.004 -0.033,0.007 0.019,0.023 0.033,0.048 0.042,0.077 C 0.196,-0.065 0.2,-0.036 0.2,-0.006 0.2,0.024 0.195,0.053 0.186,0.082 0.177,0.11 0.163,0.135 0.144,0.156 0.135,0.167 0.123,0.173 0.108,0.173 0.093,0.173 0.079,0.17 0.065,0.165 0.051,0.16 0.039,0.153 0.028,0.146 0.017,0.138 0.01,0.132 0.008,0.127 0.003,0.118 -0.002,0.109 -0.005,0.1 -0.008,0.09 -0.011,0.08 -0.013,0.071 -0.017,0.053 -0.02,0.033 -0.022,0.011 c -0.002,-0.023 -0.002,-0.048 -0.001,-0.075 0.003,-0.057 0.009,-0.109 0.019,-0.158 0.011,-0.049 0.022,-0.091 0.033,-0.127 0.013,-0.042 0.028,-0.081 0.044,-0.116 0.007,-0.017 0.017,-0.03 0.03,-0.041 0.013,-0.01 0.026,-0.017 0.04,-0.02 0.005,-0.001 0.012,-0.001 0.021,0.002 0.008,0.003 0.018,0.008 0.028,0.015 0.009,0.007 0.018,0.015 0.025,0.025 0.007,0.011 0.012,0.022 0.013,0.035 0.001,0.014 -0.001,0.03 -0.006,0.049 -0.005,0.019 -0.012,0.038 -0.021,0.057 -0.009,0.02 -0.02,0.039 -0.031,0.058 -0.011,0.019 -0.022,0.037 -0.033,0.052 0.015,-0.007 0.03,-0.014 0.045,-0.019 0.014,-0.005 0.027,-0.009 0.04,-0.011 z M 0.066,-0.151 C 0.064,-0.135 0.062,-0.115 0.061,-0.092 0.059,-0.068 0.058,-0.044 0.059,-0.019 0.06,0.006 0.062,0.029 0.065,0.052 0.068,0.075 0.073,0.093 0.08,0.107 0.088,0.094 0.095,0.077 0.101,0.055 0.106,0.032 0.109,0.008 0.11,-0.017 0.11,-0.042 0.107,-0.067 0.101,-0.091 0.094,-0.115 0.083,-0.135 0.066,-0.151 Z"
   style="fill-rule:nonzero"
   id="path3" />&#10;                    </g>&#10;                    <g
   transform="matrix(36,0,0,36,346.012,954.471)"
   id="g5">&#10;                        <path
   d="M 0.102,-0.292 C 0.108,-0.3 0.115,-0.312 0.122,-0.327 0.129,-0.342 0.136,-0.357 0.143,-0.374 0.149,-0.39 0.154,-0.406 0.159,-0.422 0.163,-0.437 0.165,-0.45 0.164,-0.46 0.159,-0.453 0.153,-0.442 0.147,-0.427 0.141,-0.411 0.135,-0.394 0.129,-0.377 0.123,-0.36 0.117,-0.343 0.113,-0.327 0.108,-0.311 0.104,-0.299 0.102,-0.292 Z m 0.122,0.029 c 0.01,-0.001 0.016,0.002 0.017,0.01 0,0.008 -0.001,0.017 -0.004,0.027 -0.003,0.011 -0.008,0.02 -0.013,0.029 -0.005,0.009 -0.009,0.013 -0.012,0.014 -0.011,0.001 -0.023,0.003 -0.034,0.005 -0.011,0.002 -0.022,0.004 -0.033,0.007 0.019,0.023 0.033,0.048 0.042,0.077 C 0.196,-0.065 0.2,-0.036 0.2,-0.006 0.2,0.024 0.195,0.053 0.186,0.082 0.177,0.11 0.163,0.135 0.144,0.156 0.135,0.167 0.123,0.173 0.108,0.173 0.093,0.173 0.079,0.17 0.065,0.165 0.051,0.16 0.039,0.153 0.028,0.146 0.017,0.138 0.01,0.132 0.008,0.127 0.003,0.118 -0.002,0.109 -0.005,0.1 -0.008,0.09 -0.011,0.08 -0.013,0.071 -0.017,0.053 -0.02,0.033 -0.022,0.011 c -0.002,-0.023 -0.002,-0.048 -0.001,-0.075 0.003,-0.057 0.009,-0.109 0.019,-0.158 0.011,-0.049 0.022,-0.091 0.033,-0.127 0.013,-0.042 0.028,-0.081 0.044,-0.116 0.007,-0.017 0.017,-0.03 0.03,-0.041 0.013,-0.01 0.026,-0.017 0.04,-0.02 0.005,-0.001 0.012,-0.001 0.021,0.002 0.008,0.003 0.018,0.008 0.028,0.015 0.009,0.007 0.018,0.015 0.025,0.025 0.007,0.011 0.012,0.022 0.013,0.035 0.001,0.014 -0.001,0.03 -0.006,0.049 -0.005,0.019 -0.012,0.038 -0.021,0.057 -0.009,0.02 -0.02,0.039 -0.031,0.058 -0.011,0.019 -0.022,0.037 -0.033,0.052 0.015,-0.007 0.03,-0.014 0.045,-0.019 0.014,-0.005 0.027,-0.009 0.04,-0.011 z M 0.066,-0.151 C 0.064,-0.135 0.062,-0.115 0.061,-0.092 0.059,-0.068 0.058,-0.044 0.059,-0.019 0.06,0.006 0.062,0.029 0.065,0.052 0.068,0.075 0.073,0.093 0.08,0.107 0.088,0.094 0.095,0.077 0.101,0.055 0.106,0.032 0.109,0.008 0.11,-0.017 0.11,-0.042 0.107,-0.067 0.101,-0.091 0.094,-0.115 0.083,-0.135 0.066,-0.151 Z"
   style="fill-rule:nonzero"
   id="path4" />&#10;                    </g>&#10;                    <g
   transform="matrix(36,0,0,36,353.464,954.471)"
   id="g6">&#10;                        <path
   d="m 0.033,-0.411 c 0.004,-0.013 0.011,-0.02 0.02,-0.02 0.009,0 0.019,0.003 0.028,0.009 0.009,0.006 0.018,0.013 0.025,0.021 0.007,0.008 0.011,0.013 0.01,0.015 -0.009,0.031 -0.018,0.063 -0.025,0.095 -0.007,0.028 -0.012,0.059 -0.017,0.092 -0.005,0.034 -0.009,0.068 -0.01,0.101 0.009,-0.011 0.018,-0.024 0.025,-0.037 0.007,-0.013 0.016,-0.029 0.025,-0.048 0.004,-0.011 0.01,-0.018 0.018,-0.021 0.008,-0.003 0.016,-0.003 0.023,-0.001 0.007,0.002 0.013,0.006 0.018,0.012 0.004,0.006 0.004,0.012 0,0.019 -0.007,0.019 -0.017,0.041 -0.03,0.063 C 0.13,-0.088 0.117,-0.066 0.104,-0.047 0.091,-0.027 0.079,-0.01 0.07,0.003 0.06,0.016 0.055,0.023 0.055,0.023 0.049,0.03 0.042,0.032 0.034,0.031 0.025,0.029 0.017,0.025 0.009,0.02 0.001,0.015 -0.006,0.009 -0.012,0.002 -0.017,-0.005 -0.02,-0.01 -0.021,-0.013 -0.022,-0.041 -0.022,-0.071 -0.02,-0.103 -0.017,-0.134 -0.014,-0.165 -0.01,-0.196 -0.005,-0.227 0,-0.256 0.005,-0.283 0.01,-0.31 0.015,-0.334 0.02,-0.354 0.024,-0.374 0.028,-0.389 0.031,-0.4 0.034,-0.411 0.034,-0.414 0.033,-0.411 Z m 0.038,-0.145 c 0.005,-0.013 0.014,-0.022 0.027,-0.027 0.013,-0.004 0.025,-0.005 0.038,-0.003 0.012,0.002 0.022,0.007 0.029,0.014 0.007,0.007 0.007,0.016 0,0.026 l -0.041,0.08 C 0.119,-0.453 0.113,-0.446 0.104,-0.445 0.094,-0.444 0.086,-0.446 0.078,-0.452 0.069,-0.457 0.062,-0.464 0.056,-0.473 0.05,-0.481 0.048,-0.488 0.049,-0.493 Z"
   style="fill-rule:nonzero"
   id="path5" />&#10;                    </g>&#10;                    <g
   transform="matrix(36,0,0,36,358.252,954.471)"
   id="g7">&#10;                        <path
   d="m 0.043,-0.408 c 0.006,-0.013 0.014,-0.019 0.023,-0.018 0.009,0.002 0.018,0.006 0.027,0.013 0.008,0.007 0.015,0.015 0.021,0.024 0.006,0.009 0.009,0.015 0.008,0.017 -0.005,0.015 -0.009,0.03 -0.013,0.044 -0.003,0.012 -0.007,0.024 -0.01,0.036 -0.004,0.012 -0.007,0.022 -0.009,0.029 0.006,-0.013 0.014,-0.027 0.023,-0.043 0.009,-0.016 0.019,-0.032 0.03,-0.047 0.011,-0.015 0.022,-0.03 0.034,-0.043 0.011,-0.013 0.022,-0.022 0.032,-0.029 0.004,-0.003 0.011,-0.003 0.02,0 0.009,0.003 0.018,0.008 0.028,0.014 0.009,0.007 0.016,0.014 0.021,0.023 0.005,0.009 0.007,0.018 0.004,0.027 -10e-4,0.004 -0.004,0.014 -0.009,0.029 -0.005,0.015 -0.011,0.035 -0.017,0.059 -0.006,0.024 -0.012,0.051 -0.018,0.082 -0.006,0.031 -0.01,0.065 -0.013,0.1 0.004,-0.004 0.009,-0.01 0.014,-0.019 0.005,-0.009 0.009,-0.018 0.014,-0.028 0.005,-0.01 0.009,-0.02 0.013,-0.03 0.004,-0.01 0.007,-0.018 0.01,-0.025 0.003,-0.011 0.008,-0.018 0.015,-0.022 0.007,-0.004 0.013,-0.005 0.02,-0.004 0.006,0.001 0.011,0.005 0.015,0.011 0.004,0.006 0.005,0.014 0.002,0.023 C 0.32,-0.158 0.31,-0.133 0.299,-0.11 0.288,-0.086 0.277,-0.065 0.267,-0.047 0.255,-0.026 0.243,-0.006 0.231,0.013 0.225,0.018 0.217,0.02 0.207,0.018 0.197,0.016 0.187,0.012 0.178,0.007 0.168,0.002 0.16,-0.004 0.153,-0.01 0.146,-0.016 0.142,-0.02 0.141,-0.023 0.136,-0.073 0.138,-0.121 0.146,-0.168 0.153,-0.214 0.162,-0.258 0.171,-0.299 0.153,-0.268 0.137,-0.235 0.124,-0.2 0.11,-0.165 0.098,-0.132 0.089,-0.103 0.08,-0.073 0.073,-0.048 0.068,-0.029 0.063,-0.009 0.061,0.001 0.061,0.001 0.059,0.014 0.054,0.021 0.045,0.021 0.036,0.021 0.027,0.018 0.018,0.012 0.009,0.005 0,-0.003 -0.007,-0.013 -0.014,-0.022 -0.018,-0.031 -0.018,-0.038 -0.017,-0.093 -0.014,-0.143 -0.007,-0.188 0,-0.233 0.007,-0.272 0.014,-0.305 0.023,-0.343 0.032,-0.377 0.043,-0.408 Z"
   style="fill-rule:nonzero"
   id="path6" />&#10;                    </g>&#10;                </g>&#10;            </g>&#10;        </g>&#10;        <g
   transform="matrix(1,0,0,1.2425,0,2184.01)"
   id="g20">&#10;            <g
   transform="matrix(6.83887,-2.23987,2.78303,5.50414,-4621.22,-4118.8)"
   id="g19">&#10;                <g
   transform="matrix(1,0,-0.267949,1,255.75,0)"
   id="g12">&#10;                    <g
   transform="matrix(36,0,0,36,314.62,954.471)"
   id="g11">&#10;                        <path
   d="m 0.253,-0.51 c 0.013,0.007 0.023,0.018 0.032,0.032 0.009,0.015 0.011,0.027 0.006,0.037 0,0.001 -0.004,0.01 -0.013,0.028 C 0.269,-0.394 0.26,-0.369 0.251,-0.336 0.27,-0.347 0.288,-0.362 0.306,-0.379 0.323,-0.396 0.339,-0.415 0.352,-0.434 0.365,-0.453 0.376,-0.473 0.383,-0.493 0.39,-0.512 0.393,-0.53 0.391,-0.545 0.37,-0.55 0.348,-0.548 0.324,-0.541 0.3,-0.534 0.276,-0.523 0.253,-0.51 Z m -0.025,0.28 c -0.004,0.026 -0.007,0.055 -0.009,0.086 0.014,0 0.027,0.002 0.039,0.005 0.01,0.003 0.015,0.009 0.015,0.017 -0.001,0.009 -0.003,0.017 -0.008,0.026 -0.005,0.009 -0.012,0.017 -0.019,0.024 -0.007,0.007 -0.013,0.009 -0.018,0.008 -0.001,0 -0.003,0 -0.004,-0.001 -0.001,0 -0.003,0 -0.004,0 0.001,0.007 0.001,0.015 0.002,0.023 0.001,0.008 0.002,0.016 0.003,0.024 0.001,0.002 0.001,0.004 0.001,0.006 -0.001,0.002 -0.001,0.004 -0.001,0.005 0.018,-0.01 0.035,-0.024 0.05,-0.042 0.015,-0.017 0.026,-0.04 0.034,-0.069 0.006,-0.02 0.008,-0.039 0.006,-0.056 C 0.314,-0.175 0.314,-0.176 0.314,-0.177 0.311,-0.2 0.301,-0.215 0.284,-0.222 0.267,-0.229 0.248,-0.231 0.228,-0.23 Z M 0.187,0.009 C 0.176,0.007 0.166,0.003 0.156,-0.005 0.146,-0.012 0.14,-0.02 0.137,-0.029 c 0,-0.003 -0.001,-0.008 -0.002,-0.015 -0.011,0.007 -0.022,0.014 -0.031,0.021 -0.01,0.008 -0.018,0.017 -0.023,0.026 0.007,0.007 0.021,0.011 0.041,0.013 0.02,0.002 0.042,0 0.065,-0.007 z M 0.13,-0.129 c 0,-0.041 0.002,-0.08 0.007,-0.116 C 0.142,-0.281 0.148,-0.314 0.155,-0.344 0.162,-0.373 0.169,-0.399 0.177,-0.421 0.185,-0.443 0.192,-0.46 0.197,-0.473 0.182,-0.462 0.168,-0.451 0.157,-0.44 0.145,-0.428 0.136,-0.419 0.129,-0.411 0.12,-0.4 0.112,-0.397 0.104,-0.402 0.095,-0.407 0.088,-0.415 0.083,-0.426 0.078,-0.436 0.074,-0.448 0.073,-0.462 0.071,-0.474 0.072,-0.484 0.077,-0.489 c 0.016,-0.02 0.036,-0.04 0.061,-0.059 0.025,-0.019 0.051,-0.036 0.079,-0.05 0.028,-0.013 0.057,-0.023 0.087,-0.03 0.029,-0.007 0.057,-0.008 0.083,-0.003 0.011,0.002 0.022,0.008 0.034,0.018 0.011,0.01 0.02,0.021 0.029,0.034 0.008,0.013 0.014,0.027 0.019,0.04 0.005,0.014 0.007,0.026 0.006,0.036 -0.002,0.027 -0.01,0.054 -0.023,0.083 -0.011,0.024 -0.026,0.047 -0.044,0.07 -0.019,0.023 -0.04,0.044 -0.065,0.063 0.015,0.011 0.028,0.024 0.037,0.039 0.009,0.015 0.015,0.031 0.019,0.048 0.003,0.017 0.004,0.035 0.003,0.053 C 0.401,-0.128 0.398,-0.111 0.393,-0.094 0.385,-0.067 0.372,-0.043 0.355,-0.02 0.338,0.003 0.317,0.024 0.294,0.042 0.271,0.059 0.246,0.074 0.22,0.085 0.193,0.096 0.167,0.102 0.143,0.105 0.118,0.108 0.094,0.106 0.073,0.1 0.051,0.093 0.033,0.081 0.019,0.064 0.016,0.061 0.012,0.055 0.009,0.046 0.006,0.037 0.003,0.027 0.002,0.016 0.001,0.005 0,-0.007 0.001,-0.018 0.002,-0.029 0.005,-0.039 0.01,-0.046 0.022,-0.065 0.039,-0.082 0.061,-0.096 0.082,-0.11 0.105,-0.121 0.13,-0.129 Z"
   style="fill:#fcf0da;fill-rule:nonzero"
   id="path10" />&#10;                    </g>&#10;                </g>&#10;                <g
   transform="matrix(1,0,-0.267949,1,255.75,0)"
   id="g18">&#10;                    <g
   transform="matrix(36,0,0,36,328.516,954.471)"
   id="g13">&#10;                        <path
   d="M 0.142,-0.284 C 0.139,-0.307 0.136,-0.326 0.133,-0.339 0.13,-0.352 0.128,-0.36 0.125,-0.363 0.119,-0.35 0.112,-0.331 0.105,-0.306 0.097,-0.28 0.09,-0.253 0.084,-0.225 c -0.006,0.028 -0.01,0.054 -0.013,0.079 -0.003,0.025 -0.003,0.042 0,0.053 0.001,0.001 0.003,-0.004 0.008,-0.015 0.004,-0.011 0.009,-0.026 0.016,-0.045 0.006,-0.019 0.013,-0.04 0.022,-0.063 0.008,-0.023 0.016,-0.046 0.025,-0.068 z m 0.037,-0.082 c 0.006,-0.016 0.01,-0.027 0.013,-0.033 0.002,-0.006 0.003,-0.009 0.003,-0.01 0.003,-0.007 0.01,-0.011 0.019,-0.01 0.009,0.001 0.019,0.004 0.029,0.009 0.009,0.005 0.017,0.012 0.024,0.021 0.007,0.009 0.009,0.017 0.007,0.025 0,0 -0.002,0.005 -0.005,0.016 -0.003,0.011 -0.007,0.027 -0.011,0.046 -0.005,0.02 -0.009,0.044 -0.013,0.071 -0.005,0.028 -0.008,0.059 -0.011,0.093 0.009,-0.012 0.017,-0.026 0.025,-0.042 0.007,-0.015 0.014,-0.031 0.021,-0.046 0.003,-0.01 0.009,-0.015 0.016,-0.017 0.007,0 0.013,0.001 0.019,0.006 0.006,0.005 0.011,0.012 0.014,0.021 0.003,0.009 0.003,0.019 0,0.028 -0.012,0.025 -0.024,0.049 -0.037,0.072 -0.013,0.023 -0.025,0.043 -0.036,0.06 C 0.244,-0.035 0.232,-0.016 0.22,0.001 0.215,0.005 0.208,0.007 0.2,0.006 0.192,0.005 0.184,0.002 0.176,-0.002 0.167,-0.006 0.16,-0.011 0.154,-0.017 0.147,-0.023 0.144,-0.029 0.143,-0.035 0.14,-0.052 0.14,-0.071 0.142,-0.091 0.144,-0.11 0.146,-0.131 0.148,-0.154 0.135,-0.115 0.124,-0.085 0.114,-0.062 0.103,-0.039 0.091,-0.02 0.078,-0.007 0.072,-0.002 0.065,0.001 0.056,0.001 0.047,0 0.037,-0.002 0.028,-0.006 0.019,-0.01 0.01,-0.016 0.003,-0.023 -0.004,-0.029 -0.009,-0.037 -0.011,-0.044 -0.017,-0.066 -0.019,-0.093 -0.018,-0.125 -0.016,-0.157 -0.012,-0.19 -0.005,-0.223 0.002,-0.256 0.011,-0.288 0.022,-0.319 0.033,-0.35 0.046,-0.375 0.06,-0.394 0.065,-0.401 0.073,-0.406 0.083,-0.41 c 0.01,-0.003 0.02,-0.005 0.032,-0.006 0.011,0 0.021,0.002 0.031,0.005 0.01,0.003 0.017,0.009 0.021,0.016 0.003,0.005 0.006,0.01 0.008,0.014 0.001,0.004 0.003,0.009 0.004,0.015 z"
   style="fill:#fcf0da;fill-rule:nonzero"
   id="path12" />&#10;                    </g>&#10;                    <g
   transform="matrix(36,0,0,36,338.56,954.471)"
   id="g14">&#10;                        <path
   d="M 0.102,-0.292 C 0.108,-0.3 0.115,-0.312 0.122,-0.327 0.129,-0.342 0.136,-0.357 0.143,-0.374 0.149,-0.39 0.154,-0.406 0.159,-0.422 0.163,-0.437 0.165,-0.45 0.164,-0.46 0.159,-0.453 0.153,-0.442 0.147,-0.427 0.141,-0.411 0.135,-0.394 0.129,-0.377 0.123,-0.36 0.117,-0.343 0.113,-0.327 0.108,-0.311 0.104,-0.299 0.102,-0.292 Z m 0.122,0.029 c 0.01,-0.001 0.016,0.002 0.017,0.01 0,0.008 -0.001,0.017 -0.004,0.027 -0.003,0.011 -0.008,0.02 -0.013,0.029 -0.005,0.009 -0.009,0.013 -0.012,0.014 -0.011,0.001 -0.023,0.003 -0.034,0.005 -0.011,0.002 -0.022,0.004 -0.033,0.007 0.019,0.023 0.033,0.048 0.042,0.077 C 0.196,-0.065 0.2,-0.036 0.2,-0.006 0.2,0.024 0.195,0.053 0.186,0.082 0.177,0.11 0.163,0.135 0.144,0.156 0.135,0.167 0.123,0.173 0.108,0.173 0.093,0.173 0.079,0.17 0.065,0.165 0.051,0.16 0.039,0.153 0.028,0.146 0.017,0.138 0.01,0.132 0.008,0.127 0.003,0.118 -0.002,0.109 -0.005,0.1 -0.008,0.09 -0.011,0.08 -0.013,0.071 -0.017,0.053 -0.02,0.033 -0.022,0.011 c -0.002,-0.023 -0.002,-0.048 -0.001,-0.075 0.003,-0.057 0.009,-0.109 0.019,-0.158 0.011,-0.049 0.022,-0.091 0.033,-0.127 0.013,-0.042 0.028,-0.081 0.044,-0.116 0.007,-0.017 0.017,-0.03 0.03,-0.041 0.013,-0.01 0.026,-0.017 0.04,-0.02 0.005,-0.001 0.012,-0.001 0.021,0.002 0.008,0.003 0.018,0.008 0.028,0.015 0.009,0.007 0.018,0.015 0.025,0.025 0.007,0.011 0.012,0.022 0.013,0.035 0.001,0.014 -0.001,0.03 -0.006,0.049 -0.005,0.019 -0.012,0.038 -0.021,0.057 -0.009,0.02 -0.02,0.039 -0.031,0.058 -0.011,0.019 -0.022,0.037 -0.033,0.052 0.015,-0.007 0.03,-0.014 0.045,-0.019 0.014,-0.005 0.027,-0.009 0.04,-0.011 z M 0.066,-0.151 C 0.064,-0.135 0.062,-0.115 0.061,-0.092 0.059,-0.068 0.058,-0.044 0.059,-0.019 0.06,0.006 0.062,0.029 0.065,0.052 0.068,0.075 0.073,0.093 0.08,0.107 0.088,0.094 0.095,0.077 0.101,0.055 0.106,0.032 0.109,0.008 0.11,-0.017 0.11,-0.042 0.107,-0.067 0.101,-0.091 0.094,-0.115 0.083,-0.135 0.066,-0.151 Z"
   style="fill:#fcf0da;fill-rule:nonzero"
   id="path13" />&#10;                    </g>&#10;                    <g
   transform="matrix(36,0,0,36,346.012,954.471)"
   id="g15">&#10;                        <path
   d="M 0.102,-0.292 C 0.108,-0.3 0.115,-0.312 0.122,-0.327 0.129,-0.342 0.136,-0.357 0.143,-0.374 0.149,-0.39 0.154,-0.406 0.159,-0.422 0.163,-0.437 0.165,-0.45 0.164,-0.46 0.159,-0.453 0.153,-0.442 0.147,-0.427 0.141,-0.411 0.135,-0.394 0.129,-0.377 0.123,-0.36 0.117,-0.343 0.113,-0.327 0.108,-0.311 0.104,-0.299 0.102,-0.292 Z m 0.122,0.029 c 0.01,-0.001 0.016,0.002 0.017,0.01 0,0.008 -0.001,0.017 -0.004,0.027 -0.003,0.011 -0.008,0.02 -0.013,0.029 -0.005,0.009 -0.009,0.013 -0.012,0.014 -0.011,0.001 -0.023,0.003 -0.034,0.005 -0.011,0.002 -0.022,0.004 -0.033,0.007 0.019,0.023 0.033,0.048 0.042,0.077 C 0.196,-0.065 0.2,-0.036 0.2,-0.006 0.2,0.024 0.195,0.053 0.186,0.082 0.177,0.11 0.163,0.135 0.144,0.156 0.135,0.167 0.123,0.173 0.108,0.173 0.093,0.173 0.079,0.17 0.065,0.165 0.051,0.16 0.039,0.153 0.028,0.146 0.017,0.138 0.01,0.132 0.008,0.127 0.003,0.118 -0.002,0.109 -0.005,0.1 -0.008,0.09 -0.011,0.08 -0.013,0.071 -0.017,0.053 -0.02,0.033 -0.022,0.011 c -0.002,-0.023 -0.002,-0.048 -0.001,-0.075 0.003,-0.057 0.009,-0.109 0.019,-0.158 0.011,-0.049 0.022,-0.091 0.033,-0.127 0.013,-0.042 0.028,-0.081 0.044,-0.116 0.007,-0.017 0.017,-0.03 0.03,-0.041 0.013,-0.01 0.026,-0.017 0.04,-0.02 0.005,-0.001 0.012,-0.001 0.021,0.002 0.008,0.003 0.018,0.008 0.028,0.015 0.009,0.007 0.018,0.015 0.025,0.025 0.007,0.011 0.012,0.022 0.013,0.035 0.001,0.014 -0.001,0.03 -0.006,0.049 -0.005,0.019 -0.012,0.038 -0.021,0.057 -0.009,0.02 -0.02,0.039 -0.031,0.058 -0.011,0.019 -0.022,0.037 -0.033,0.052 0.015,-0.007 0.03,-0.014 0.045,-0.019 0.014,-0.005 0.027,-0.009 0.04,-0.011 z M 0.066,-0.151 C 0.064,-0.135 0.062,-0.115 0.061,-0.092 0.059,-0.068 0.058,-0.044 0.059,-0.019 0.06,0.006 0.062,0.029 0.065,0.052 0.068,0.075 0.073,0.093 0.08,0.107 0.088,0.094 0.095,0.077 0.101,0.055 0.106,0.032 0.109,0.008 0.11,-0.017 0.11,-0.042 0.107,-0.067 0.101,-0.091 0.094,-0.115 0.083,-0.135 0.066,-0.151 Z"
   style="fill:#fcf0da;fill-rule:nonzero"
   id="path14" />&#10;                    </g>&#10;                    <g
   transform="matrix(36,0,0,36,353.464,954.471)"
   id="g16">&#10;                        <path
   d="m 0.033,-0.411 c 0.004,-0.013 0.011,-0.02 0.02,-0.02 0.009,0 0.019,0.003 0.028,0.009 0.009,0.006 0.018,0.013 0.025,0.021 0.007,0.008 0.011,0.013 0.01,0.015 -0.009,0.031 -0.018,0.063 -0.025,0.095 -0.007,0.028 -0.012,0.059 -0.017,0.092 -0.005,0.034 -0.009,0.068 -0.01,0.101 0.009,-0.011 0.018,-0.024 0.025,-0.037 0.007,-0.013 0.016,-0.029 0.025,-0.048 0.004,-0.011 0.01,-0.018 0.018,-0.021 0.008,-0.003 0.016,-0.003 0.023,-0.001 0.007,0.002 0.013,0.006 0.018,0.012 0.004,0.006 0.004,0.012 0,0.019 -0.007,0.019 -0.017,0.041 -0.03,0.063 C 0.13,-0.088 0.117,-0.066 0.104,-0.047 0.091,-0.027 0.079,-0.01 0.07,0.003 0.06,0.016 0.055,0.023 0.055,0.023 0.049,0.03 0.042,0.032 0.034,0.031 0.025,0.029 0.017,0.025 0.009,0.02 0.001,0.015 -0.006,0.009 -0.012,0.002 -0.017,-0.005 -0.02,-0.01 -0.021,-0.013 -0.022,-0.041 -0.022,-0.071 -0.02,-0.103 -0.017,-0.134 -0.014,-0.165 -0.01,-0.196 -0.005,-0.227 0,-0.256 0.005,-0.283 0.01,-0.31 0.015,-0.334 0.02,-0.354 0.024,-0.374 0.028,-0.389 0.031,-0.4 0.034,-0.411 0.034,-0.414 0.033,-0.411 Z m 0.038,-0.145 c 0.005,-0.013 0.014,-0.022 0.027,-0.027 0.013,-0.004 0.025,-0.005 0.038,-0.003 0.012,0.002 0.022,0.007 0.029,0.014 0.007,0.007 0.007,0.016 0,0.026 l -0.041,0.08 C 0.119,-0.453 0.113,-0.446 0.104,-0.445 0.094,-0.444 0.086,-0.446 0.078,-0.452 0.069,-0.457 0.062,-0.464 0.056,-0.473 0.05,-0.481 0.048,-0.488 0.049,-0.493 Z"
   style="fill:#fcf0da;fill-rule:nonzero"
   id="path15" />&#10;                    </g>&#10;                    <g
   transform="matrix(36,0,0,36,358.252,954.471)"
   id="g17">&#10;                        <path
   d="m 0.043,-0.408 c 0.006,-0.013 0.014,-0.019 0.023,-0.018 0.009,0.002 0.018,0.006 0.027,0.013 0.008,0.007 0.015,0.015 0.021,0.024 0.006,0.009 0.009,0.015 0.008,0.017 -0.005,0.015 -0.009,0.03 -0.013,0.044 -0.003,0.012 -0.007,0.024 -0.01,0.036 -0.004,0.012 -0.007,0.022 -0.009,0.029 0.006,-0.013 0.014,-0.027 0.023,-0.043 0.009,-0.016 0.019,-0.032 0.03,-0.047 0.011,-0.015 0.022,-0.03 0.034,-0.043 0.011,-0.013 0.022,-0.022 0.032,-0.029 0.004,-0.003 0.011,-0.003 0.02,0 0.009,0.003 0.018,0.008 0.028,0.014 0.009,0.007 0.016,0.014 0.021,0.023 0.005,0.009 0.007,0.018 0.004,0.027 -10e-4,0.004 -0.004,0.014 -0.009,0.029 -0.005,0.015 -0.011,0.035 -0.017,0.059 -0.006,0.024 -0.012,0.051 -0.018,0.082 -0.006,0.031 -0.01,0.065 -0.013,0.1 0.004,-0.004 0.009,-0.01 0.014,-0.019 0.005,-0.009 0.009,-0.018 0.014,-0.028 0.005,-0.01 0.009,-0.02 0.013,-0.03 0.004,-0.01 0.007,-0.018 0.01,-0.025 0.003,-0.011 0.008,-0.018 0.015,-0.022 0.007,-0.004 0.013,-0.005 0.02,-0.004 0.006,0.001 0.011,0.005 0.015,0.011 0.004,0.006 0.005,0.014 0.002,0.023 C 0.32,-0.158 0.31,-0.133 0.299,-0.11 0.288,-0.086 0.277,-0.065 0.267,-0.047 0.255,-0.026 0.243,-0.006 0.231,0.013 0.225,0.018 0.217,0.02 0.207,0.018 0.197,0.016 0.187,0.012 0.178,0.007 0.168,0.002 0.16,-0.004 0.153,-0.01 0.146,-0.016 0.142,-0.02 0.141,-0.023 0.136,-0.073 0.138,-0.121 0.146,-0.168 0.153,-0.214 0.162,-0.258 0.171,-0.299 0.153,-0.268 0.137,-0.235 0.124,-0.2 0.11,-0.165 0.098,-0.132 0.089,-0.103 0.08,-0.073 0.073,-0.048 0.068,-0.029 0.063,-0.009 0.061,0.001 0.061,0.001 0.059,0.014 0.054,0.021 0.045,0.021 0.036,0.021 0.027,0.018 0.018,0.012 0.009,0.005 0,-0.003 -0.007,-0.013 -0.014,-0.022 -0.018,-0.031 -0.018,-0.038 -0.017,-0.093 -0.014,-0.143 -0.007,-0.188 0,-0.233 0.007,-0.272 0.014,-0.305 0.023,-0.343 0.032,-0.377 0.043,-0.408 Z"
   style="fill:#fcf0da;fill-rule:nonzero"
   id="path16" />&#10;                    </g>&#10;                </g>&#10;            </g>&#10;        </g>&#10;        <g
   transform="matrix(1,0,0,1.2425,0,2184.01)"
   id="g35">&#10;            <g
   transform="matrix(9.46117,-3.09873,3.85015,7.61465,-6583.45,-5629.3)"
   id="g34">&#10;                <g
   transform="matrix(1,0,-0.267949,1,255.75,0)"
   id="g22">&#10;                    <g
   transform="matrix(36,0,0,36,314.62,954.471)"
   id="g21">&#10;                        <path
   d="m 0.253,-0.51 c 0.013,0.007 0.023,0.018 0.032,0.032 0.009,0.015 0.011,0.027 0.006,0.037 0,0.001 -0.004,0.01 -0.013,0.028 C 0.269,-0.394 0.26,-0.369 0.251,-0.336 0.27,-0.347 0.288,-0.362 0.306,-0.379 0.323,-0.396 0.339,-0.415 0.352,-0.434 0.365,-0.453 0.376,-0.473 0.383,-0.493 0.39,-0.512 0.393,-0.53 0.391,-0.545 0.37,-0.55 0.348,-0.548 0.324,-0.541 0.3,-0.534 0.276,-0.523 0.253,-0.51 Z m -0.025,0.28 c -0.004,0.026 -0.007,0.055 -0.009,0.086 0.014,0 0.027,0.002 0.039,0.005 0.01,0.003 0.015,0.009 0.015,0.017 -0.001,0.009 -0.003,0.017 -0.008,0.026 -0.005,0.009 -0.012,0.017 -0.019,0.024 -0.007,0.007 -0.013,0.009 -0.018,0.008 -0.001,0 -0.003,0 -0.004,-0.001 -0.001,0 -0.003,0 -0.004,0 0.001,0.007 0.001,0.015 0.002,0.023 0.001,0.008 0.002,0.016 0.003,0.024 0.001,0.002 0.001,0.004 0.001,0.006 -0.001,0.002 -0.001,0.004 -0.001,0.005 0.018,-0.01 0.035,-0.024 0.05,-0.042 0.015,-0.017 0.026,-0.04 0.034,-0.069 0.006,-0.02 0.008,-0.039 0.006,-0.056 C 0.314,-0.175 0.314,-0.176 0.314,-0.177 0.311,-0.2 0.301,-0.215 0.284,-0.222 0.267,-0.229 0.248,-0.231 0.228,-0.23 Z M 0.187,0.009 C 0.176,0.007 0.166,0.003 0.156,-0.005 0.146,-0.012 0.14,-0.02 0.137,-0.029 c 0,-0.003 -0.001,-0.008 -0.002,-0.015 -0.011,0.007 -0.022,0.014 -0.031,0.021 -0.01,0.008 -0.018,0.017 -0.023,0.026 0.007,0.007 0.021,0.011 0.041,0.013 0.02,0.002 0.042,0 0.065,-0.007 z M 0.13,-0.129 c 0,-0.041 0.002,-0.08 0.007,-0.116 C 0.142,-0.281 0.148,-0.314 0.155,-0.344 0.162,-0.373 0.169,-0.399 0.177,-0.421 0.185,-0.443 0.192,-0.46 0.197,-0.473 0.182,-0.462 0.168,-0.451 0.157,-0.44 0.145,-0.428 0.136,-0.419 0.129,-0.411 0.12,-0.4 0.112,-0.397 0.104,-0.402 0.095,-0.407 0.088,-0.415 0.083,-0.426 0.078,-0.436 0.074,-0.448 0.073,-0.462 0.071,-0.474 0.072,-0.484 0.077,-0.489 c 0.016,-0.02 0.036,-0.04 0.061,-0.059 0.025,-0.019 0.051,-0.036 0.079,-0.05 0.028,-0.013 0.057,-0.023 0.087,-0.03 0.029,-0.007 0.057,-0.008 0.083,-0.003 0.011,0.002 0.022,0.008 0.034,0.018 0.011,0.01 0.02,0.021 0.029,0.034 0.008,0.013 0.014,0.027 0.019,0.04 0.005,0.014 0.007,0.026 0.006,0.036 -0.002,0.027 -0.01,0.054 -0.023,0.083 -0.011,0.024 -0.026,0.047 -0.044,0.07 -0.019,0.023 -0.04,0.044 -0.065,0.063 0.015,0.011 0.028,0.024 0.037,0.039 0.009,0.015 0.015,0.031 0.019,0.048 0.003,0.017 0.004,0.035 0.003,0.053 C 0.401,-0.128 0.398,-0.111 0.393,-0.094 0.385,-0.067 0.372,-0.043 0.355,-0.02 0.338,0.003 0.317,0.024 0.294,0.042 0.271,0.059 0.246,0.074 0.22,0.085 0.193,0.096 0.167,0.102 0.143,0.105 0.118,0.108 0.094,0.106 0.073,0.1 0.051,0.093 0.033,0.081 0.019,0.064 0.016,0.061 0.012,0.055 0.009,0.046 0.006,0.037 0.003,0.027 0.002,0.016 0.001,0.005 0,-0.007 0.001,-0.018 0.002,-0.029 0.005,-0.039 0.01,-0.046 0.022,-0.065 0.039,-0.082 0.061,-0.096 0.082,-0.11 0.105,-0.121 0.13,-0.129 Z"
   style="fill-rule:nonzero"
   id="path20" />&#10;                    </g>&#10;                </g>&#10;                <g
   transform="matrix(1,0,-0.267949,1,255.75,0)"
   id="g24">&#10;                    <g
   transform="matrix(36,0,0,36,328.876,954.471)"
   id="g23">&#10;                        <path
   d="M 0.142,-0.284 C 0.139,-0.307 0.136,-0.326 0.133,-0.339 0.13,-0.352 0.128,-0.36 0.125,-0.363 0.119,-0.35 0.112,-0.331 0.105,-0.306 0.097,-0.28 0.09,-0.253 0.084,-0.225 c -0.006,0.028 -0.01,0.054 -0.013,0.079 -0.003,0.025 -0.003,0.042 0,0.053 0.001,0.001 0.003,-0.004 0.008,-0.015 0.004,-0.011 0.009,-0.026 0.016,-0.045 0.006,-0.019 0.013,-0.04 0.022,-0.063 0.008,-0.023 0.016,-0.046 0.025,-0.068 z m 0.037,-0.082 c 0.006,-0.016 0.01,-0.027 0.013,-0.033 0.002,-0.006 0.003,-0.009 0.003,-0.01 0.003,-0.007 0.01,-0.011 0.019,-0.01 0.009,0.001 0.019,0.004 0.029,0.009 0.009,0.005 0.017,0.012 0.024,0.021 0.007,0.009 0.009,0.017 0.007,0.025 0,0 -0.002,0.005 -0.005,0.016 -0.003,0.011 -0.007,0.027 -0.011,0.046 -0.005,0.02 -0.009,0.044 -0.013,0.071 -0.005,0.028 -0.008,0.059 -0.011,0.093 0.009,-0.012 0.017,-0.026 0.025,-0.042 0.007,-0.015 0.014,-0.031 0.021,-0.046 0.003,-0.01 0.009,-0.015 0.016,-0.017 0.007,0 0.013,0.001 0.019,0.006 0.006,0.005 0.011,0.012 0.014,0.021 0.003,0.009 0.003,0.019 0,0.028 -0.012,0.025 -0.024,0.049 -0.037,0.072 -0.013,0.023 -0.025,0.043 -0.036,0.06 C 0.244,-0.035 0.232,-0.016 0.22,0.001 0.215,0.005 0.208,0.007 0.2,0.006 0.192,0.005 0.184,0.002 0.176,-0.002 0.167,-0.006 0.16,-0.011 0.154,-0.017 0.147,-0.023 0.144,-0.029 0.143,-0.035 0.14,-0.052 0.14,-0.071 0.142,-0.091 0.144,-0.11 0.146,-0.131 0.148,-0.154 0.135,-0.115 0.124,-0.085 0.114,-0.062 0.103,-0.039 0.091,-0.02 0.078,-0.007 0.072,-0.002 0.065,0.001 0.056,0.001 0.047,0 0.037,-0.002 0.028,-0.006 0.019,-0.01 0.01,-0.016 0.003,-0.023 -0.004,-0.029 -0.009,-0.037 -0.011,-0.044 -0.017,-0.066 -0.019,-0.093 -0.018,-0.125 -0.016,-0.157 -0.012,-0.19 -0.005,-0.223 0.002,-0.256 0.011,-0.288 0.022,-0.319 0.033,-0.35 0.046,-0.375 0.06,-0.394 0.065,-0.401 0.073,-0.406 0.083,-0.41 c 0.01,-0.003 0.02,-0.005 0.032,-0.006 0.011,0 0.021,0.002 0.031,0.005 0.01,0.003 0.017,0.009 0.021,0.016 0.003,0.005 0.006,0.01 0.008,0.014 0.001,0.004 0.003,0.009 0.004,0.015 z"
   style="fill-rule:nonzero"
   id="path22" />&#10;                    </g>&#10;                </g>&#10;                <g
   transform="matrix(1,0,-0.267949,1,255.75,0)"
   id="g26">&#10;                    <g
   transform="matrix(36,0,0,36,338.92,954.471)"
   id="g25">&#10;                        <path
   d="m 0.202,-0.413 c 0.004,-0.01 0.011,-0.015 0.02,-0.014 0.009,0.001 0.019,0.005 0.028,0.01 0.009,0.006 0.017,0.013 0.024,0.021 0.007,0.009 0.01,0.016 0.009,0.021 0,0 -0.001,0.006 -0.002,0.017 C 0.279,-0.346 0.276,-0.33 0.273,-0.311 0.27,-0.291 0.266,-0.268 0.262,-0.242 0.258,-0.216 0.254,-0.189 0.249,-0.16 0.244,-0.131 0.24,-0.101 0.235,-0.071 0.23,-0.04 0.225,-0.011 0.22,0.017 0.236,0.018 0.253,0.018 0.271,0.019 0.289,0.02 0.308,0.021 0.327,0.024 0.345,0.027 0.364,0.031 0.383,0.036 0.402,0.041 0.42,0.047 0.437,0.056 0.45,0.063 0.455,0.071 0.453,0.081 0.451,0.091 0.446,0.1 0.437,0.109 0.428,0.118 0.417,0.125 0.406,0.131 0.395,0.136 0.386,0.138 0.38,0.137 0.349,0.121 0.319,0.111 0.291,0.106 0.262,0.101 0.234,0.098 0.206,0.095 0.199,0.124 0.192,0.148 0.183,0.167 0.173,0.186 0.163,0.207 0.151,0.229 0.134,0.259 0.116,0.284 0.096,0.305 0.076,0.326 0.055,0.34 0.032,0.348 0.018,0.353 0.005,0.356 -0.008,0.357 -0.017,0.358 -0.027,0.356 -0.039,0.351 -0.05,0.346 -0.061,0.34 -0.072,0.332 -0.083,0.324 -0.092,0.315 -0.1,0.304 -0.108,0.293 -0.112,0.282 -0.113,0.27 -0.115,0.247 -0.11,0.223 -0.097,0.198 -0.084,0.173 -0.066,0.149 -0.043,0.127 -0.02,0.105 0.007,0.085 0.038,0.068 0.068,0.05 0.099,0.037 0.131,0.028 L 0.16,-0.156 C 0.143,-0.116 0.128,-0.083 0.114,-0.057 0.099,-0.031 0.086,-0.014 0.073,-0.007 0.064,-0.002 0.054,0 0.045,-0.002 0.036,-0.004 0.027,-0.008 0.02,-0.013 0.012,-0.018 0.006,-0.025 0.001,-0.032 c -0.006,-0.007 -0.008,-0.014 -0.009,-0.02 -0.003,-0.028 -0.003,-0.06 0.001,-0.096 0.004,-0.036 0.01,-0.071 0.017,-0.105 0.007,-0.034 0.014,-0.064 0.021,-0.091 0.007,-0.027 0.013,-0.045 0.016,-0.055 0.004,-0.013 0.011,-0.019 0.021,-0.02 0.009,0 0.019,0.003 0.029,0.009 0.01,0.006 0.018,0.014 0.025,0.023 0.007,0.009 0.009,0.017 0.007,0.024 0,0 -0.002,0.006 -0.006,0.019 -0.005,0.013 -0.01,0.031 -0.015,0.052 -0.005,0.021 -0.011,0.046 -0.016,0.073 -0.005,0.027 -0.009,0.056 -0.011,0.085 0.014,-0.017 0.031,-0.048 0.05,-0.092 0.019,-0.043 0.04,-0.101 0.063,-0.172 0.002,-0.005 0.005,-0.01 0.008,-0.015 z M 0.115,0.109 C 0.09,0.123 0.067,0.139 0.047,0.157 0.026,0.175 0.009,0.192 -0.005,0.208 -0.019,0.223 -0.029,0.237 -0.036,0.248 -0.042,0.259 -0.043,0.265 -0.04,0.266 -0.03,0.271 -0.017,0.268 -0.001,0.257 0.015,0.246 0.031,0.231 0.047,0.214 0.062,0.196 0.077,0.177 0.09,0.158 0.102,0.138 0.111,0.122 0.115,0.109 Z"
   style="fill-rule:nonzero"
   id="path24" />&#10;                    </g>&#10;                </g>&#10;                <g
   transform="matrix(1,0,-0.267949,1,255.75,0)"
   id="g28">&#10;                    <g
   transform="matrix(36,0,0,36,348.712,954.471)"
   id="g27">&#10;                        <path
   d="m 0.035,-0.386 c 0.005,-0.013 0.012,-0.02 0.021,-0.02 0.009,0 0.017,0.003 0.026,0.009 0.008,0.006 0.015,0.013 0.021,0.021 0.005,0.009 0.008,0.015 0.007,0.018 0,0 -0.002,0.008 -0.006,0.024 -0.005,0.017 -0.01,0.037 -0.015,0.062 -0.005,0.025 -0.01,0.053 -0.015,0.084 -0.005,0.031 -0.008,0.062 -0.009,0.092 0.003,-0.007 0.007,-0.016 0.012,-0.029 0.005,-0.013 0.009,-0.027 0.014,-0.042 0.005,-0.015 0.01,-0.03 0.015,-0.046 0.005,-0.015 0.01,-0.029 0.015,-0.042 0.005,-0.013 0.009,-0.023 0.013,-0.031 0.004,-0.007 0.007,-0.011 0.01,-0.01 0.005,0.001 0.011,0.004 0.018,0.007 0.007,0.004 0.013,0.008 0.019,0.013 0.005,0.005 0.01,0.011 0.014,0.017 0.003,0.007 0.005,0.013 0.005,0.02 v 0.036 c 0,0.009 0,0.019 0.001,0.03 0,0.011 0.001,0.022 0.002,0.032 0.011,-0.031 0.023,-0.07 0.035,-0.119 0.012,-0.048 0.022,-0.102 0.029,-0.163 0.002,-0.014 0.008,-0.022 0.017,-0.025 0.009,-0.002 0.018,-0.001 0.029,0.002 0.01,0.004 0.019,0.01 0.028,0.016 0.008,0.007 0.012,0.013 0.012,0.017 C 0.352,-0.402 0.349,-0.385 0.345,-0.362 0.341,-0.339 0.336,-0.314 0.33,-0.286 0.323,-0.257 0.316,-0.228 0.308,-0.197 0.3,-0.166 0.291,-0.137 0.282,-0.111 0.272,-0.084 0.262,-0.06 0.252,-0.04 0.241,-0.019 0.23,-0.005 0.219,0.002 0.214,0.005 0.209,0.007 0.202,0.006 0.195,0.005 0.188,0.002 0.182,-0.001 0.175,-0.004 0.17,-0.008 0.165,-0.012 0.16,-0.015 0.156,-0.018 0.155,-0.02 0.152,-0.025 0.149,-0.032 0.147,-0.042 0.145,-0.051 0.143,-0.061 0.142,-0.072 0.14,-0.083 0.139,-0.093 0.138,-0.105 0.137,-0.115 0.135,-0.125 0.133,-0.133 0.127,-0.116 0.121,-0.098 0.114,-0.082 0.107,-0.065 0.1,-0.049 0.094,-0.037 0.087,-0.024 0.082,-0.013 0.077,-0.005 0.072,0.003 0.07,0.007 0.07,0.007 0.065,0.016 0.057,0.02 0.048,0.02 0.038,0.019 0.029,0.016 0.02,0.011 0.011,0.006 0.003,-0.001 -0.005,-0.009 c -0.007,-0.007 -0.01,-0.014 -0.01,-0.02 0,-0.049 0.003,-0.095 0.007,-0.138 0.005,-0.043 0.011,-0.08 0.018,-0.113 0.007,-0.038 0.016,-0.073 0.025,-0.106 z"
   style="fill-rule:nonzero"
   id="path26" />&#10;                    </g>&#10;                </g>&#10;                <g
   transform="matrix(1,0,-0.267949,1,255.75,0)"
   id="g33">&#10;                    <g
   transform="matrix(36,0,0,36,360.628,954.471)"
   id="g29">&#10;                        <path
   d="M 0.142,-0.284 C 0.139,-0.307 0.136,-0.326 0.133,-0.339 0.13,-0.352 0.128,-0.36 0.125,-0.363 0.119,-0.35 0.112,-0.331 0.105,-0.306 0.097,-0.28 0.09,-0.253 0.084,-0.225 c -0.006,0.028 -0.01,0.054 -0.013,0.079 -0.003,0.025 -0.003,0.042 0,0.053 0.001,0.001 0.003,-0.004 0.008,-0.015 0.004,-0.011 0.009,-0.026 0.016,-0.045 0.006,-0.019 0.013,-0.04 0.022,-0.063 0.008,-0.023 0.016,-0.046 0.025,-0.068 z m 0.037,-0.082 c 0.006,-0.016 0.01,-0.027 0.013,-0.033 0.002,-0.006 0.003,-0.009 0.003,-0.01 0.003,-0.007 0.01,-0.011 0.019,-0.01 0.009,0.001 0.019,0.004 0.029,0.009 0.009,0.005 0.017,0.012 0.024,0.021 0.007,0.009 0.009,0.017 0.007,0.025 0,0 -0.002,0.005 -0.005,0.016 -0.003,0.011 -0.007,0.027 -0.011,0.046 -0.005,0.02 -0.009,0.044 -0.013,0.071 -0.005,0.028 -0.008,0.059 -0.011,0.093 0.009,-0.012 0.017,-0.026 0.025,-0.042 0.007,-0.015 0.014,-0.031 0.021,-0.046 0.003,-0.01 0.009,-0.015 0.016,-0.017 0.007,0 0.013,0.001 0.019,0.006 0.006,0.005 0.011,0.012 0.014,0.021 0.003,0.009 0.003,0.019 0,0.028 -0.012,0.025 -0.024,0.049 -0.037,0.072 -0.013,0.023 -0.025,0.043 -0.036,0.06 C 0.244,-0.035 0.232,-0.016 0.22,0.001 0.215,0.005 0.208,0.007 0.2,0.006 0.192,0.005 0.184,0.002 0.176,-0.002 0.167,-0.006 0.16,-0.011 0.154,-0.017 0.147,-0.023 0.144,-0.029 0.143,-0.035 0.14,-0.052 0.14,-0.071 0.142,-0.091 0.144,-0.11 0.146,-0.131 0.148,-0.154 0.135,-0.115 0.124,-0.085 0.114,-0.062 0.103,-0.039 0.091,-0.02 0.078,-0.007 0.072,-0.002 0.065,0.001 0.056,0.001 0.047,0 0.037,-0.002 0.028,-0.006 0.019,-0.01 0.01,-0.016 0.003,-0.023 -0.004,-0.029 -0.009,-0.037 -0.011,-0.044 -0.017,-0.066 -0.019,-0.093 -0.018,-0.125 -0.016,-0.157 -0.012,-0.19 -0.005,-0.223 0.002,-0.256 0.011,-0.288 0.022,-0.319 0.033,-0.35 0.046,-0.375 0.06,-0.394 0.065,-0.401 0.073,-0.406 0.083,-0.41 c 0.01,-0.003 0.02,-0.005 0.032,-0.006 0.011,0 0.021,0.002 0.031,0.005 0.01,0.003 0.017,0.009 0.021,0.016 0.003,0.005 0.006,0.01 0.008,0.014 0.001,0.004 0.003,0.009 0.004,0.015 z"
   style="fill-rule:nonzero"
   id="path28" />&#10;                    </g>&#10;                    <g
   transform="matrix(36,0,0,36,370.672,954.471)"
   id="g30">&#10;                        <path
   d="m 0.098,-0.574 c 0.005,-0.013 0.012,-0.02 0.021,-0.019 0.009,0.001 0.017,0.005 0.026,0.011 0.008,0.007 0.015,0.014 0.021,0.022 0.005,0.008 0.008,0.013 0.008,0.014 -0.001,0.001 -0.004,0.011 -0.011,0.031 -0.007,0.021 -0.016,0.048 -0.027,0.082 h 0.049 c 0.011,0 0.018,0.003 0.021,0.01 0.002,0.007 0.002,0.015 -0.001,0.023 -0.003,0.008 -0.008,0.015 -0.013,0.022 -0.006,0.007 -0.011,0.011 -0.016,0.011 l -0.06,0.001 C 0.103,-0.322 0.092,-0.275 0.082,-0.224 0.071,-0.172 0.064,-0.123 0.061,-0.075 0.075,-0.09 0.088,-0.106 0.1,-0.124 c 0.011,-0.018 0.024,-0.041 0.039,-0.069 0.005,-0.009 0.012,-0.014 0.019,-0.015 0.007,-0.001 0.013,0.001 0.019,0.005 0.006,0.004 0.01,0.01 0.013,0.017 0.003,0.007 0.002,0.014 -0.001,0.021 C 0.172,-0.132 0.155,-0.103 0.14,-0.08 0.124,-0.056 0.11,-0.036 0.097,-0.021 0.084,-0.006 0.073,0.006 0.064,0.014 0.055,0.022 0.047,0.027 0.042,0.03 0.035,0.035 0.028,0.037 0.022,0.037 0.019,0.037 0.015,0.035 0.01,0.033 0.005,0.029 0,0.026 -0.005,0.021 -0.01,0.016 -0.014,0.012 -0.018,0.007 -0.022,0.002 -0.024,-0.001 -0.025,-0.003 -0.026,-0.032 -0.026,-0.061 -0.023,-0.092 -0.02,-0.123 -0.017,-0.154 -0.012,-0.185 -0.007,-0.216 0,-0.246 0.007,-0.277 0.014,-0.307 0.021,-0.336 0.029,-0.364 H 0.005 c -0.011,0 -0.018,-0.004 -0.02,-0.012 -0.001,-0.007 0,-0.015 0.003,-0.024 0.004,-0.009 0.009,-0.017 0.015,-0.024 0.006,-0.007 0.011,-0.01 0.014,-0.009 h 0.032 c 0.007,-0.021 0.013,-0.041 0.019,-0.058 0.005,-0.016 0.01,-0.031 0.015,-0.044 0.005,-0.015 0.01,-0.028 0.015,-0.039 z"
   style="fill-rule:nonzero"
   id="path29" />&#10;                    </g>&#10;                    <g
   transform="matrix(36,0,0,36,376.108,954.471)"
   id="g31">&#10;                        <path
   d="M 0.16,-0.241 C 0.157,-0.236 0.154,-0.235 0.15,-0.238 0.145,-0.24 0.141,-0.243 0.137,-0.248 0.132,-0.253 0.129,-0.258 0.126,-0.263 0.123,-0.268 0.121,-0.272 0.122,-0.274 0.123,-0.283 0.125,-0.293 0.127,-0.303 0.128,-0.312 0.13,-0.321 0.131,-0.329 c 0.001,-0.009 0.003,-0.019 0.004,-0.028 -0.009,0.007 -0.018,0.02 -0.024,0.039 -0.008,0.02 -0.014,0.042 -0.019,0.065 -0.005,0.024 -0.009,0.047 -0.012,0.07 -0.003,0.023 -0.004,0.04 -0.004,0.053 0,0.015 0,0.026 0.001,0.035 0,0.009 0.001,0.017 0.004,0.026 0.005,-0.003 0.012,-0.01 0.022,-0.023 0.01,-0.013 0.02,-0.027 0.031,-0.043 0.01,-0.016 0.02,-0.032 0.029,-0.049 0.009,-0.016 0.016,-0.029 0.02,-0.04 0.006,-0.013 0.013,-0.021 0.02,-0.025 0.007,-0.003 0.014,-0.002 0.019,0.002 0.005,0.004 0.009,0.01 0.012,0.019 0.002,0.009 10e-4,0.019 -0.004,0.03 -0.004,0.009 -0.01,0.025 -0.019,0.045 -0.009,0.022 -0.02,0.044 -0.032,0.067 C 0.167,-0.063 0.154,-0.041 0.141,-0.02 0.127,0.002 0.113,0.017 0.1,0.026 0.092,0.031 0.083,0.032 0.072,0.029 0.061,0.025 0.051,0.02 0.042,0.013 0.032,0.006 0.024,0 0.017,-0.007 0.01,-0.014 0.006,-0.018 0.005,-0.019 -0.002,-0.033 -0.006,-0.05 -0.008,-0.071 -0.01,-0.092 -0.011,-0.112 -0.01,-0.131 c 0,-0.037 0.004,-0.075 0.011,-0.114 0.003,-0.017 0.008,-0.035 0.015,-0.054 0.006,-0.019 0.014,-0.038 0.023,-0.056 0.009,-0.017 0.021,-0.033 0.035,-0.046 0.013,-0.012 0.029,-0.021 0.047,-0.025 0.01,-0.002 0.019,0 0.029,0.005 0.009,0.005 0.016,0.012 0.023,0.02 0.007,0.008 0.012,0.017 0.016,0.026 0.004,0.009 0.006,0.017 0.006,0.023 0,0.009 -0.001,0.018 -0.004,0.029 -0.003,0.011 -0.006,0.021 -0.009,0.032 -0.004,0.011 -0.008,0.02 -0.012,0.029 -0.004,0.009 -0.007,0.016 -0.01,0.021 z"
   style="fill-rule:nonzero"
   id="path30" />&#10;                    </g>&#10;                    <g
   transform="matrix(36,0,0,36,383.02,954.471)"
   id="g32">&#10;                        <path
   d="m 0.096,-0.57 c 0.005,-0.013 0.012,-0.02 0.021,-0.02 0.009,0.001 0.017,0.004 0.026,0.01 0.008,0.006 0.015,0.013 0.021,0.02 0.005,0.008 0.008,0.013 0.008,0.014 0,0 -0.003,0.007 -0.008,0.021 -0.005,0.015 -0.012,0.034 -0.02,0.057 -0.008,0.024 -0.016,0.051 -0.025,0.081 -0.009,0.03 -0.018,0.061 -0.026,0.093 0.013,-0.024 0.027,-0.049 0.042,-0.074 0.015,-0.025 0.031,-0.046 0.049,-0.061 0.008,-0.007 0.016,-0.009 0.025,-0.007 0.008,0.002 0.015,0.006 0.022,0.012 0.007,0.006 0.012,0.013 0.017,0.02 0.004,0.007 0.006,0.013 0.006,0.018 0,0 -0.002,0.01 -0.007,0.03 -0.005,0.02 -0.01,0.045 -0.016,0.074 -0.007,0.029 -0.013,0.061 -0.019,0.096 -0.007,0.035 -0.012,0.067 -0.015,0.096 0.011,-0.015 0.021,-0.031 0.029,-0.05 0.008,-0.018 0.017,-0.036 0.026,-0.053 0.006,-0.013 0.013,-0.02 0.021,-0.023 0.007,-0.002 0.014,-0.001 0.02,0.003 0.006,0.005 0.01,0.011 0.012,0.019 0.002,0.009 0.001,0.017 -0.004,0.025 -0.013,0.027 -0.027,0.051 -0.04,0.074 -0.013,0.024 -0.025,0.043 -0.036,0.06 -0.011,0.017 -0.019,0.03 -0.026,0.04 C 0.192,0.014 0.188,0.019 0.188,0.019 0.181,0.025 0.174,0.028 0.166,0.027 0.157,0.026 0.15,0.024 0.143,0.02 0.136,0.016 0.13,0.011 0.125,0.006 0.12,0.001 0.117,-0.003 0.116,-0.006 0.114,-0.019 0.114,-0.036 0.115,-0.059 0.116,-0.081 0.119,-0.105 0.123,-0.131 0.126,-0.157 0.131,-0.184 0.136,-0.211 0.141,-0.238 0.147,-0.262 0.153,-0.284 0.13,-0.248 0.111,-0.213 0.098,-0.18 0.085,-0.146 0.075,-0.116 0.068,-0.089 0.061,-0.062 0.056,-0.039 0.054,-0.021 0.051,-0.002 0.049,0.009 0.048,0.014 0.046,0.025 0.041,0.031 0.034,0.032 0.027,0.033 0.019,0.032 0.01,0.029 0.001,0.025 -0.007,0.02 -0.014,0.014 -0.021,0.007 -0.026,0.002 -0.027,-0.003 c -0.003,-0.039 -0.002,-0.08 0.002,-0.123 0.005,-0.043 0.012,-0.085 0.021,-0.127 0.01,-0.042 0.02,-0.082 0.031,-0.121 0.011,-0.038 0.022,-0.072 0.033,-0.101 0.01,-0.028 0.019,-0.052 0.026,-0.069 0.007,-0.017 0.01,-0.026 0.01,-0.026 z"
   style="fill-rule:nonzero"
   id="path31" />&#10;                    </g>&#10;                </g>&#10;            </g>&#10;        </g>&#10;        <g
   transform="matrix(1,0,0,1.2425,0,2184.01)"
   id="g50">&#10;            <g
   transform="matrix(9.46117,-3.09873,3.85015,7.61465,-6593.17,-5628.55)"
   id="g49">&#10;                <g
   transform="matrix(1,0,-0.267949,1,255.75,0)"
   id="g37">&#10;                    <g
   transform="matrix(36,0,0,36,314.62,954.471)"
   id="g36">&#10;                        <path
   d="m 0.253,-0.51 c 0.013,0.007 0.023,0.018 0.032,0.032 0.009,0.015 0.011,0.027 0.006,0.037 0,0.001 -0.004,0.01 -0.013,0.028 C 0.269,-0.394 0.26,-0.369 0.251,-0.336 0.27,-0.347 0.288,-0.362 0.306,-0.379 0.323,-0.396 0.339,-0.415 0.352,-0.434 0.365,-0.453 0.376,-0.473 0.383,-0.493 0.39,-0.512 0.393,-0.53 0.391,-0.545 0.37,-0.55 0.348,-0.548 0.324,-0.541 0.3,-0.534 0.276,-0.523 0.253,-0.51 Z m -0.025,0.28 c -0.004,0.026 -0.007,0.055 -0.009,0.086 0.014,0 0.027,0.002 0.039,0.005 0.01,0.003 0.015,0.009 0.015,0.017 -0.001,0.009 -0.003,0.017 -0.008,0.026 -0.005,0.009 -0.012,0.017 -0.019,0.024 -0.007,0.007 -0.013,0.009 -0.018,0.008 -0.001,0 -0.003,0 -0.004,-0.001 -0.001,0 -0.003,0 -0.004,0 0.001,0.007 0.001,0.015 0.002,0.023 0.001,0.008 0.002,0.016 0.003,0.024 0.001,0.002 0.001,0.004 0.001,0.006 -0.001,0.002 -0.001,0.004 -0.001,0.005 0.018,-0.01 0.035,-0.024 0.05,-0.042 0.015,-0.017 0.026,-0.04 0.034,-0.069 0.006,-0.02 0.008,-0.039 0.006,-0.056 C 0.314,-0.175 0.314,-0.176 0.314,-0.177 0.311,-0.2 0.301,-0.215 0.284,-0.222 0.267,-0.229 0.248,-0.231 0.228,-0.23 Z M 0.187,0.009 C 0.176,0.007 0.166,0.003 0.156,-0.005 0.146,-0.012 0.14,-0.02 0.137,-0.029 c 0,-0.003 -0.001,-0.008 -0.002,-0.015 -0.011,0.007 -0.022,0.014 -0.031,0.021 -0.01,0.008 -0.018,0.017 -0.023,0.026 0.007,0.007 0.021,0.011 0.041,0.013 0.02,0.002 0.042,0 0.065,-0.007 z M 0.13,-0.129 c 0,-0.041 0.002,-0.08 0.007,-0.116 C 0.142,-0.281 0.148,-0.314 0.155,-0.344 0.162,-0.373 0.169,-0.399 0.177,-0.421 0.185,-0.443 0.192,-0.46 0.197,-0.473 0.182,-0.462 0.168,-0.451 0.157,-0.44 0.145,-0.428 0.136,-0.419 0.129,-0.411 0.12,-0.4 0.112,-0.397 0.104,-0.402 0.095,-0.407 0.088,-0.415 0.083,-0.426 0.078,-0.436 0.074,-0.448 0.073,-0.462 0.071,-0.474 0.072,-0.484 0.077,-0.489 c 0.016,-0.02 0.036,-0.04 0.061,-0.059 0.025,-0.019 0.051,-0.036 0.079,-0.05 0.028,-0.013 0.057,-0.023 0.087,-0.03 0.029,-0.007 0.057,-0.008 0.083,-0.003 0.011,0.002 0.022,0.008 0.034,0.018 0.011,0.01 0.02,0.021 0.029,0.034 0.008,0.013 0.014,0.027 0.019,0.04 0.005,0.014 0.007,0.026 0.006,0.036 -0.002,0.027 -0.01,0.054 -0.023,0.083 -0.011,0.024 -0.026,0.047 -0.044,0.07 -0.019,0.023 -0.04,0.044 -0.065,0.063 0.015,0.011 0.028,0.024 0.037,0.039 0.009,0.015 0.015,0.031 0.019,0.048 0.003,0.017 0.004,0.035 0.003,0.053 C 0.401,-0.128 0.398,-0.111 0.393,-0.094 0.385,-0.067 0.372,-0.043 0.355,-0.02 0.338,0.003 0.317,0.024 0.294,0.042 0.271,0.059 0.246,0.074 0.22,0.085 0.193,0.096 0.167,0.102 0.143,0.105 0.118,0.108 0.094,0.106 0.073,0.1 0.051,0.093 0.033,0.081 0.019,0.064 0.016,0.061 0.012,0.055 0.009,0.046 0.006,0.037 0.003,0.027 0.002,0.016 0.001,0.005 0,-0.007 0.001,-0.018 0.002,-0.029 0.005,-0.039 0.01,-0.046 0.022,-0.065 0.039,-0.082 0.061,-0.096 0.082,-0.11 0.105,-0.121 0.13,-0.129 Z"
   style="fill:#ffffff;fill-rule:nonzero"
   id="path35" />&#10;                    </g>&#10;                </g>&#10;                <g
   transform="matrix(1,0,-0.267949,1,255.75,0)"
   id="g39">&#10;                    <g
   transform="matrix(36,0,0,36,328.876,954.471)"
   id="g38">&#10;                        <path
   d="M 0.142,-0.284 C 0.139,-0.307 0.136,-0.326 0.133,-0.339 0.13,-0.352 0.128,-0.36 0.125,-0.363 0.119,-0.35 0.112,-0.331 0.105,-0.306 0.097,-0.28 0.09,-0.253 0.084,-0.225 c -0.006,0.028 -0.01,0.054 -0.013,0.079 -0.003,0.025 -0.003,0.042 0,0.053 0.001,0.001 0.003,-0.004 0.008,-0.015 0.004,-0.011 0.009,-0.026 0.016,-0.045 0.006,-0.019 0.013,-0.04 0.022,-0.063 0.008,-0.023 0.016,-0.046 0.025,-0.068 z m 0.037,-0.082 c 0.006,-0.016 0.01,-0.027 0.013,-0.033 0.002,-0.006 0.003,-0.009 0.003,-0.01 0.003,-0.007 0.01,-0.011 0.019,-0.01 0.009,0.001 0.019,0.004 0.029,0.009 0.009,0.005 0.017,0.012 0.024,0.021 0.007,0.009 0.009,0.017 0.007,0.025 0,0 -0.002,0.005 -0.005,0.016 -0.003,0.011 -0.007,0.027 -0.011,0.046 -0.005,0.02 -0.009,0.044 -0.013,0.071 -0.005,0.028 -0.008,0.059 -0.011,0.093 0.009,-0.012 0.017,-0.026 0.025,-0.042 0.007,-0.015 0.014,-0.031 0.021,-0.046 0.003,-0.01 0.009,-0.015 0.016,-0.017 0.007,0 0.013,0.001 0.019,0.006 0.006,0.005 0.011,0.012 0.014,0.021 0.003,0.009 0.003,0.019 0,0.028 -0.012,0.025 -0.024,0.049 -0.037,0.072 -0.013,0.023 -0.025,0.043 -0.036,0.06 C 0.244,-0.035 0.232,-0.016 0.22,0.001 0.215,0.005 0.208,0.007 0.2,0.006 0.192,0.005 0.184,0.002 0.176,-0.002 0.167,-0.006 0.16,-0.011 0.154,-0.017 0.147,-0.023 0.144,-0.029 0.143,-0.035 0.14,-0.052 0.14,-0.071 0.142,-0.091 0.144,-0.11 0.146,-0.131 0.148,-0.154 0.135,-0.115 0.124,-0.085 0.114,-0.062 0.103,-0.039 0.091,-0.02 0.078,-0.007 0.072,-0.002 0.065,0.001 0.056,0.001 0.047,0 0.037,-0.002 0.028,-0.006 0.019,-0.01 0.01,-0.016 0.003,-0.023 -0.004,-0.029 -0.009,-0.037 -0.011,-0.044 -0.017,-0.066 -0.019,-0.093 -0.018,-0.125 -0.016,-0.157 -0.012,-0.19 -0.005,-0.223 0.002,-0.256 0.011,-0.288 0.022,-0.319 0.033,-0.35 0.046,-0.375 0.06,-0.394 0.065,-0.401 0.073,-0.406 0.083,-0.41 c 0.01,-0.003 0.02,-0.005 0.032,-0.006 0.011,0 0.021,0.002 0.031,0.005 0.01,0.003 0.017,0.009 0.021,0.016 0.003,0.005 0.006,0.01 0.008,0.014 0.001,0.004 0.003,0.009 0.004,0.015 z"
   style="fill:#ffffff;fill-rule:nonzero"
   id="path37" />&#10;                    </g>&#10;                </g>&#10;                <g
   transform="matrix(1,0,-0.267949,1,255.75,0)"
   id="g41">&#10;                    <g
   transform="matrix(36,0,0,36,338.92,954.471)"
   id="g40">&#10;                        <path
   d="m 0.202,-0.413 c 0.004,-0.01 0.011,-0.015 0.02,-0.014 0.009,0.001 0.019,0.005 0.028,0.01 0.009,0.006 0.017,0.013 0.024,0.021 0.007,0.009 0.01,0.016 0.009,0.021 0,0 -0.001,0.006 -0.002,0.017 C 0.279,-0.346 0.276,-0.33 0.273,-0.311 0.27,-0.291 0.266,-0.268 0.262,-0.242 0.258,-0.216 0.254,-0.189 0.249,-0.16 0.244,-0.131 0.24,-0.101 0.235,-0.071 0.23,-0.04 0.225,-0.011 0.22,0.017 0.236,0.018 0.253,0.018 0.271,0.019 0.289,0.02 0.308,0.021 0.327,0.024 0.345,0.027 0.364,0.031 0.383,0.036 0.402,0.041 0.42,0.047 0.437,0.056 0.45,0.063 0.455,0.071 0.453,0.081 0.451,0.091 0.446,0.1 0.437,0.109 0.428,0.118 0.417,0.125 0.406,0.131 0.395,0.136 0.386,0.138 0.38,0.137 0.349,0.121 0.319,0.111 0.291,0.106 0.262,0.101 0.234,0.098 0.206,0.095 0.199,0.124 0.192,0.148 0.183,0.167 0.173,0.186 0.163,0.207 0.151,0.229 0.134,0.259 0.116,0.284 0.096,0.305 0.076,0.326 0.055,0.34 0.032,0.348 0.018,0.353 0.005,0.356 -0.008,0.357 -0.017,0.358 -0.027,0.356 -0.039,0.351 -0.05,0.346 -0.061,0.34 -0.072,0.332 -0.083,0.324 -0.092,0.315 -0.1,0.304 -0.108,0.293 -0.112,0.282 -0.113,0.27 -0.115,0.247 -0.11,0.223 -0.097,0.198 -0.084,0.173 -0.066,0.149 -0.043,0.127 -0.02,0.105 0.007,0.085 0.038,0.068 0.068,0.05 0.099,0.037 0.131,0.028 L 0.16,-0.156 C 0.143,-0.116 0.128,-0.083 0.114,-0.057 0.099,-0.031 0.086,-0.014 0.073,-0.007 0.064,-0.002 0.054,0 0.045,-0.002 0.036,-0.004 0.027,-0.008 0.02,-0.013 0.012,-0.018 0.006,-0.025 0.001,-0.032 c -0.006,-0.007 -0.008,-0.014 -0.009,-0.02 -0.003,-0.028 -0.003,-0.06 0.001,-0.096 0.004,-0.036 0.01,-0.071 0.017,-0.105 0.007,-0.034 0.014,-0.064 0.021,-0.091 0.007,-0.027 0.013,-0.045 0.016,-0.055 0.004,-0.013 0.011,-0.019 0.021,-0.02 0.009,0 0.019,0.003 0.029,0.009 0.01,0.006 0.018,0.014 0.025,0.023 0.007,0.009 0.009,0.017 0.007,0.024 0,0 -0.002,0.006 -0.006,0.019 -0.005,0.013 -0.01,0.031 -0.015,0.052 -0.005,0.021 -0.011,0.046 -0.016,0.073 -0.005,0.027 -0.009,0.056 -0.011,0.085 0.014,-0.017 0.031,-0.048 0.05,-0.092 0.019,-0.043 0.04,-0.101 0.063,-0.172 0.002,-0.005 0.005,-0.01 0.008,-0.015 z M 0.115,0.109 C 0.09,0.123 0.067,0.139 0.047,0.157 0.026,0.175 0.009,0.192 -0.005,0.208 -0.019,0.223 -0.029,0.237 -0.036,0.248 -0.042,0.259 -0.043,0.265 -0.04,0.266 -0.03,0.271 -0.017,0.268 -0.001,0.257 0.015,0.246 0.031,0.231 0.047,0.214 0.062,0.196 0.077,0.177 0.09,0.158 0.102,0.138 0.111,0.122 0.115,0.109 Z"
   style="fill:#ffffff;fill-rule:nonzero"
   id="path39" />&#10;                    </g>&#10;                </g>&#10;                <g
   transform="matrix(1,0,-0.267949,1,255.75,0)"
   id="g43">&#10;                    <g
   transform="matrix(36,0,0,36,348.712,954.471)"
   id="g42">&#10;                        <path
   d="m 0.035,-0.386 c 0.005,-0.013 0.012,-0.02 0.021,-0.02 0.009,0 0.017,0.003 0.026,0.009 0.008,0.006 0.015,0.013 0.021,0.021 0.005,0.009 0.008,0.015 0.007,0.018 0,0 -0.002,0.008 -0.006,0.024 -0.005,0.017 -0.01,0.037 -0.015,0.062 -0.005,0.025 -0.01,0.053 -0.015,0.084 -0.005,0.031 -0.008,0.062 -0.009,0.092 0.003,-0.007 0.007,-0.016 0.012,-0.029 0.005,-0.013 0.009,-0.027 0.014,-0.042 0.005,-0.015 0.01,-0.03 0.015,-0.046 0.005,-0.015 0.01,-0.029 0.015,-0.042 0.005,-0.013 0.009,-0.023 0.013,-0.031 0.004,-0.007 0.007,-0.011 0.01,-0.01 0.005,0.001 0.011,0.004 0.018,0.007 0.007,0.004 0.013,0.008 0.019,0.013 0.005,0.005 0.01,0.011 0.014,0.017 0.003,0.007 0.005,0.013 0.005,0.02 v 0.036 c 0,0.009 0,0.019 0.001,0.03 0,0.011 0.001,0.022 0.002,0.032 0.011,-0.031 0.023,-0.07 0.035,-0.119 0.012,-0.048 0.022,-0.102 0.029,-0.163 0.002,-0.014 0.008,-0.022 0.017,-0.025 0.009,-0.002 0.018,-0.001 0.029,0.002 0.01,0.004 0.019,0.01 0.028,0.016 0.008,0.007 0.012,0.013 0.012,0.017 C 0.352,-0.402 0.349,-0.385 0.345,-0.362 0.341,-0.339 0.336,-0.314 0.33,-0.286 0.323,-0.257 0.316,-0.228 0.308,-0.197 0.3,-0.166 0.291,-0.137 0.282,-0.111 0.272,-0.084 0.262,-0.06 0.252,-0.04 0.241,-0.019 0.23,-0.005 0.219,0.002 0.214,0.005 0.209,0.007 0.202,0.006 0.195,0.005 0.188,0.002 0.182,-0.001 0.175,-0.004 0.17,-0.008 0.165,-0.012 0.16,-0.015 0.156,-0.018 0.155,-0.02 0.152,-0.025 0.149,-0.032 0.147,-0.042 0.145,-0.051 0.143,-0.061 0.142,-0.072 0.14,-0.083 0.139,-0.093 0.138,-0.105 0.137,-0.115 0.135,-0.125 0.133,-0.133 0.127,-0.116 0.121,-0.098 0.114,-0.082 0.107,-0.065 0.1,-0.049 0.094,-0.037 0.087,-0.024 0.082,-0.013 0.077,-0.005 0.072,0.003 0.07,0.007 0.07,0.007 0.065,0.016 0.057,0.02 0.048,0.02 0.038,0.019 0.029,0.016 0.02,0.011 0.011,0.006 0.003,-0.001 -0.005,-0.009 c -0.007,-0.007 -0.01,-0.014 -0.01,-0.02 0,-0.049 0.003,-0.095 0.007,-0.138 0.005,-0.043 0.011,-0.08 0.018,-0.113 0.007,-0.038 0.016,-0.073 0.025,-0.106 z"
   style="fill:#ffffff;fill-rule:nonzero"
   id="path41" />&#10;                    </g>&#10;                </g>&#10;                <g
   transform="matrix(1,0,-0.267949,1,255.75,0)"
   id="g48">&#10;                    <g
   transform="matrix(36,0,0,36,360.628,954.471)"
   id="g44">&#10;                        <path
   d="M 0.142,-0.284 C 0.139,-0.307 0.136,-0.326 0.133,-0.339 0.13,-0.352 0.128,-0.36 0.125,-0.363 0.119,-0.35 0.112,-0.331 0.105,-0.306 0.097,-0.28 0.09,-0.253 0.084,-0.225 c -0.006,0.028 -0.01,0.054 -0.013,0.079 -0.003,0.025 -0.003,0.042 0,0.053 0.001,0.001 0.003,-0.004 0.008,-0.015 0.004,-0.011 0.009,-0.026 0.016,-0.045 0.006,-0.019 0.013,-0.04 0.022,-0.063 0.008,-0.023 0.016,-0.046 0.025,-0.068 z m 0.037,-0.082 c 0.006,-0.016 0.01,-0.027 0.013,-0.033 0.002,-0.006 0.003,-0.009 0.003,-0.01 0.003,-0.007 0.01,-0.011 0.019,-0.01 0.009,0.001 0.019,0.004 0.029,0.009 0.009,0.005 0.017,0.012 0.024,0.021 0.007,0.009 0.009,0.017 0.007,0.025 0,0 -0.002,0.005 -0.005,0.016 -0.003,0.011 -0.007,0.027 -0.011,0.046 -0.005,0.02 -0.009,0.044 -0.013,0.071 -0.005,0.028 -0.008,0.059 -0.011,0.093 0.009,-0.012 0.017,-0.026 0.025,-0.042 0.007,-0.015 0.014,-0.031 0.021,-0.046 0.003,-0.01 0.009,-0.015 0.016,-0.017 0.007,0 0.013,0.001 0.019,0.006 0.006,0.005 0.011,0.012 0.014,0.021 0.003,0.009 0.003,0.019 0,0.028 -0.012,0.025 -0.024,0.049 -0.037,0.072 -0.013,0.023 -0.025,0.043 -0.036,0.06 C 0.244,-0.035 0.232,-0.016 0.22,0.001 0.215,0.005 0.208,0.007 0.2,0.006 0.192,0.005 0.184,0.002 0.176,-0.002 0.167,-0.006 0.16,-0.011 0.154,-0.017 0.147,-0.023 0.144,-0.029 0.143,-0.035 0.14,-0.052 0.14,-0.071 0.142,-0.091 0.144,-0.11 0.146,-0.131 0.148,-0.154 0.135,-0.115 0.124,-0.085 0.114,-0.062 0.103,-0.039 0.091,-0.02 0.078,-0.007 0.072,-0.002 0.065,0.001 0.056,0.001 0.047,0 0.037,-0.002 0.028,-0.006 0.019,-0.01 0.01,-0.016 0.003,-0.023 -0.004,-0.029 -0.009,-0.037 -0.011,-0.044 -0.017,-0.066 -0.019,-0.093 -0.018,-0.125 -0.016,-0.157 -0.012,-0.19 -0.005,-0.223 0.002,-0.256 0.011,-0.288 0.022,-0.319 0.033,-0.35 0.046,-0.375 0.06,-0.394 0.065,-0.401 0.073,-0.406 0.083,-0.41 c 0.01,-0.003 0.02,-0.005 0.032,-0.006 0.011,0 0.021,0.002 0.031,0.005 0.01,0.003 0.017,0.009 0.021,0.016 0.003,0.005 0.006,0.01 0.008,0.014 0.001,0.004 0.003,0.009 0.004,0.015 z"
   style="fill:#ffffff;fill-rule:nonzero"
   id="path43" />&#10;                    </g>&#10;                    <g
   transform="matrix(36,0,0,36,370.672,954.471)"
   id="g45">&#10;                        <path
   d="m 0.098,-0.574 c 0.005,-0.013 0.012,-0.02 0.021,-0.019 0.009,0.001 0.017,0.005 0.026,0.011 0.008,0.007 0.015,0.014 0.021,0.022 0.005,0.008 0.008,0.013 0.008,0.014 -0.001,0.001 -0.004,0.011 -0.011,0.031 -0.007,0.021 -0.016,0.048 -0.027,0.082 h 0.049 c 0.011,0 0.018,0.003 0.021,0.01 0.002,0.007 0.002,0.015 -0.001,0.023 -0.003,0.008 -0.008,0.015 -0.013,0.022 -0.006,0.007 -0.011,0.011 -0.016,0.011 l -0.06,0.001 C 0.103,-0.322 0.092,-0.275 0.082,-0.224 0.071,-0.172 0.064,-0.123 0.061,-0.075 0.075,-0.09 0.088,-0.106 0.1,-0.124 c 0.011,-0.018 0.024,-0.041 0.039,-0.069 0.005,-0.009 0.012,-0.014 0.019,-0.015 0.007,-0.001 0.013,0.001 0.019,0.005 0.006,0.004 0.01,0.01 0.013,0.017 0.003,0.007 0.002,0.014 -0.001,0.021 C 0.172,-0.132 0.155,-0.103 0.14,-0.08 0.124,-0.056 0.11,-0.036 0.097,-0.021 0.084,-0.006 0.073,0.006 0.064,0.014 0.055,0.022 0.047,0.027 0.042,0.03 0.035,0.035 0.028,0.037 0.022,0.037 0.019,0.037 0.015,0.035 0.01,0.033 0.005,0.029 0,0.026 -0.005,0.021 -0.01,0.016 -0.014,0.012 -0.018,0.007 -0.022,0.002 -0.024,-0.001 -0.025,-0.003 -0.026,-0.032 -0.026,-0.061 -0.023,-0.092 -0.02,-0.123 -0.017,-0.154 -0.012,-0.185 -0.007,-0.216 0,-0.246 0.007,-0.277 0.014,-0.307 0.021,-0.336 0.029,-0.364 H 0.005 c -0.011,0 -0.018,-0.004 -0.02,-0.012 -0.001,-0.007 0,-0.015 0.003,-0.024 0.004,-0.009 0.009,-0.017 0.015,-0.024 0.006,-0.007 0.011,-0.01 0.014,-0.009 h 0.032 c 0.007,-0.021 0.013,-0.041 0.019,-0.058 0.005,-0.016 0.01,-0.031 0.015,-0.044 0.005,-0.015 0.01,-0.028 0.015,-0.039 z"
   style="fill:#ffffff;fill-rule:nonzero"
   id="path44" />&#10;                    </g>&#10;                    <g
   transform="matrix(36,0,0,36,376.108,954.471)"
   id="g46">&#10;                        <path
   d="M 0.16,-0.241 C 0.157,-0.236 0.154,-0.235 0.15,-0.238 0.145,-0.24 0.141,-0.243 0.137,-0.248 0.132,-0.253 0.129,-0.258 0.126,-0.263 0.123,-0.268 0.121,-0.272 0.122,-0.274 0.123,-0.283 0.125,-0.293 0.127,-0.303 0.128,-0.312 0.13,-0.321 0.131,-0.329 c 0.001,-0.009 0.003,-0.019 0.004,-0.028 -0.009,0.007 -0.018,0.02 -0.024,0.039 -0.008,0.02 -0.014,0.042 -0.019,0.065 -0.005,0.024 -0.009,0.047 -0.012,0.07 -0.003,0.023 -0.004,0.04 -0.004,0.053 0,0.015 0,0.026 0.001,0.035 0,0.009 0.001,0.017 0.004,0.026 0.005,-0.003 0.012,-0.01 0.022,-0.023 0.01,-0.013 0.02,-0.027 0.031,-0.043 0.01,-0.016 0.02,-0.032 0.029,-0.049 0.009,-0.016 0.016,-0.029 0.02,-0.04 0.006,-0.013 0.013,-0.021 0.02,-0.025 0.007,-0.003 0.014,-0.002 0.019,0.002 0.005,0.004 0.009,0.01 0.012,0.019 0.002,0.009 10e-4,0.019 -0.004,0.03 -0.004,0.009 -0.01,0.025 -0.019,0.045 -0.009,0.022 -0.02,0.044 -0.032,0.067 C 0.167,-0.063 0.154,-0.041 0.141,-0.02 0.127,0.002 0.113,0.017 0.1,0.026 0.092,0.031 0.083,0.032 0.072,0.029 0.061,0.025 0.051,0.02 0.042,0.013 0.032,0.006 0.024,0 0.017,-0.007 0.01,-0.014 0.006,-0.018 0.005,-0.019 -0.002,-0.033 -0.006,-0.05 -0.008,-0.071 -0.01,-0.092 -0.011,-0.112 -0.01,-0.131 c 0,-0.037 0.004,-0.075 0.011,-0.114 0.003,-0.017 0.008,-0.035 0.015,-0.054 0.006,-0.019 0.014,-0.038 0.023,-0.056 0.009,-0.017 0.021,-0.033 0.035,-0.046 0.013,-0.012 0.029,-0.021 0.047,-0.025 0.01,-0.002 0.019,0 0.029,0.005 0.009,0.005 0.016,0.012 0.023,0.02 0.007,0.008 0.012,0.017 0.016,0.026 0.004,0.009 0.006,0.017 0.006,0.023 0,0.009 -0.001,0.018 -0.004,0.029 -0.003,0.011 -0.006,0.021 -0.009,0.032 -0.004,0.011 -0.008,0.02 -0.012,0.029 -0.004,0.009 -0.007,0.016 -0.01,0.021 z"
   style="fill:#ffffff;fill-rule:nonzero"
   id="path45" />&#10;                    </g>&#10;                    <g
   transform="matrix(36,0,0,36,383.02,954.471)"
   id="g47">&#10;                        <path
   d="m 0.096,-0.57 c 0.005,-0.013 0.012,-0.02 0.021,-0.02 0.009,0.001 0.017,0.004 0.026,0.01 0.008,0.006 0.015,0.013 0.021,0.02 0.005,0.008 0.008,0.013 0.008,0.014 0,0 -0.003,0.007 -0.008,0.021 -0.005,0.015 -0.012,0.034 -0.02,0.057 -0.008,0.024 -0.016,0.051 -0.025,0.081 -0.009,0.03 -0.018,0.061 -0.026,0.093 0.013,-0.024 0.027,-0.049 0.042,-0.074 0.015,-0.025 0.031,-0.046 0.049,-0.061 0.008,-0.007 0.016,-0.009 0.025,-0.007 0.008,0.002 0.015,0.006 0.022,0.012 0.007,0.006 0.012,0.013 0.017,0.02 0.004,0.007 0.006,0.013 0.006,0.018 0,0 -0.002,0.01 -0.007,0.03 -0.005,0.02 -0.01,0.045 -0.016,0.074 -0.007,0.029 -0.013,0.061 -0.019,0.096 -0.007,0.035 -0.012,0.067 -0.015,0.096 0.011,-0.015 0.021,-0.031 0.029,-0.05 0.008,-0.018 0.017,-0.036 0.026,-0.053 0.006,-0.013 0.013,-0.02 0.021,-0.023 0.007,-0.002 0.014,-0.001 0.02,0.003 0.006,0.005 0.01,0.011 0.012,0.019 0.002,0.009 0.001,0.017 -0.004,0.025 -0.013,0.027 -0.027,0.051 -0.04,0.074 -0.013,0.024 -0.025,0.043 -0.036,0.06 -0.011,0.017 -0.019,0.03 -0.026,0.04 C 0.192,0.014 0.188,0.019 0.188,0.019 0.181,0.025 0.174,0.028 0.166,0.027 0.157,0.026 0.15,0.024 0.143,0.02 0.136,0.016 0.13,0.011 0.125,0.006 0.12,0.001 0.117,-0.003 0.116,-0.006 0.114,-0.019 0.114,-0.036 0.115,-0.059 0.116,-0.081 0.119,-0.105 0.123,-0.131 0.126,-0.157 0.131,-0.184 0.136,-0.211 0.141,-0.238 0.147,-0.262 0.153,-0.284 0.13,-0.248 0.111,-0.213 0.098,-0.18 0.085,-0.146 0.075,-0.116 0.068,-0.089 0.061,-0.062 0.056,-0.039 0.054,-0.021 0.051,-0.002 0.049,0.009 0.048,0.014 0.046,0.025 0.041,0.031 0.034,0.032 0.027,0.033 0.019,0.032 0.01,0.029 0.001,0.025 -0.007,0.02 -0.014,0.014 -0.021,0.007 -0.026,0.002 -0.027,-0.003 c -0.003,-0.039 -0.002,-0.08 0.002,-0.123 0.005,-0.043 0.012,-0.085 0.021,-0.127 0.01,-0.042 0.02,-0.082 0.031,-0.121 0.011,-0.038 0.022,-0.072 0.033,-0.101 0.01,-0.028 0.019,-0.052 0.026,-0.069 0.007,-0.017 0.01,-0.026 0.01,-0.026 z"
   style="fill:#ffffff;fill-rule:nonzero"
   id="path46" />&#10;                    </g>&#10;                </g>&#10;            </g>&#10;        </g>&#10;    </g>&#10;</svg>
